<svg xmlns="http://www.w3.org/2000/svg" width="125" height="24" viewBox="0 0 125 24">
  <g fill="#FFF" fill-rule="evenodd">
    <path d="M.290861569 14.7329912C.0196868946 14.7329912-.0797224869 14.5456694.0692085097 14.313999L8.53050426 1.15198336C8.67926333.920580362 8.79985639.955464313 8.79985639 1.24265702L8.79985639 9.22332532C8.79985639 9.504806 9.02773686 9.73299117 9.29086157 9.73299117L14.3088512 9.73299117C14.5800259 9.73299117 14.6794353 9.92031292 14.5305043 10.1519834L6.06920851 23.313999C5.92044944 23.545402 5.79985639 23.510518 5.79985639 23.2233253L5.79985639 15.242657C5.79985639 14.9611763 5.57197591 14.7329912 5.3088512 14.7329912L.290861569 14.7329912zM28.904 12.696C28.904 14.136 27.8 14.52 26.936 14.52 26.144 14.52 25.112 14.064 25.112 12.576L25.112 6.816 21.296 6.816 21.296 12.696C21.296 16.176 22.76 18.216 25.76 18.216 26.744 18.216 28.52 17.664 28.904 16.248L28.904 18 32.72 18 32.72 6.816 28.904 6.816 28.904 12.696zM42.37 13.68C41.938 14.304 41.242 14.712 40.45 14.712 39.178 14.712 38.122 13.656 38.122 12.384 38.122 11.112 39.178 10.056 40.45 10.056 41.29 10.056 42.01 10.488 42.418 11.16L45.538 9.288C44.434 7.632 42.778 6.528 40.618 6.528 37.282 6.528 34.402 8.832 34.402 12.384 34.402 15.936 37.282 18.216 40.618 18.216 42.778 18.216 44.458 17.112 45.562 15.456L42.37 13.68zM50.94 14.328C50.94 10.968 51.828 10.152 53.268 10.152 53.604 10.152 54.204 10.152 54.996 10.44L55.932 6.84C55.308 6.552 54.756 6.528 54.276 6.528 52.836 6.528 51.324 7.44 50.748 9.576L50.748 6.816 47.124 6.816 47.124 18 50.94 18 50.94 14.328zM67.742 12.24C67.742 12.528 67.694 13.152 67.67 13.464L59.654 13.464C59.798 14.52 60.998 15.168 62.222 15.168 62.846 15.168 63.71 15 64.358 14.232 64.814 14.592 66.374 15.672 66.998 16.128 65.822 17.688 63.71 18.216 61.934 18.216 58.718 18.216 55.982 15.864 55.982 12.336 55.982 8.808 58.718 6.528 61.934 6.528 65.126 6.528 67.742 8.712 67.742 12.24zM59.654 11.328L64.118 11.328C63.758 9.888 62.462 9.672 61.886 9.672 61.31 9.672 59.942 9.888 59.654 11.328zM77.176 8.016L77.176 6.816 80.992 6.816 80.992 18 77.176 18 77.176 16.728C76.48 17.712 75.304 18.216 74.08 18.216 71.32 18.216 68.632 16.008 68.632 12.384 68.632 8.76 71.32 6.528 74.08 6.528 75.208 6.528 76.48 7.032 77.176 8.016zM72.52 12.408C72.52 13.68 73.576 14.736 74.848 14.736 76.12 14.736 77.176 13.68 77.176 12.408 77.176 11.136 76.12 10.08 74.848 10.08 73.576 10.08 72.52 11.136 72.52 12.408zM88.1699999 2.808L84.4019999 2.808 84.4019999 6.816 82.3619999 6.816 82.3619999 9.624 84.4019999 9.624 84.4019999 18 88.1699999 18 88.1699999 9.624 90.5219999 9.624 90.5219999 6.816 88.1699999 6.816 88.1699999 2.808zM102.788 12.24C102.788 12.528 102.74 13.152 102.716 13.464L94.6999999 13.464C94.8439999 14.52 96.0439999 15.168 97.2679999 15.168 97.8919999 15.168 98.7559999 15 99.4039999 14.232 99.8599999 14.592 101.42 15.672 102.044 16.128 100.868 17.688 98.7559999 18.216 96.9799999 18.216 93.7639999 18.216 91.0279999 15.864 91.0279999 12.336 91.0279999 8.808 93.7639999 6.528 96.9799999 6.528 100.172 6.528 102.788 8.712 102.788 12.24zM94.6999999 11.328L99.1639999 11.328C98.8039999 9.888 97.5079999 9.672 96.9319999 9.672 96.3559999 9.672 94.9879999 9.888 94.6999999 11.328zM104.062 15.984C104.062 17.28 105.094 18.216 106.318 18.216 107.566 18.216 108.622 17.28 108.622 15.984 108.622 14.712 107.566 13.8 106.318 13.8 105.094 13.8 104.062 14.712 104.062 15.984zM110.688 6.816L114.504 6.816 114.504 18 110.688 18 110.688 6.816zM110.28 3.096C110.28 1.872 111.336.936 112.584.936 113.856.936 114.864 1.872 114.864 3.096 114.864 4.296 113.856 5.28 112.584 5.28 111.336 5.28 110.28 4.296 110.28 3.096zM121.682 2.808L117.914 2.808 117.914 6.816 115.874 6.816 115.874 9.624 117.914 9.624 117.914 18 121.682 18 121.682 9.624 124.034 9.624 124.034 6.816 121.682 6.816 121.682 2.808z"/>
  </g>
</svg>
