<svg xmlns="http://www.w3.org/2000/svg" viewBox="0 0 24.43 43.4"><defs><style>.cls-1,.cls-2,.cls-3{fill:none;}.cls-2{stroke:#0e3ff2;}.cls-2,.cls-3{stroke-miterlimit:10;stroke-width:0.5px;fill-rule:evenodd;}.cls-3{stroke:#0edbf2;}</style></defs><title>ucr_pattern</title><g id="Layer_2" data-name="Layer 2"><g id="Layer_1-2" data-name="Layer 1"><rect class="cls-1" width="24.43" height="43.4"/><path class="cls-2" d="M9.63,14.23c-.27,0-.38-.19-.23-.42L17.86.65c.15-.23.27-.2.27.09v8a.51.51,0,0,0,.49.51h5c.27,0,.38.19.23.42L15.4,22.81c-.15.23-.27.2-.27-.09v-8a.51.51,0,0,0-.49-.51Z"/><path class="cls-3" d="M.8,34.17c-.27,0-.38-.19-.23-.42L9,20.59c.15-.23.27-.2.27.09v8a.51.51,0,0,0,.49.51h5c.27,0,.38.19.23.42L6.57,42.75c-.15.23-.27.2-.27-.09v-8a.51.51,0,0,0-.49-.51Z"/></g></g></svg>