<svg xmlns="http://www.w3.org/2000/svg" xmlns:xlink="http://www.w3.org/1999/xlink" viewBox="0 0 36.37 36.37"><defs><style>.cls-1,.cls-2,.cls-3{fill:none;}.cls-2{stroke:#0e3ff2;}.cls-2,.cls-3{stroke-miterlimit:10;stroke-width:0.5px;fill-rule:evenodd;}.cls-3{stroke:#0edbf2;}.cls-4{fill:url(#New_Pattern_2);}</style><pattern id="New_Pattern_2" data-name="New Pattern 2" width="36" height="40" patternUnits="userSpaceOnUse" viewBox="0 0 36 40"><rect class="cls-1" width="36" height="40"/><path class="cls-2" d="M33.41,52.53c-.27,0-.38-.19-.23-.42L41.65,39c.15-.23.27-.2.27.09v8a.51.51,0,0,0,.49.51h5c.27,0,.38.19.23.42L39.19,61.11c-.15.23-.27.2-.27-.09V53a.51.51,0,0,0-.49-.51Z"/><path class="cls-2" d="M15.41,52.53c-.27,0-.38-.19-.23-.42L23.65,39c.15-.23.27-.2.27.09v8a.51.51,0,0,0,.49.51h5c.27,0,.38.19.23.42L21.19,61.11c-.15.23-.27.2-.27-.09V53a.51.51,0,0,0-.49-.51Z"/><path class="cls-2" d="M-2.59,52.53c-.27,0-.38-.19-.23-.42L5.65,39c.15-.23.27-.2.27.09v8a.51.51,0,0,0,.49.51h5c.27,0,.38.19.23.42L3.19,61.11c-.15.23-.27.2-.27-.09V53a.51.51,0,0,0-.49-.51Z"/><path class="cls-2" d="M33.41,12.53c-.27,0-.38-.19-.23-.42L41.65-1c.15-.23.27-.2.27.09V7a.51.51,0,0,0,.49.51h5c.27,0,.38.19.23.42L39.19,21.11c-.15.23-.27.2-.27-.09V13a.51.51,0,0,0-.49-.51Z"/><path class="cls-3" d="M24.58,32.47c-.27,0-.38-.19-.23-.42l8.46-13.16c.15-.23.27-.2.27.09v8a.51.51,0,0,0,.49.51h5c.27,0,.38.19.23.42L30.35,41c-.15.23-.27.2-.27-.09V33a.51.51,0,0,0-.49-.51Z"/><path class="cls-2" d="M15.41,12.53c-.27,0-.38-.19-.23-.42L23.65-1c.15-.23.27-.2.27.09V7a.51.51,0,0,0,.49.51h5c.27,0,.38.19.23.42L21.19,21.11c-.15.23-.27.2-.27-.09V13a.51.51,0,0,0-.49-.51Z"/><path class="cls-3" d="M6.58,32.47c-.27,0-.38-.19-.23-.42l8.46-13.16c.15-.23.27-.2.27.09v8a.51.51,0,0,0,.49.51h5c.27,0,.38.19.23.42L12.35,41c-.15.23-.27.2-.27-.09V33a.51.51,0,0,0-.49-.51Z"/><path class="cls-2" d="M-2.59,12.53c-.27,0-.38-.19-.23-.42L5.65-1c.15-.23.27-.2.27.09V7a.51.51,0,0,0,.49.51h5c.27,0,.38.19.23.42L3.19,21.11c-.15.23-.27.2-.27-.09V13a.51.51,0,0,0-.49-.51Z"/><path class="cls-3" d="M-11.42,32.47c-.27,0-.38-.19-.23-.42l8.46-13.16c.15-.23.27-.2.27.09v8a.51.51,0,0,0,.49.51h5c.27,0,.38.19.23.42L-5.65,41c-.15.23-.27.2-.27-.09V33a.51.51,0,0,0-.49-.51Z"/><path class="cls-3" d="M24.58-7.53c-.27,0-.38-.19-.23-.42l8.46-13.16c.15-.23.27-.2.27.09v8a.51.51,0,0,0,.49.51h5c.27,0,.38.19.23.42L30.35,1c-.15.23-.27.2-.27-.09V-7a.51.51,0,0,0-.49-.51Z"/><path class="cls-3" d="M6.58-7.53c-.27,0-.38-.19-.23-.42l8.46-13.16c.15-.23.27-.2.27.09v8a.51.51,0,0,0,.49.51h5c.27,0,.38.19.23.42L12.35,1c-.15.23-.27.2-.27-.09V-7a.51.51,0,0,0-.49-.51Z"/><path class="cls-3" d="M-11.42-7.53c-.27,0-.38-.19-.23-.42l8.46-13.16c.15-.23.27-.2.27.09v8a.51.51,0,0,0,.49.51h5c.27,0,.38.19.23.42L-5.65,1c-.15.23-.27.2-.27-.09V-7a.51.51,0,0,0-.49-.51Z"/></pattern></defs><title>ucr_pattern3</title><g id="Layer_2" data-name="Layer 2"><g id="Layer_1-2" data-name="Layer 1"><rect class="cls-4" width="36.37" height="36.37"/></g></g></svg>