<svg xmlns="http://www.w3.org/2000/svg" viewBox="0 0 59.93 83.03"><defs><style>.cls-1{opacity:0.2;}.cls-2,.cls-3,.cls-4{fill:none;}.cls-3{stroke:#0e3ff2;}.cls-3,.cls-4{stroke-miterlimit:10;stroke-width:0.5px;fill-rule:evenodd;}.cls-4{stroke:#0edbf2;}</style></defs><title>ucr_pattern2</title><g id="Layer_2" data-name="Layer 2"><g id="Layer_1-2" data-name="Layer 1"><g class="cls-1"><rect class="cls-2" x="11.97" y="21.51" width="36" height="40"/><path class="cls-3" d="M45.38,74c-.27,0-.38-.19-.23-.42l8.46-13.16c.15-.23.27-.2.27.09v8a.51.51,0,0,0,.49.51h5c.27,0,.38.19.23.42L51.15,82.63c-.15.23-.27.2-.27-.09v-8a.51.51,0,0,0-.49-.51Z"/><path class="cls-3" d="M27.38,74c-.27,0-.38-.19-.23-.42l8.46-13.16c.15-.23.27-.2.27.09v8a.51.51,0,0,0,.49.51h5c.27,0,.38.19.23.42L33.15,82.63c-.15.23-.27.2-.27-.09v-8a.51.51,0,0,0-.49-.51Z"/><path class="cls-3" d="M9.38,74c-.27,0-.38-.19-.23-.42l8.46-13.16c.15-.23.27-.2.27.09v8a.51.51,0,0,0,.49.51h5c.27,0,.38.19.23.42L15.15,82.63c-.15.23-.27.2-.27-.09v-8a.51.51,0,0,0-.49-.51Z"/><path class="cls-3" d="M45.38,34c-.27,0-.38-.19-.23-.42l8.46-13.16c.15-.23.27-.2.27.09v8a.51.51,0,0,0,.49.51h5c.27,0,.38.19.23.42L51.15,42.63c-.15.23-.27.2-.27-.09v-8a.51.51,0,0,0-.49-.51Z"/><path class="cls-4" d="M36.55,54c-.27,0-.38-.19-.23-.42L44.78,40.4c.15-.23.27-.2.27.09v8a.51.51,0,0,0,.49.51h5c.27,0,.38.19.23.42L42.32,62.56c-.15.23-.27.2-.27-.09v-8a.51.51,0,0,0-.49-.51Z"/><path class="cls-3" d="M27.38,34c-.27,0-.38-.19-.23-.42l8.46-13.16c.15-.23.27-.2.27.09v8a.51.51,0,0,0,.49.51h5c.27,0,.38.19.23.42L33.15,42.63c-.15.23-.27.2-.27-.09v-8a.51.51,0,0,0-.49-.51Z"/><path class="cls-4" d="M18.55,54c-.27,0-.38-.19-.23-.42L26.78,40.4c.15-.23.27-.2.27.09v8a.51.51,0,0,0,.49.51h5c.27,0,.38.19.23.42L24.32,62.56c-.15.23-.27.2-.27-.09v-8a.51.51,0,0,0-.49-.51Z"/><path class="cls-3" d="M9.38,34c-.27,0-.38-.19-.23-.42l8.46-13.16c.15-.23.27-.2.27.09v8a.51.51,0,0,0,.49.51h5c.27,0,.38.19.23.42L15.15,42.63c-.15.23-.27.2-.27-.09v-8a.51.51,0,0,0-.49-.51Z"/><path class="cls-4" d="M.55,54c-.27,0-.38-.19-.23-.42L8.78,40.4c.15-.23.27-.2.27.09v8a.51.51,0,0,0,.49.51h5c.27,0,.38.19.23.42L6.32,62.56c-.15.23-.27.2-.27-.09v-8A.51.51,0,0,0,5.56,54Z"/><path class="cls-4" d="M36.55,14c-.27,0-.38-.19-.23-.42L44.78.4c.15-.23.27-.2.27.09v8a.51.51,0,0,0,.49.51h5c.27,0,.38.19.23.42L42.32,22.56c-.15.23-.27.2-.27-.09v-8a.51.51,0,0,0-.49-.51Z"/><path class="cls-4" d="M18.55,14c-.27,0-.38-.19-.23-.42L26.78.4c.15-.23.27-.2.27.09v8a.51.51,0,0,0,.49.51h5c.27,0,.38.19.23.42L24.32,22.56c-.15.23-.27.2-.27-.09v-8a.51.51,0,0,0-.49-.51Z"/><path class="cls-4" d="M.55,14c-.27,0-.38-.19-.23-.42L8.78.4C8.93.17,9,.21,9,.49v8A.51.51,0,0,0,9.54,9h5c.27,0,.38.19.23.42L6.32,22.56c-.15.23-.27.2-.27-.09v-8A.51.51,0,0,0,5.56,14Z"/></g></g></g></svg>