<svg xmlns="http://www.w3.org/2000/svg" width="23" height="31" viewBox="0 0 23 31">
  <path fill="#8D9697" fill-rule="evenodd" d="M7.79845183,0.579542373 C9.02646844,0.2422954 10.3563422,0.073559322 11.7880731,0.073559322 C14.0347375,0.073559322 16.1356844,0.408029056 18.0912193,1.07689346 C20.0466777,1.74583293 21.676392,2.68056174 22.9801329,3.88123002 L21.9674452,4.61869976 C20.7800797,3.56672639 19.2960066,2.75209443 17.5149967,2.17457869 C15.7340631,1.59721308 13.8251395,1.30845521 11.7880731,1.30845521 C10.1933555,1.30845521 8.75291362,1.53431235 7.4666711,1.98595157 C6.18042857,2.4375908 5.12120598,3.0579661 4.28892691,3.84692736 C3.45657143,4.63588862 2.81639203,5.55065133 2.36831229,6.59114044 C1.92007973,7.63162954 1.69603987,8.75220823 1.69603987,9.95280145 C1.69603987,11.5651017 2.02774419,13.0172228 2.69122924,14.3093148 C3.35471429,15.6014068 4.36747841,16.6390436 5.72936877,17.4222252 C7.09125914,18.2054818 8.70339867,18.5971477 10.5658638,18.5971477 L12.4865548,18.5971477 C13.3827907,18.5971477 14.0287774,18.8258571 14.4245914,19.283276 C14.8203289,19.7406199 15.0182359,20.3351743 15.0182359,21.0669395 C15.0182359,22.7135424 13.7669136,23.5367312 11.2642691,23.5367312 C8.90130565,23.5367312 7.1261794,23.1937046 5.93889037,22.5077264 L6.95157807,21.7529927 C7.7663588,22.1189128 9.20389701,22.3018354 11.2642691,22.3018354 C12.2653422,22.3018354 12.9375382,22.1932228 13.2809336,21.9759976 C13.6243289,21.7586973 13.796103,21.455753 13.796103,21.0669395 C13.796103,20.6896102 13.6999767,20.3894431 13.5079535,20.1665133 C13.3158538,19.9435085 12.9637475,19.8320436 12.4515581,19.8320436 L10.5658638,19.8320436 C8.95953156,19.8320436 7.50739867,19.5747361 6.20954153,19.0602712 C4.91168439,18.5456562 3.84657807,17.8367845 3.014299,16.9335061 C2.18201993,16.0301525 1.54466777,14.9838838 1.10247176,13.7946998 C0.660122924,12.6055908 0.438910299,11.324908 0.438910299,9.95280145 C0.438910299,8.85511622 0.596089701,7.81462712 0.910372093,6.83125908 C1.22465449,5.84789104 1.69894352,4.94461259 2.33339203,4.12134867 C2.96776412,3.29800969 3.73012625,2.58628571 4.62063123,1.98595157 C5.51113621,1.38569249 6.5703588,0.916864407 7.79845183,0.579542373 Z M5.27540532,4.64444552 C6.82351163,3.24374092 8.99445183,2.54335109 11.7880731,2.54335109 C13.6505382,2.54335109 15.3877641,2.794954 16.9999801,3.29808475 C18.6121196,3.8012155 19.953608,4.51008717 21.024598,5.42484988 L20.0466777,6.19669734 C19.0922159,5.43055448 17.8933123,4.836 16.4499668,4.41288378 C15.0065449,3.98976755 13.4526312,3.77824697 11.7880731,3.77824697 C9.33196346,3.77824697 7.45505648,4.35576271 6.15712292,5.51056901 C4.85926578,6.66552542 4.210299,8.14616949 4.210299,9.95280145 C4.210299,11.7480242 4.75740864,13.225891 5.85162791,14.386477 C6.94584718,15.547063 8.51725914,16.1272809 10.5658638,16.1272809 L12.4865548,16.1272809 C14.1859568,16.1272809 15.4605083,16.5904044 16.3102857,17.5166513 C17.1600631,18.4428232 17.5848372,19.6262276 17.5848372,21.0669395 C17.5848372,22.5305448 17.0581296,23.7196538 16.0047143,24.6344165 C14.9513754,25.5491792 13.3711761,26.006523 11.2642691,26.006523 C9.78600332,26.006523 8.40951827,25.837937 7.13496678,25.500615 C5.86033887,25.163293 4.80982724,24.6802034 3.98327907,24.0512712 L4.97854485,23.2966877 C6.4335814,24.2799806 8.52879734,24.7716271 11.2642691,24.7716271 C13.021897,24.7716271 14.3052359,24.4315278 15.1142093,23.7511792 C15.9232591,23.0708305 16.3277076,22.1760339 16.3277076,21.0669395 C16.3277076,19.95777 16.0251163,19.0630484 15.4197807,18.3827748 C14.814598,17.7024262 13.8309468,17.3622518 12.4689801,17.3622518 L10.5658638,17.3622518 C8.17959468,17.3622518 6.31430233,16.661862 4.9699103,15.2611574 C3.62544186,13.8604528 2.95316944,12.0910508 2.95316944,9.95280145 C2.95316944,7.81462712 3.727299,6.04515012 5.27540532,4.64444552 Z M7.04762791,6.38524939 C8.1011196,5.47056174 9.68124252,5.01321792 11.7880731,5.01321792 C13.2664153,5.01321792 14.6399203,5.18187893 15.9087409,5.51912591 C17.177485,5.85644794 18.225093,6.33953753 19.0515648,6.96846973 L18.056299,7.72312833 C16.6012625,6.73983535 14.5119302,6.2481138 11.7880731,6.2481138 C10.0303688,6.2481138 8.74710631,6.58828814 7.93813289,7.2686368 C7.12908306,7.94898547 6.72455814,8.84363196 6.72455814,9.95280145 C6.72455814,11.0734552 7.02432226,11.970954 7.6238505,12.6455981 C8.22322591,13.3202421 9.20397342,13.6574891 10.5658638,13.6574891 L12.5563189,13.6574891 C14.9192824,13.6574891 16.7671528,14.3664358 18.0999302,15.7842542 C19.4327076,17.2021477 20.0990963,18.9630678 20.0990963,21.0669395 C20.0990963,23.2051889 19.3251196,24.9746659 17.7769369,26.3752954 C16.2287542,27.776 14.0578904,28.4763898 11.2642691,28.4763898 C9.40180399,28.4763898 7.66167442,28.2247869 6.04365116,27.7216562 C4.42562791,27.2186005 3.08123588,26.5096538 2.01032226,25.594891 L2.9880897,24.8231186 C3.94262791,25.5891864 5.14443522,26.183816 6.59366445,26.6068571 C8.04281728,27.0298983 9.59978738,27.2414189 11.2642691,27.2414189 C13.7203787,27.2414189 15.5972857,26.6640533 16.8952193,25.5091719 C18.1930764,24.3542906 18.8419668,22.8735714 18.8419668,21.0669395 C18.8419668,19.283201 18.2979136,17.8081864 17.2095017,16.6418959 C16.1211661,15.4756053 14.5642724,14.892385 12.538897,14.892385 L10.5658638,14.892385 C8.86638538,14.892385 7.59175748,14.4350412 6.74205648,13.5202785 C5.89235548,12.6055908 5.46742857,11.4164068 5.46742857,9.95280145 C5.46742857,8.48927119 5.99413621,7.30008717 7.04762791,6.38524939 Z M8.03410631,9.95280145 C8.03410631,8.30627361 9.28542857,7.48293462 11.7880731,7.48293462 C14.1393455,7.48293462 15.9087409,7.82603632 17.0960299,8.51208959 L16.0833422,9.26674818 C15.268485,8.90090315 13.8367542,8.71783051 11.7880731,8.71783051 C10.787,8.71783051 10.114804,8.82651816 9.77140864,9.0438184 C9.42801329,9.26104358 9.25639203,9.56406295 9.25639203,9.95280145 C9.25639203,10.341615 9.34938538,10.6445593 9.53575415,10.8618596 C9.7219701,11.0790847 10.0653654,11.1876973 10.5658638,11.1876973 L12.7308439,11.1876973 C14.3023322,11.1876973 15.7195449,11.4507094 16.9824817,11.9766586 C18.245495,12.5026828 19.2843156,13.2201864 20.0990963,14.1291695 C20.9139535,15.0382276 21.536711,16.0844964 21.9674452,17.2679007 C22.3980266,18.4513801 22.6133555,19.7177264 22.6133555,21.0669395 C22.6133555,22.1646247 22.4562525,23.2051889 22.1420465,24.1884818 C21.8277641,25.1719249 21.3533987,26.0752034 20.7190266,26.8984673 C20.0845781,27.7216562 19.3221395,28.4335303 18.431711,29.0337893 C17.541206,29.6340484 16.4819834,30.1028765 15.2539668,30.4401985 C14.0258738,30.7775206 12.6960764,30.9461816 11.2642691,30.9461816 C9.01775748,30.9461816 6.91375415,30.6117119 4.95241196,29.9427724 C2.99099336,29.2739831 1.35845183,28.3391041 0.0547873754,27.1385109 L1.06747508,26.4010412 C2.25476412,27.4530145 3.74181728,28.2676465 5.52855814,28.8450872 C7.315299,29.4225278 9.22720266,29.7112857 11.2642691,29.7112857 C12.8589103,29.7112857 14.2994286,29.4854286 15.5856711,29.0337893 C16.8719136,28.5821501 17.9312126,27.9618499 18.7634153,27.1728886 C19.5956944,26.3839274 20.2358738,25.4691646 20.6841063,24.4286005 C21.132186,23.3880363 21.3562259,22.2675327 21.3562259,21.0669395 C21.3562259,19.4776077 21.0304053,18.0396731 20.3785349,16.7534358 C19.7267409,15.4670484 18.7343787,14.423632 17.4016013,13.6231864 C16.0687475,12.822816 14.4944319,12.4225932 12.6785781,12.4225932 L10.5658638,12.4225932 C9.6695515,12.4225932 9.02348837,12.1968111 8.62782724,11.7450969 C8.23193688,11.2935327 8.03410631,10.6960508 8.03410631,9.95280145 Z"/>
</svg>
