<svg xmlns="http://www.w3.org/2000/svg" width="54" height="30" viewBox="0 0 54 30">
  <path fill="#8D9697" fill-rule="evenodd" d="M119.189204,496.978743 L119.189204,497.22547 C122.329627,497.22547 123.007783,501.413105 122.237536,503.599618 L119.465995,511.391069 L114.847278,500.797322 C114.847278,500.797322 113.276375,497.22547 115.247433,497.22547 L115.247433,496.978743 L105.638352,496.978743 L105.638352,497.22547 C106.439871,497.286634 106.87009,497.255707 107.917301,499.719875 C107.917301,499.719875 108.102865,500.120203 109.981487,504.493229 L107.516973,511.359968 C107.516973,511.359968 100.988361,496.369007 97.8356704,489 L96.7262591,489 L91.7996504,502.796543 C90.567739,499.994074 88.7202175,495.683076 85.8555485,489 L84.7473466,489 L79.3580369,504.059209 C77.1103602,509.479792 75.2315658,510.43353 74,510.43353 L74,510.680257 L82.7451883,510.680257 L82.7451883,510.43353 C79.6047647,510.43353 78.9267815,506.246068 79.6970285,504.059209 L82.468397,496.267931 L87.0872871,506.861678 C87.0872871,506.861678 88.6580172,510.43353 86.6871319,510.43353 L86.6871319,510.680257 L96.2960404,510.680257 L96.2960404,510.43353 C95.4946933,510.372366 95.0643018,510.403466 94.0170908,507.939125 C94.0170908,507.939125 93.8316994,507.538797 91.952905,503.165598 L94.4174188,496.298859 L104.100277,518.659 L105.208133,518.659 L110.134914,504.862457 C111.366653,507.664926 113.214174,511.975924 116.078843,518.659 L117.187218,518.659 L122.576355,503.599618 C124.824205,498.179208 126.702826,497.22547 127.934565,497.22547 L127.934565,496.978743 L119.189204,496.978743 Z" transform="translate(-74 -489)"/>
</svg>
