<svg xmlns="http://www.w3.org/2000/svg" xmlns:xlink="http://www.w3.org/1999/xlink" width="160" height="24" viewBox="0 0 160 24">
  <defs>
    <polygon id="logo_mm-a" points="7.2 .01 7.2 11.703 .123 11.703 .123 .01 7.2 .01"/>
    <polygon id="logo_mm-c" points="0 23.838 0 .109 20.266 .109 20.266 23.838 0 23.838"/>
  </defs>
  <g fill="none" fill-rule="evenodd">
    <polygon fill="#8D9697" points="58.068 17.756 55.391 17.756 55.391 10.958 52.363 15.919 52.062 15.919 49.033 10.958 49.033 17.756 46.357 17.756 46.357 6.064 49.033 6.064 52.212 11.258 55.391 6.064 58.068 6.064"/>
    <g transform="translate(0 .053)">
      <path fill="#8D9697" d="M64.240688 15.6981892C64.926768 15.6981892 65.512368 15.4311081 65.846768 15.0638108L67.854768 16.215973C67.034608 17.3519189 65.796688 17.937 64.207408 17.937 61.346128 17.937 59.572848 16.0155405 59.572848 13.5266757 59.572848 11.037973 61.379888 9.11683784 64.023408 9.11683784 66.465968 9.11683784 68.272848 11.0045676 68.272848 13.5266757 68.272848 13.8772703 68.239248 14.2116486 68.172208 14.5288378L62.233168 14.5288378C62.550768 15.3975405 63.320368 15.6981892 64.240688 15.6981892L64.240688 15.6981892zM65.779728 12.6582973C65.512368 11.6893784 64.759248 11.3384595 64.006448 11.3384595 63.052848 11.3384595 62.417008 11.8062973 62.182768 12.6582973L65.779728 12.6582973zM78.193504 9.35075676L78.193504 17.7027568 75.683904 17.7027568 75.683904 16.9175676C75.131584 17.5525946 74.311904 17.9369189 73.190784 17.9369189 70.999104 17.9369189 69.192224 16.0156216 69.192224 13.5267568 69.192224 11.0378919 70.999104 9.11691892 73.190784 9.11691892 74.311904 9.11691892 75.131584 9.50124324 75.683904 10.1357838L75.683904 9.35075676 78.193504 9.35075676zM75.683904 13.5267568C75.683904 12.2738919 74.847424 11.489027 73.692864 11.489027 72.538624 11.489027 71.701824 12.2738919 71.701824 13.5267568 71.701824 14.7794595 72.538624 15.5648108 73.692864 15.5648108 74.847424 15.5648108 75.683904 14.7794595 75.683904 13.5267568L75.683904 13.5267568zM86.441008 15.1971405C86.441008 17.1182757 84.767888 17.9365459 82.961008 17.9365459 81.287888 17.9365459 80.016368 17.3020054 79.363888 15.9489243L81.538928 14.7127622C81.756368 15.3473027 82.224528 15.6982216 82.961008 15.6982216 83.563248 15.6982216 83.864368 15.5144919 83.864368 15.1804378 83.864368 14.261627 79.748848 14.7461676 79.748848 11.8562757 79.748848 10.0353568 81.287888 9.11687027 83.027888 9.11687027 84.382928 9.11687027 85.587568 9.71849189 86.290608 10.9040595L84.148848 12.0568703C83.914608 11.6224378 83.580048 11.3219514 83.027888 11.3219514 82.592848 11.3219514 82.325328 11.4889784 82.325328 11.7894649 82.325328 12.7416811 86.441008 12.1068162 86.441008 15.1971405M95.608976 9.35075676L95.608976 17.7027568 93.099216 17.7027568 93.099216 16.9175676C92.647376 17.5358919 91.810896 17.9369189 90.706736 17.9369189 89.016976 17.9369189 87.578096 16.7338378 87.578096 14.4788108L87.578096 9.35075676 90.087696 9.35075676 90.087696 14.1115135C90.087696 15.1470811 90.740016 15.6314595 91.543376 15.6314595 92.463376 15.6314595 93.099216 15.0971351 93.099216 13.9110811L93.099216 9.35075676 95.608976 9.35075676zM102.467728 9.18368108L102.467728 12.0234649C101.430288 11.8562757 99.957968 12.2740054 99.957968 13.9278973L99.957968 17.7027081 97.448528 17.7027081 97.448528 9.35087027 99.957968 9.35087027 99.957968 10.8374108C100.292528 9.71816757 101.413808 9.18368108 102.467728 9.18368108M107.636944 15.6981892C108.323024 15.6981892 108.908624 15.4311081 109.243024 15.0638108L111.251024 16.215973C110.430864 17.3519189 109.192944 17.937 107.603664 17.937 104.742384 17.937 102.969104 16.0155405 102.969104 13.5266757 102.969104 11.037973 104.776144 9.11683784 107.419344 9.11683784 109.862224 9.11683784 111.669104 11.0045676 111.669104 13.5266757 111.669104 13.8772703 111.635504 14.2116486 111.568464 14.5288378L105.629104 14.5288378C105.947024 15.3975405 106.716624 15.6981892 107.636944 15.6981892L107.636944 15.6981892zM109.175984 12.6582973C108.908624 11.6893784 108.155504 11.3384595 107.402704 11.3384595 106.449104 11.3384595 105.813264 11.8062973 105.579024 12.6582973L109.175984 12.6582973z"/>
      <polygon fill="#8D9697" points="124.216 17.703 123.33 17.703 123.33 7.313 118.996 14.496 118.846 14.496 114.512 7.313 114.512 17.703 113.626 17.703 113.626 6.01 114.73 6.01 118.913 12.925 123.096 6.01 124.216 6.01"/>
      <path fill="#9B9999" d="M135.173824,9.35075676 L135.173824,17.7027568 L134.320544,17.7027568 L134.320544,15.8153514 C133.617824,17.0682162 132.329504,17.8864865 130.723424,17.8864865 C128.347744,17.8864865 126.390464,15.9989189 126.390464,13.5267568 C126.390464,11.0545946 128.347744,9.16686486 130.723424,9.16686486 C132.329504,9.16686486 133.617824,9.9852973 134.320544,11.2384865 L134.320544,9.35075676 L135.173824,9.35075676 Z M134.320544,13.5267568 C134.320544,11.538973 132.781344,9.96875676 130.790464,9.96875676 C128.799264,9.96875676 127.243424,11.538973 127.243424,13.5267568 C127.243424,15.5145405 128.799264,17.0847568 130.790464,17.0847568 C132.781344,17.0847568 134.320544,15.5145405 134.320544,13.5267568 L134.320544,13.5267568 Z"/>
      <path fill="#8D9697" d="M139.53976 10.1693189L139.53976 15.5980216C139.53976 17.0678595 140.326 17.1012649 142.0324 16.9511027L142.0324 17.7027243C139.84088 18.0367784 138.68632 17.5022919 138.68632 15.5980216L138.68632 10.1693189 136.846 10.1693189 136.846 9.35088649 138.68632 9.35088649 138.68632 7.26272432 139.53976 7.01218378 139.53976 9.35088649 142.0324 9.35088649 142.0324 10.1693189 139.53976 10.1693189zM142.968976 13.5267405C142.968976 11.0545784 144.842896 9.16684865 147.368976 9.16684865 149.008656 9.16684865 150.414256 10.0019838 151.016656 11.3051189L150.330416 11.7061459C149.845296 10.6535514 148.707536 9.96874054 147.368976 9.96874054 145.344656 9.96874054 143.822256 11.5389568 143.822256 13.5267405 143.822256 15.5145243 145.344656 17.0847405 147.368976 17.0847405 148.724336 17.0847405 149.828336 16.383227 150.380496 15.3473351L151.083536 15.7650649C150.414256 17.0513351 149.008656 17.8864703 147.368976 17.8864703 144.842896 17.8864703 142.968976 15.9989027 142.968976 13.5267405"/>
      <g transform="translate(152.8 6)">
        <mask id="logo_mm-b" fill="#fff">
          <use xlink:href="#logo_mm-a"/>
        </mask>
        <path fill="#9B9999" d="M7.200064,6.50768108 L7.200064,11.7028703 L6.346624,11.7028703 L6.346624,6.50768108 C6.346624,4.97103243 5.459904,3.96887027 3.887104,3.96887027 C2.247744,3.96887027 0.959264,5.03784324 0.959264,7.29319459 L0.959264,11.7028703 L0.122944,11.7028703 L0.122944,0.00984324324 L0.959264,0.00984324324 L0.959264,4.93762703 C1.595424,3.70162703 2.665984,3.16681622 3.954144,3.16681622 C5.945184,3.16681622 7.200064,4.48665405 7.200064,6.50768108" mask="url(#logo_mm-b)"/>
      </g>
      <path fill="#8D9697" d="M40.274288 15.5249514L31.912048 7.17635676 25.090928.365708108C24.747728.0232216216 24.186288.0232216216 23.843568.365708108L20.265808 3.93781622 23.509488 7.17635676 31.871568 15.5249514C32.214928 15.8674378 32.214928 16.4278703 31.871568 16.7703568L28.628048 20.0087351 32.205648 23.5810054C32.548528 23.9233297 33.109968 23.9233297 33.453168 23.5810054L40.274288 16.7703568C40.617328 16.4278703 40.617328 15.8674378 40.274288 15.5249514M11.903664 20.0089459L15.481264 23.5805676C15.824144 23.9235405 16.385584 23.9235405 16.728784 23.5805676L20.265904 20.0493243 16.064464 15.8548378 11.903664 20.0089459z" opacity=".5"/>
      <g opacity=".5">
        <mask id="logo_mm-d" fill="#fff">
          <use xlink:href="#logo_mm-c"/>
        </mask>
        <path fill="#8D9697" d="M8.659904,15.5249514 L17.022144,7.17635676 L20.265664,3.93781622 L16.688384,0.365708108 C16.345184,0.0232216216 15.783744,0.0232216216 15.440544,0.365708108 L8.619264,7.17635676 L0.257024,15.5249514 C-0.085696,15.8674378 -0.085696,16.4278703 0.257024,16.7703568 L7.078304,23.5810054 C7.421664,23.9233297 7.983104,23.9233297 8.326144,23.5810054 L11.903424,20.0087351 L8.659904,16.7703568 C8.316544,16.4278703 8.316544,15.8674378 8.659904,15.5249514" mask="url(#logo_mm-d)"/>
      </g>
      <path fill="#8D9697" d="M20.26584,20.0494865 L23.8028,23.5807297 C24.14616,23.9232162 24.7076,23.9232162 25.05032,23.5807297 L28.62808,20.0091081 L24.46728,15.8548378 L20.26584,20.0494865 Z" opacity=".5"/>
      <path fill="#8D9697" d="M31.871632,15.5249514 L23.509392,7.17635676 L20.266032,3.93781622 L17.021872,7.17635676 L8.659792,15.5249514 C8.316912,15.8674378 8.316912,16.4278703 8.659792,16.7703568 L11.903632,20.0087351 L16.064592,15.854627 L20.266032,20.0496 L24.467312,15.854627 L28.628272,20.0087351 L31.871632,16.7703568 C32.214992,16.4278703 32.214992,15.8674378 31.871632,15.5249514"/>
    </g>
  </g>
</svg>
