<svg xmlns="http://www.w3.org/2000/svg" xmlns:xlink="http://www.w3.org/1999/xlink" width="87" height="21" viewBox="0 0 87 21">
  <defs>
    <polygon id="logo_heero-a" points="0 .066 20.728 .066 20.728 20.912 0 20.912 0 .066"/>
  </defs>
  <g fill="none" fill-rule="evenodd">
    <polygon fill="#8D9697" points="35.996 11.351 27.156 11.351 27.156 18.374 25.234 18.374 25.234 2.817 27.156 2.817 27.156 9.551 35.996 9.551 35.996 2.817 37.918 2.817 37.918 18.374 35.996 18.374"/>
    <g transform="translate(0 .021)">
      <path fill="#8D9697" d="M50.0726673 12.0634762C49.9844493 9.92943875 48.5260683 8.77408875 46.3825623 8.77408875 44.4821343 8.77408875 42.8244363 9.92943875 42.5154123 12.0408137L50.0726673 12.0408137 50.0726673 12.0634762zM51.1333713 16.5971137C50.0283843 17.9083012 48.1279563 18.5529137 46.4267583 18.5529137 43.0456773 18.5529137 40.6811043 16.3083637 40.6811043 12.8192137 40.6811043 9.50742625 43.0456773 7.12917625 46.3378443 7.12917625 49.6750773 7.12917625 52.2162603 9.19610125 51.7965723 13.5742512L42.5154123 13.5742512C42.7140333 15.5970762 44.3716443 16.8635512 46.4707803 16.8635512 47.7081813 16.8635512 49.2110193 16.3748637 49.9402533 15.4857762L51.1556433 16.5971137 51.1333713 16.5971137zM63.0227478 12.0634762C62.9345298 9.92943875 61.4759748 8.77408875 59.3322078 8.77408875 57.4322148 8.77408875 55.7745168 9.92943875 55.4654058 12.0408137L63.0227478 12.0408137 63.0227478 12.0634762zM64.0835388 16.5971137C62.9785518 17.9083012 61.0779498 18.5529137 59.3769258 18.5529137 55.9956708 18.5529137 53.6310108 16.3083637 53.6310108 12.8192137 53.6310108 9.50742625 55.9956708 7.12917625 59.2880118 7.12917625 62.6248098 7.12917625 65.1663408 9.19610125 64.7464788 13.5742512L55.4654058 13.5742512C55.6641138 15.5970762 57.3216378 16.8635512 59.4209478 16.8635512 60.6580878 16.8635512 62.1611868 16.3748637 62.8901598 15.4857762L64.1057238 16.5971137 64.0835388 16.5971137zM68.9680581 7.351715L69.1004721 8.99619C69.8516301 7.5738775 71.1997821 7.1736525 72.4592811 7.1736525 73.4093211 7.1514275 74.3374371 7.4849775 75.0002031 7.99589L74.1827511 9.55199C73.6080291 9.1516775 73.0334811 8.95174 72.2821491 8.95174 70.5365811 8.9740525 69.0782871 10.2186525 69.0782871 12.2411275L69.0782871 18.3530025 67.2661641 18.3530025 67.2661641 7.37394 68.9457861 7.37394 68.9680581 7.351715zM81.3430425 8.7963225C79.1112315 8.7963225 77.4757185 10.4407975 77.4757185 12.885285 77.4757185 15.1969475 79.0890465 16.8414225 81.3207705 16.8414225 83.5747665 16.8414225 85.1882685 15.1969475 85.2102795 12.885285 85.2102795 10.4407975 83.5305705 8.7963225 81.3430425 8.7963225M81.3207705 7.129185C84.6575685 7.129185 86.9999565 9.48521 86.9999565 12.885285 86.9999565 16.219385 84.6135465 18.5529225 81.3207705 18.5529225 78.0501795 18.5529225 75.6640305 16.219385 75.6640305 12.885285 75.6640305 9.48521 78.0724515 7.129185 81.3207705 7.129185"/>
      <mask id="logo_heero-b" fill="#fff">
        <use xlink:href="#logo_heero-a"/>
      </mask>
      <path fill="#8D9697" d="M14.5242411,12.4702113 L14.5242411,16.1565863 L11.9332071,16.1565863 L11.9332071,11.8346113 L10.3638141,11.8346113 L8.8154751,11.8346113 L8.8154751,16.1565863 L6.2033871,16.1565863 L6.2033871,9.97024875 C5.9506521,9.88554875 5.8243281,9.69479875 5.8243281,9.41952375 C5.8243281,9.14389875 5.9506521,8.95323625 6.2033871,8.82618625 L6.2033871,4.82201125 L6.7510521,4.82201125 L6.7510521,5.35164875 L6.7510521,5.81767375 L6.7510521,8.88971125 C6.9617661,8.99558625 7.0671231,9.18633625 7.0671231,9.41952375 C7.0671231,9.67362375 6.9617661,9.84311125 6.7510521,9.94907375 L6.7510521,15.6269488 L8.2468431,15.6269488 L8.2468431,11.3049737 L10.3638141,11.3049737 L12.4808721,11.3049737 L12.4808721,15.6269488 L13.9555221,15.6269488 L13.9555221,12.4278612 C13.7658621,12.3219862 13.6605051,12.1313237 13.6605051,11.8770488 C13.6605051,11.6440362 13.7658621,11.4744613 13.9555221,11.3473237 L13.9555221,6.45327375 L13.5551481,6.45327375 L13.5551481,15.2245362 L12.8810721,15.2245362 L12.8810721,10.9022987 L10.3638141,10.9022987 L7.8464691,10.9022987 L7.8464691,15.2245362 L7.1723931,15.2245362 L7.1723931,8.02101125 L7.1723931,5.81767375 L7.1723931,5.75406125 L7.1723931,5.35164875 L7.1723931,4.82201125 L8.7732801,4.82201125 L8.7732801,9.33456125 L10.3638141,9.33456125 L11.9332071,9.33456125 L11.9332071,4.82201125 L14.5242411,4.82201125 L14.5242411,5.35164875 L13.9555221,5.35164875 L13.6183101,5.35164875 L12.4808721,5.35164875 L12.4808721,9.88554875 L10.3638141,9.88554875 L8.2468431,9.88554875 L8.2468431,5.35164875 L7.8464691,5.35164875 L7.8464691,5.75406125 L7.8464691,8.02101125 L7.8464691,10.2881362 L10.3638141,10.2881362 L12.8810721,10.2881362 L12.8810721,5.75406125 L13.2391641,5.75406125 L13.5551481,5.75406125 L13.6183101,5.75406125 L13.9555221,5.75406125 L14.5242411,5.75406125 L14.5242411,5.90246125 L14.5242411,11.3049737 C14.7768891,11.4108487 14.9033001,11.6015987 14.9033001,11.8770488 C14.9033001,12.1734987 14.7768891,12.3642487 14.5242411,12.4702113 M16.2902541,0.06621125 L4.4372871,0.06621125 C1.9866711,0.06621125 2.6099998e-05,2.06418625 2.6099998e-05,4.52897375 L2.6099998e-05,16.4497113 C2.6099998e-05,18.9144113 1.9866711,20.9124738 4.4372871,20.9124738 L16.2902541,20.9124738 C18.7408701,20.9124738 20.7275151,18.9144113 20.7275151,16.4497113 L20.7275151,4.52897375 C20.7275151,2.06418625 18.7408701,0.06621125 16.2902541,0.06621125" mask="url(#logo_heero-b)"/>
    </g>
  </g>
</svg>
