<svg xmlns="http://www.w3.org/2000/svg" xmlns:xlink="http://www.w3.org/1999/xlink" width="123" height="11" viewBox="0 0 123 11">
  <defs>
    <polygon id="logo_6-a" points="122.99 10.991 0 10.991 0 0 122.99 0 122.99 10.991"/>
  </defs>
  <g fill="none" fill-rule="evenodd">
    <mask id="logo_6-b" fill="#fff">
      <use xlink:href="#logo_6-a"/>
    </mask>
    <path fill="#8D9697" d="M7.72691709,6.76785732 C7.33326519,8.29444268 5.85661646,9.46473537 4.38035696,9.6173939 C3.54361962,9.71921098 2.51018608,9.71921098 1.67331899,9.6173939 L1.62414494,9.56641829 L1.62414494,2.13725976 L1.67331899,1.06878415 C1.87014494,0.86515 2.11627468,0.966967073 2.36240443,0.915991463 C4.13435696,0.814442683 6.2013538,1.06878415 7.23478734,2.84957683 C7.97291709,3.91832073 8.16987278,5.49574756 7.72691709,6.76785732 L7.72691709,6.76785732 Z M9.10495823,4.57979634 C8.85882848,2.49355244 7.18561329,0.712491463 5.21696456,0.20367439 C3.69127152,-0.101642683 1.67331899,0.05115 0.147755696,0.000174390244 L0.0985816456,0.05115 C0.246103797,0.508991463 0.393885443,0.966967073 0.393885443,1.42494268 L0.393885443,8.44696707 C0.393885443,9.15941829 0.295407595,9.8208939 -2.59493671e-05,10.431528 L-2.59493671e-05,10.4822354 C0.197059494,10.5841866 0.344581646,10.4822354 0.492233544,10.533211 C2.51018608,10.431528 4.72470506,10.9911866 6.5457019,9.92271098 C8.41600253,8.85396707 9.44956582,6.76785732 9.10495823,4.57979634 L9.10495823,4.57979634 Z M21.2120247,9.92271098 C21.2120247,9.8208939 21.2611987,9.71921098 21.2120247,9.6173939 C19.7849392,10.0752354 17.9636829,9.76991829 16.4382494,9.87186951 L16.3396418,9.76991829 L16.3396418,5.34308902 L16.3889456,5.29211341 C17.4225089,5.24127195 18.5544203,5.24127195 19.6371576,5.29211341 C19.8339835,5.29211341 20.0308095,5.44477195 20.2278949,5.44477195 C20.2769392,5.13958902 20.2278949,4.83427195 20.2278949,4.52882073 L20.1785911,4.4271378 C18.9480722,4.37629634 17.570031,4.4271378 16.3889456,4.37629634 L16.3396418,4.32532073 L16.3396418,1.06878415 L16.3889456,0.966967073 L19.2435057,1.01794268 L19.7356354,1.06878415 C19.9324614,1.11962561 20.1292873,1.27228415 20.2769392,1.22144268 C20.3261133,0.966967073 20.3261133,0.66165 20.3261133,0.356467073 C20.2769392,0.30562561 20.3261133,0.20367439 20.2278949,0.20367439 L16.2412937,0.15269878 L14.8632525,0.15269878 L14.8140785,0.20367439 C15.0109044,0.66165 15.1584266,1.17046707 15.1584266,1.73025976 L15.1584266,7.12388171 C15.1093823,8.14165 15.2570342,9.10844268 15.0109044,10.0752354 C14.9124266,10.2787354 14.8140785,10.431528 14.7647747,10.6351622 C14.8140785,10.6860037 14.9124266,10.6860037 14.9124266,10.6860037 L20.769069,10.736711 L20.9168506,10.6860037 L21.2120247,9.92271098 Z M31.7442241,4.22350366 C31.0059646,4.68161341 30.0217051,4.52882073 29.2342715,4.52882073 L29.2342715,4.37629634 L29.2342715,1.01794268 L29.2835753,0.966967073 C30.2186608,0.86515 31.3997462,0.814442683 32.0888316,1.62844268 C32.4824835,2.08641829 32.5809614,2.90055244 32.3349614,3.46034512 C32.2363538,3.76552805 31.9902241,4.02000366 31.7442241,4.22350366 L31.7442241,4.22350366 Z M31.9902241,9.51544268 C31.2029203,9.97355244 30.169357,9.97355244 29.2342715,9.8208939 L29.1849677,9.76991829 L29.2342715,5.44477195 C29.2342715,5.34308902 29.3817937,5.39406463 29.4310975,5.34308902 C30.7107905,5.24127195 32.2856576,5.34308902 32.8761354,6.71688171 C33.1714392,7.37835732 33.0732209,8.34515 32.6301354,8.90494268 C32.4331797,9.15941829 32.2363538,9.36291829 31.9902241,9.51544268 L31.9902241,9.51544268 Z M34.2051323,6.76785732 C34.0083063,5.8519061 33.1221354,5.08861341 32.2856576,4.83427195 C33.0239171,4.47797927 33.4668728,3.71482073 33.5652209,2.95152805 C33.7128728,2.03571098 33.3192209,1.17046707 32.5809614,0.66165 C31.2519646,-0.20332561 29.3327494,0.25465 27.7577525,0.20367439 L27.6594044,0.20367439 L27.8562304,0.66165 C28.0530563,1.17046707 28.0530563,1.73025976 28.0530563,2.3408939 L27.9547082,9.4138939 C27.9547082,9.87186951 27.8069266,10.2787354 27.6101006,10.6351622 L27.6594044,10.6860037 L30.0707494,10.6860037 C30.9569203,10.6860037 31.8427019,10.6860037 32.6301354,10.329711 C33.8603949,9.66823537 34.5494804,8.19262561 34.2051323,6.76785732 L34.2051323,6.76785732 Z M47.1979804,9.66823537 L47.1486766,9.6173939 L46.5581987,9.76991829 C45.1802873,9.97355244 43.7529424,9.8208939 42.3749013,9.8208939 C42.3257272,9.8208939 42.2764234,9.8208939 42.2764234,9.76991829 L42.2764234,5.29211341 L42.3257272,5.24127195 C43.4576386,5.19029634 44.4420278,5.19029634 45.5246354,5.29211341 C45.7214614,5.29211341 45.9182873,5.39406463 46.1644171,5.39406463 C46.1644171,5.08861341 46.2135911,4.73232073 46.1644171,4.4271378 C44.8848538,4.37629634 43.6051608,4.4271378 42.3749013,4.37629634 L42.2764234,4.32532073 L42.2764234,1.06878415 C42.2764234,1.01794268 42.3257272,0.966967073 42.3749013,0.966967073 C43.5561165,1.01794268 45.0816797,0.763467073 46.2135911,1.22144268 C46.2628949,0.966967073 46.2135911,0.610808537 46.2135911,0.30562561 C46.2628949,0.20367439 46.1644171,0.20367439 46.1153728,0.20367439 L41.2920342,0.15269878 L40.7507304,0.15269878 L40.7507304,0.25465 C40.9475563,0.712491463 41.144512,1.17046707 41.0952082,1.73025976 L41.0952082,8.95591829 C41.0952082,9.51544268 40.9968601,10.0752354 40.7507304,10.533211 C40.7015563,10.533211 40.7015563,10.6351622 40.7997747,10.6351622 L46.5581987,10.6860037 L46.9026766,10.6860037 C47.0011544,10.329711 47.0995025,10.0243939 47.1979804,9.66823537 L47.1979804,9.66823537 Z M62.5532589,0.508991463 C62.6025627,0.40717439 62.6517367,0.30562561 62.6025627,0.20367439 L61.2245215,0.20367439 L61.1752177,0.25465 C61.3228696,0.66165 61.4706513,1.11962561 61.4706513,1.62844268 L61.4213475,8.03996707 L61.3720437,8.09067439 C60.9783918,7.68380854 60.5355658,7.17485732 60.1908285,6.71688171 L56.8442684,2.95152805 C56.1061386,2.03571098 55.2692715,1.17046707 54.4819677,0.25465 L54.3834899,0.20367439 L53.1529709,0.25465 C53.1039266,0.25465 53.0054487,0.20367439 53.0546228,0.30562561 C53.3007525,0.712491463 53.4484044,1.17046707 53.4484044,1.73025976 L53.4484044,9.2103939 C53.4484044,9.71921098 53.3500563,10.2277598 53.1529709,10.6860037 L53.2022747,10.6860037 C53.6452304,10.736711 54.1373601,10.736711 54.5803158,10.6860037 C54.4819677,10.329711 54.4326639,9.97355244 54.3834899,9.6173939 L54.3341861,2.44271098 L54.3834899,1.98473537 C55.2202272,2.84957683 56.007531,3.76552805 56.7950943,4.68161341 L61.6181734,10.2787354 C61.8641734,10.4822354 62.0611291,10.7876866 62.3071291,10.9911866 C62.4057367,10.9403451 62.3071291,10.7876866 62.3564329,10.736711 L62.3564329,1.78123537 C62.3564329,1.32312561 62.4057367,0.86515 62.5532589,0.508991463 L62.5532589,0.508991463 Z M77.6625373,0.356467073 L77.6133633,0.30562561 L76.0875405,0.25465 L76.0383665,0.30562561 C76.4322778,1.47591829 76.2351924,2.95152805 76.2844962,4.27447927 C76.2844962,4.32532073 76.2844962,4.4271378 76.1861481,4.4271378 L70.9199835,4.37629634 L70.8706797,4.37629634 C70.8706797,3.00250366 70.6738538,1.52675976 71.0676354,0.25465 L71.0676354,0.20367439 C70.5755057,0.15269878 70.0833759,0.15269878 69.5419424,0.20367439 C69.4926386,0.20367439 69.3942905,0.15269878 69.3942905,0.25465 C69.5419424,0.610808537 69.6404203,1.01794268 69.6404203,1.42494268 L69.6895943,6.56435732 C69.5912462,7.93815 69.8372462,9.36291829 69.3942905,10.5841866 L69.3942905,10.6351622 C69.4435943,10.6860037 69.4926386,10.6351622 69.5419424,10.6860037 C70.0833759,10.6860037 70.5755057,10.736711 71.0676354,10.6351622 C71.0184614,10.2787354 70.8706797,9.92271098 70.8706797,9.51544268 C70.7723316,8.14165 70.8216354,6.71688171 70.8216354,5.29211341 C70.8216354,5.19029634 70.9691576,5.19029634 71.0184614,5.19029634 L76.1861481,5.24127195 C76.2351924,5.24127195 76.2844962,5.29211341 76.2844962,5.34308902 C76.2351924,6.86954024 76.3829741,8.49794268 76.1861481,10.0243939 C76.1861481,10.2277598 76.0383665,10.4822354 76.0383665,10.6860037 C76.5306259,10.736711 77.0719297,10.736711 77.6133633,10.736711 L77.6625373,10.6860037 C77.5641892,10.2787354 77.4657114,9.87186951 77.4657114,9.46473537 L77.4657114,1.98473537 C77.4164076,1.37396707 77.5641892,0.86515 77.6625373,0.356467073 L77.6625373,0.356467073 Z M89.9172557,5.95358902 C88.7853443,6.00456463 87.5056513,6.00456463 86.4230437,5.95358902 C86.3737399,5.8519061 86.4723475,5.75008902 86.521262,5.6484061 C87.0626956,4.37629634 87.5549551,3.10405244 88.1454329,1.88278415 L88.194607,1.88278415 C88.7853443,3.20600366 89.3758222,4.52882073 89.9172557,5.90274756 L89.9172557,5.95358902 Z M93.4609013,10.6351622 C93.2147715,10.2787354 92.9686418,9.92271098 92.8209899,9.56641829 L89.3758222,1.62844268 C89.1296924,1.17046707 89.0314741,0.712491463 88.7853443,0.30562561 C88.3425184,0.25465 87.8994329,0.30562561 87.5056513,0.356467073 C87.5549551,0.814442683 87.4073032,1.22144268 87.2595215,1.67928415 C86.8166956,2.69705244 86.3737399,3.71482073 85.9307842,4.73232073 L84.2081354,8.80312561 C83.9129614,9.4138939 83.6176576,10.0752354 83.1255278,10.6351622 L83.1255278,10.736711 C83.6176576,10.7876866 84.0606133,10.736711 84.5528728,10.7876866 L84.6510911,10.736711 C84.6510911,10.3806866 84.6510911,10.0752354 84.749569,9.76991829 L85.8814804,7.07317439 C85.980088,7.02219878 85.9307842,6.86954024 86.029262,6.81869878 L90.2126892,6.76785732 L90.3109076,6.81869878 L91.196819,8.85396707 C91.3446006,9.31194268 91.5907304,9.71921098 91.6397747,10.2277598 C91.6397747,10.3806866 91.5907304,10.5841866 91.6397747,10.736711 C92.2303823,10.736711 92.8209899,10.736711 93.4115975,10.6860037 L93.4609013,10.6351622 Z M110.981654,10.533211 C110.784699,10.1771866 110.735525,9.8208939 110.637177,9.4138939 L109.849613,1.67928415 C109.800439,1.17046707 109.849613,0.66165 109.898787,0.20367439 L109.849613,0.15269878 L108.471572,0.15269878 L108.373224,0.15269878 C108.225442,0.508991463 108.127094,0.763467073 107.979442,1.11962561 L105.125012,7.93815 L104.97723,8.29444268 C104.928056,8.34515 104.878882,8.29444268 104.878882,8.29444268 L101.581496,0.86515 L101.286063,0.20367439 L101.187844,0.20367439 C100.744629,0.15269878 100.252629,0.15269878 99.7604994,0.25465 C99.8588475,0.610808537 99.8588475,1.01794268 99.8588475,1.42494268 L99.2190658,9.05760122 C99.169762,9.4138939 99.120588,9.71921098 99.0222399,9.97355244 C98.9729361,10.2277598 98.8744582,10.3806866 98.8744582,10.6351622 C99.2190658,10.6860037 99.7111956,10.6351622 100.104847,10.6351622 L100.203455,10.5841866 C100.006629,9.8208939 100.154151,8.90494268 100.203455,8.09067439 L100.646411,1.83194268 L100.695585,1.67928415 C100.744629,1.73025976 100.744629,1.78123537 100.744629,1.83194268 L104.583578,10.4822354 L104.73123,10.8386622 L104.780404,10.8386622 C104.928056,10.6351622 105.026404,10.329711 105.125012,10.0752354 L108.57005,1.83194268 L108.619354,1.67928415 C108.717702,1.78123537 108.668398,1.88278415 108.717702,1.98473537 C108.963832,4.4271378 109.209832,6.86954024 109.455961,9.31194268 L109.455961,9.97355244 C109.455961,10.1771866 109.357354,10.3806866 109.357354,10.6351622 C109.800439,10.6860037 110.391047,10.6351622 110.883177,10.6351622 C110.981654,10.6351622 110.981654,10.5841866 110.981654,10.533211 L110.981654,10.533211 Z M121.316898,10.3806866 C119.938857,10.9911866 118.11799,10.7876866 116.739949,10.2787354 L116.690645,10.1771866 C116.641341,9.76991829 116.641341,9.36291829 116.690645,8.95591829 C116.887471,9.10844268 117.084297,9.31194268 117.330427,9.4138939 C118.413294,10.0243939 120.037335,10.329711 121.120072,9.46473537 C121.612202,9.00675976 121.858332,8.39612561 121.759854,7.73465 C121.612202,6.97135732 120.873942,6.41156463 120.283465,6.00456463 C119.249772,5.19029634 117.921034,4.68161341 117.281382,3.35852805 C116.985949,2.59523537 117.084297,1.57760122 117.675034,1.01794268 C118.806946,-0.356118293 120.97242,-0.101642683 122.498113,0.40717439 C122.498113,0.763467073 122.547287,1.11962561 122.448809,1.47591829 C122.251984,1.42494268 122.104332,1.27228415 121.95668,1.22144268 C121.070768,0.712491463 119.742031,0.508991463 118.85612,1.11962561 C118.413294,1.47591829 118.167164,1.93375976 118.265512,2.49355244 C118.413294,3.46034512 119.397423,3.91832073 120.135683,4.4271378 C121.267594,5.24127195 122.941069,6.15708902 122.990243,7.83633293 C122.990243,8.95591829 122.301287,9.97355244 121.316898,10.3806866 L121.316898,10.3806866 Z" mask="url(#logo_6-b)"/>
  </g>
</svg>
