<svg xmlns="http://www.w3.org/2000/svg" width="118" height="22" viewBox="0 0 118 22">
  <g fill="#8D9697" fill-rule="evenodd">
    <path d="M117.179563 18.2855127L116.462893 20.6516674 115.72142 18.2855127 115.001259 18.2855127 115.001259 21.2476122 115.451224 21.2476122 115.451224 18.7253912 116.239777 21.2476122 116.682638 21.2476122 117.438681 18.7617337 117.438681 21.2476122 117.885155 21.2476122 117.885155 18.2855127 117.179563 18.2855127zM112.275579 18.2855127L112.275579 18.7253912 113.226081 18.7253912 113.226081 21.2476122 113.715781 21.2476122 113.715781 18.7253912 114.673628 18.7253912 114.673628 18.2855127 112.275579 18.2855127zM22.9724808 11.4720398C22.9090257 12.1761613 22.7729645 12.8670343 22.5647788 13.5434431 22.3562318 14.2203381 22.0797747 14.8240619 21.7357686 15.3543713 21.3912808 15.8851669 21.0195808 16.2786144 20.6215114 16.5343492 20.2225992 16.7905702 19.8238073 16.9094431 19.4253767 16.8908464 19.0265849 16.8731006 18.6506706 16.7221392 18.2973931 16.4383271 17.9438747 16.1548796 17.6403257 15.7385812 17.3866257 15.1900398 17.1328053 14.6410122 16.9655584 14.0235536 16.8839216 13.3379072 16.8024053 12.6515315 16.7930135 11.9568906 16.8567094 11.2524044 16.9200441 10.5482829 17.0557441 9.85753149 17.2644114 9.18051492 17.4724767 8.50410608 17.7400237 7.90038232 18.0662094 7.36958674 18.428638 6.8393989 18.8138237 6.44631602 19.2215257 6.18973039 19.6293482 5.93399558 20.027538 5.81536575 20.4174196 5.8331116 20.80694 5.85146519 21.17864 6.00230497 21.5319176 6.28575249 21.8853155 6.56956464 22.1797135 6.98549834 22.4153522 7.53440442 22.6688114 8.0830674 22.8408747 8.70040442 22.9319033 9.38665856 23.0222094 10.0724265 23.0358155 10.7680398 22.9724808 11.4720398M27.7972359 11.1699956C27.833238 9.9173326 27.6927216 8.69153149 27.3759278 7.49332155 27.0588931 6.29547624 26.5558278 5.22950939 25.8673339 4.29675801 25.1606584 3.36364199 24.340438 2.67361989 23.4075155 2.22499006 22.4738706 1.7770895 21.5048257 1.5710674 20.4989359 1.60753149 19.4932869 1.64448177 18.4917318 1.91893481 17.4954747 2.43052597 16.4987359 2.94296796 15.5926645 3.68403978 14.7773808 4.65325525 13.9796767 5.6410674 13.3593339 6.73875801 12.9155094 7.94584088 12.8090686 8.23512265 12.7146686 8.52586298 12.6296604 8.81781878 12.6461563 8.63294586 12.6663849 8.44552044 12.6817971 8.26149834 12.7811339 7.06365304 12.8672257 5.90628287 12.9398318 4.79048177 13.0121971 3.67516685 13.0849237 2.65964199 13.1574094 1.74487956 11.9613951 1.69006188 10.9964441 1.75411713 10.2625563 1.93692376 9.52878898 2.12009503 8.95793388 2.36683536 8.55011143 2.67787403 8.14240939 2.98891271 7.87064816 3.33179669 7.73470735 3.70652597 7.59876653 4.08174144 7.53085633 4.43398453 7.53085633 4.76289061 7.58516041 7.15967514 7.62128286 9.21758674 7.6395849 10.936747 7.6572849 12.6562718 7.5894951 14.0558851 7.43573388 15.1352221 7.28173184 16.2144376 7.0097298 16.9826144 6.62008898 17.439874 6.23032776 17.8973768 5.64598694 18.0708243 4.86706653 17.961189 4.39554816 17.8880177 4.0243298 17.6501503 3.75268898 17.2478298 3.48068694 16.8453878 3.39001959 16.187211 3.48068694 15.2719624 2.44794612 15.2906807 1.67324 15.4873436 1.15680939 15.8621945.640258367 16.2372884.300707347 16.685189.137554286 17.2066254-.0255987755 17.7279403-.0434191837 18.2674873.0830093878 18.8253878.210160408 19.3837746.399923673 19.8361724.654105306 20.1837967 1.14308286 20.7506917 1.73175837 21.1802387 2.42061347 21.4734099 3.10922776 21.7657304 3.82950939 21.9213105 4.58169918 21.9395425 5.33340735 21.9578961 6.09017265 21.8341613 6.85115224 21.569432 7.61249306 21.3039735 8.31916857 20.9018961 8.97141959 20.361863 9.62391143 19.8226807 10.1946461 19.150526 10.6838645 18.3452773 11.1733237 17.5405149 11.5266012 16.5891669 11.7440584 15.4915978 11.8957727 14.6874431 12.0262951 13.8556972 12.1471849 13.0113105 12.1899298 13.789211 12.2995012 14.5573878 12.4942012 15.3132884 12.8019645 16.5113768 13.3096053 17.5771006 14.0162808 18.5097304 14.7228359 19.4428464 15.5384808 20.1286144 16.4626135 20.5680066 17.3866257 21.0067912 18.3560318 21.2079514 19.3710727 21.1713657 20.7118176 21.1895978 21.8989216 20.9155094 22.9319033 20.3482497 23.9645237 19.7814762 24.8386869 19.0267912 25.5547543 18.084316 26.2704604 17.1428133 26.8139829 16.0678519 27.1856829 14.8606475 27.5569012 13.6530785 27.7607522 12.4233878 27.7972359 11.1699956"/>
    <path d="M36.6284643 9.30424972C36.3382806 9.66074696 35.9034867 9.94881326 35.323601 10.1684486 34.7435949 10.3882055 34.0188582 10.4616199 33.14915 10.3882055L33.4753357 6.0251558C34.2725582 5.91564199 34.9431112 5.95684641 35.4867541 6.14889061 36.0302765 6.34093481 36.4334031 6.61076906 36.6961337 6.95827182 36.9588643 7.30601768 37.0857745 7.69472486 37.0769847 8.12427182 37.0674724 8.55430497 36.9180459 8.9472663 36.6284643 9.30424972M36.0440031 16.6715757C35.7266071 16.9826144 35.2284786 17.2201171 34.5488949 17.3849348 33.869552 17.5493878 32.9859969 17.558747 31.8988316 17.4121613 32.0981071 17.3026475 32.2793214 17.1976309 32.4423541 17.0968685 32.6055071 16.9965923 32.7048439 16.7539845 32.741448 16.3695315L32.9316929 13.7082608C33.6383684 13.5805149 34.2588316 13.6028796 34.7936847 13.7766917 35.3278153 13.9508685 35.7403337 14.1978519 36.0302765 14.5177635 36.320099 14.8376751 36.4742214 15.1992773 36.4924031 15.6013547 36.5104643 16.0040398 36.3606765 16.3606586 36.0440031 16.6715757M41.6704357 3.92628287C41.190248 3.25874696 40.52415 2.70971934 39.6727439 2.27968619 38.8207357 1.85013923 37.7878745 1.63512265 36.5739194 1.63512265L27.4138684 1.63512265C27.2507153 2.09238232 27.1601684 2.60020552 27.1419867 3.15810608 27.1241663 3.71588508 27.1921969 4.2372 27.3458378 4.72205083 27.4997194 5.20690166 27.7306622 5.60934365 28.0389071 5.9291337 28.3469112 6.24953149 28.7455827 6.39149834 29.2350418 6.35454807L28.2836969 17.2201171C27.8849051 17.3118851 27.5903867 17.5634873 27.4001418 17.9748022 27.2098969 18.3864818 27.0834684 18.8165149 27.019652 19.2642939 26.9565582 19.7130453 26.9339214 20.3117856 26.9517418 21.0616088L35.8129398 21.0616088C36.9544092 21.0616088 37.9147847 20.8741834 38.6940663 20.499211 39.4729867 20.1243602 40.0804459 19.6483823 40.5151194 19.0722497 40.9502745 18.4961171 41.2219153 17.8607912 41.3307643 17.1652994 41.4394929 16.4706586 41.4121602 15.7980177 41.249248 15.1487138 41.0860949 14.4995315 40.7913357 13.9186586 40.3658133 13.4062166 39.9398092 12.8941392 39.4007418 12.5282829 38.7486112 12.3087691 39.7087459 11.9429127 40.4922418 11.4265812 41.099701 10.7586807 41.7066786 10.0907801 42.1325622 9.36368619 42.3771112 8.57727735 42.621901 7.79074696 42.6851153 6.98549834 42.5673561 6.16250387 42.4493561 5.33950939 42.1505031 4.59418343 41.6704357 3.92628287M84.2763465 9.61951823C84.71692 10.6451315 84.9788078 11.4980265 85.2476792 12.1651978 85.3739873 12.5011536 85.5142629 12.7892199 85.6565853 13.0376619 85.7295527 13.1616398 85.8072159 13.2749215 85.8906588 13.3779934 85.9718139 13.4814298 86.0581465 13.5746564 86.1520649 13.6584022 86.5295445 13.9927779 87.0085282 14.171695 87.6749873 14.2251757 88.3406037 14.2787779 89.1887588 14.2067006 90.2861588 14.0342254 88.0908771 14.3811204 86.9693955 14.7936508 86.4651261 15.6542033 86.2135935 16.0860597 86.1123302 16.6322917 86.1138955 17.3507558 86.117869 18.0686122 86.2193731 18.9601591 86.4253914 20.0642917 86.2193731 18.9604022 86.0935465 18.0732309 85.91462 17.3779823 85.7385833 16.6829768 85.5147445 16.1775845 85.167969 15.8366453 84.4746588 15.1524575 83.3075424 15.1307006 81.1137057 15.4773525 82.2112261 15.3046343 83.0355404 15.1263249 83.6427588 14.8817724 84.2493751 14.637463 84.6433506 14.3255735 84.8642996 13.8982144 84.9199282 13.791253 84.9659241 13.6763912 85.0016853 13.5536287 85.0353996 13.4315956 85.0593608 13.3010541 85.0750139 13.1616398 85.1094506 12.8817171 85.0931955 12.5700707 85.0528588 12.2153967 84.9565322 11.511032 84.71692 10.6447669 84.2763465 9.61951823"/>
    <path d="M105.348714,16.2358785 C105.703678,16.705779 105.918727,17.1094365 105.9935,17.4477017 C106.049249,18.1058785 105.881159,18.5851381 105.48899,18.885116 C105.189776,19.0545525 104.895137,19.1204309 104.605796,19.0827514 C104.315853,19.0453149 104.068173,18.8995801 103.862757,18.6459116 C103.65698,18.3922431 103.521761,18.0212818 103.456259,17.5321768 C103.390757,17.0439227 103.432659,16.4330276 103.582688,15.7000994 C103.451684,15.5874254 103.217971,15.4794917 102.881551,15.3759337 C102.545251,15.2729834 102.175839,15.2353039 101.774278,15.2632597 C101.372114,15.291337 100.989216,15.4042541 100.624982,15.6014033 C100.260145,15.7985525 99.9841694,16.1325635 99.797898,16.602221 C99.5472082,17.2568729 99.4979612,17.8801657 99.6277612,18.4746519 C99.5372143,18.4146077 99.4446204,18.3498232 99.349498,18.279326 C98.9569673,17.9880994 98.5735878,17.6405967 98.2000816,17.236453 C97.8259735,16.8324309 97.4802816,16.3816133 97.1630061,15.8832707 C96.8447673,15.3856575 96.6204469,14.8735801 96.4898041,14.3471602 C97.2749857,13.9524972 97.9757612,13.4218232 98.5927327,12.7546519 C99.1333653,12.1696464 99.5750224,11.4427956 99.9291429,10.5906298 C100.137931,11.0273481 100.391269,11.4531271 100.695059,11.8666298 C101.012335,12.2239779 101.42401,12.6374807 101.928641,13.106895 C102.433151,13.5767956 103.031218,14.1032155 103.722482,14.6854254 C104.451553,15.2492818 104.993269,15.7663425 105.348714,16.2358785 M94.6257653,10.4431934 C94.3172796,10.8659337 93.8405837,11.218663 93.1960388,11.5002873 C92.5512531,11.7820331 91.742351,11.9136685 90.770898,11.8945856 L91.2475939,6.45475138 C92.0885245,6.39847514 92.798451,6.49267403 93.3782163,6.73686188 C93.9572592,6.98104972 94.3915714,7.30521547 94.6819959,7.70923757 C94.9713367,8.11350276 95.1113714,8.56456354 95.1023408,9.0621768 C95.0927082,9.56027624 94.934251,10.0203315 94.6257653,10.4431934 M81.7522061,10.175547 L77.0424408,10.6263646 C77.1919878,9.68680663 77.3880122,8.83220994 77.631598,8.06160221 C77.8739796,7.29123757 78.1403224,6.62880663 78.4301449,6.07430939 C78.7197265,5.52029834 79.0332694,5.09257459 79.3695694,4.7918674 C79.7059898,4.49140331 80.0326571,4.34080663 80.3505347,4.34080663 C80.705498,4.34080663 80.9855673,4.56190055 81.1918265,5.00311602 C81.3972429,5.44493923 81.5514857,5.97561326 81.6541939,6.59562431 C81.7567816,7.21587845 81.812651,7.85983425 81.8222837,8.52664088 C81.8316755,9.19356906 81.8084367,9.74332597 81.7522061,10.175547 M112.7077,4.45348066 C112.473627,3.62696133 112.081457,2.93134807 111.530469,2.36761326 C110.979,1.80387845 110.296888,1.37664088 109.483771,1.08517127 C108.670776,0.793823204 107.806004,0.639093923 106.890782,0.62001105 C105.787722,0.582453039 104.783278,0.723569061 103.876724,1.04287293 C102.970292,1.36266298 102.189806,1.80874033 101.53599,2.38183425 C100.881331,2.95504972 100.362973,3.62209945 99.9800755,4.38298343 C99.8578612,4.62559116 99.7558755,4.8739116 99.6631612,5.12502762 C99.5081959,4.84121547 99.338902,4.56348066 99.1391449,4.29850829 C98.4946,3.44354696 97.6300694,2.74367956 96.5460347,2.19841989 C95.4621204,1.65364641 94.2095143,1.38101657 92.7895408,1.38101657 L86.3132673,1.38101657 C86.2012878,2.13302762 86.1451776,2.82827624 86.1451776,3.46688398 C86.1451776,4.01214365 86.2110408,4.54306077 86.3416837,5.05951381 C86.4722061,5.57657459 86.7244612,5.90985635 87.0985694,6.0600884 L85.9445776,14.5579227 C85.9522837,14.1481878 85.9574612,13.7461105 85.9574612,13.3605635 C85.9574612,11.1056243 85.859449,9.18882873 85.6634245,7.61054144 C85.466798,6.0321326 85.1909429,4.74507182 84.8363408,3.74887293 C84.4808959,2.75303867 84.0883653,1.97781215 83.6585082,1.42343646 C83.2287714,0.869303867 82.7706184,0.492994475 82.2851327,0.295845304 C81.7986837,0.0984530387 81.3317408,0 80.8833408,0 C79.9861796,0 79.187151,0.183171271 78.4863755,0.549513812 C77.7853592,0.915977901 77.154902,1.3999779 76.5939204,2.00127072 C76.395849,2.2139779 76.2104204,2.44175691 76.0308918,2.67646409 C76.0389592,2.58275138 76.050398,2.4880663 76.0530469,2.39581215 C76.0623184,2.07650829 76.0437755,1.78977901 75.997298,1.53623204 C75.9504592,1.28232044 75.9174673,1.09003315 75.8992857,0.95839779 L61.2411571,1.9240884 C60.7928776,1.57561326 60.2804204,1.29398895 59.6977653,1.08517127 C58.884649,0.793823204 58.0201184,0.639093923 57.1047755,0.62001105 C56.0015959,0.582453039 54.9972714,0.723569061 54.0908388,1.04287293 C53.1841653,1.36266298 52.4040408,1.80874033 51.7499837,2.38183425 C51.0956857,2.95504972 50.5769673,3.62209945 50.1940694,4.38298343 C49.8108102,5.14398895 49.572402,5.94741436 49.4792061,6.79313812 C49.3854082,7.63861878 49.4556061,8.49844199 49.6894388,9.372 C49.9230306,10.2460442 50.3295286,11.0776685 50.9089327,11.8666298 C51.226449,12.2239779 51.6378837,12.6374807 52.1423939,13.106895 C52.6470245,13.5767956 53.2449714,14.1032155 53.9368367,14.6854254 C54.6655469,15.2492818 55.2075041,15.7663425 55.5627082,16.2358785 C55.917551,16.705779 56.1328408,17.1094365 56.2076143,17.4477017 C56.2633633,18.1058785 56.0951531,18.5851381 55.7028633,18.885116 C55.403649,19.0545525 55.109251,19.1204309 54.8199102,19.0827514 C54.5298469,19.0453149 54.2822878,18.8995801 54.0768714,18.6459116 C53.8710939,18.3922431 53.7356347,18.0212818 53.6703735,17.5321768 C53.6046306,17.0439227 53.6466531,16.4330276 53.7965612,15.7000994 C53.6655571,15.5874254 53.4319653,15.4794917 53.0955449,15.3759337 C52.7592449,15.2729834 52.3900735,15.2353039 51.988151,15.2632597 C51.5861082,15.291337 51.2032102,15.4042541 50.8389755,15.6014033 C50.4745,15.7985525 50.1985245,16.1325635 50.0118918,16.602221 C49.7315816,17.3351492 49.6894388,18.0306409 49.8858245,18.6879669 C50.081849,19.3461436 50.4463245,19.9240994 50.9790102,20.4215912 C51.5116959,20.9195691 52.1797204,21.3002541 52.9836857,21.5632818 C53.7869286,21.8263094 54.6467633,21.9296243 55.5627082,21.873105 C56.6652857,21.7978674 57.6414347,21.4788066 58.4922388,20.9148287 C59.3424408,20.3509724 59.9732592,19.6559669 60.3844531,18.8290829 C60.7956469,18.0021989 60.9356816,17.0813591 60.8050388,16.0666851 C60.6740347,15.0516464 60.1786755,14.0369724 59.319202,13.0224199 C59.0762184,12.7219558 58.7630367,12.3790718 58.3801388,11.9936464 C57.9968796,11.6087072 57.5252408,11.1718674 56.9645,10.6827624 C56.5161,10.2507845 56.1328408,9.87508287 55.8149633,9.55553591 C55.4970857,9.23598895 55.2447102,8.95436464 55.058198,8.70981215 C54.6095571,8.10864088 54.3432143,7.52156906 54.2589286,6.9481105 C54.1748837,6.37513812 54.2123306,5.85358011 54.3712694,5.38367956 C54.5298469,4.91426519 54.7822224,4.52883978 55.1280347,4.2278895 C55.4737265,3.92742541 55.8521694,3.75847514 56.2633633,3.72055249 C56.7304265,3.66427624 57.155949,3.78181215 57.5392082,4.07316022 C57.9221061,4.36450829 58.2072327,4.75904972 58.3941061,5.25690608 C58.5808592,5.75500552 58.6278184,6.33745856 58.5343816,7.00450829 C58.4405837,7.6718011 58.1511224,8.35307182 57.6650347,9.0479558 C57.9638878,9.31122652 58.3801388,9.49439779 58.9130653,9.59771271 C59.4456306,9.70127072 59.982651,9.69616575 60.524849,9.58361326 C61.0665653,9.47057459 61.5666204,9.23598895 62.0245327,8.87900552 C62.4823245,8.52214365 62.7955061,8.00508287 62.9640776,7.32867403 C63.0772612,6.72835359 63.1169959,6.1719116 63.0968878,5.65132597 L66.0591694,5.58107182 L64.0404061,18.3498232 C64.0027184,18.6696133 64.0027184,19.0453149 64.0404061,19.4774144 C64.0776122,19.91 64.2550939,20.2945746 64.5732122,20.6332044 C64.8906082,20.9713481 65.4046306,21.2251381 66.1149184,21.3940884 C66.8249653,21.5632818 67.8251959,21.5441989 69.1145265,21.3376906 L70.2923592,5.4399558 L73.2357367,5.4681547 C73.8115286,5.41224309 74.2808796,5.28194475 74.6442714,5.07713812 C74.4297041,5.53865193 74.2262143,6.00587845 74.0428327,6.48307182 C73.7249551,7.31007735 73.4494612,8.12772376 73.2158694,8.93540331 C72.9820367,9.74332597 72.7813163,10.4856133 72.6132265,11.1621436 L71.4074592,11.2748177 C71.2769367,11.7256354 71.1927714,12.1300221 71.1553245,12.486884 C71.117998,12.8064309 71.1412367,13.1115138 71.225402,13.4029834 C71.3094469,13.6945746 71.4915041,13.8959779 71.7722959,14.0090166 C71.5477347,15.1745304 71.2769367,16.3722541 70.9591796,17.6027956 C70.641302,18.8337017 70.3239061,20.0790718 70.0057878,21.3376906 C70.0810429,21.3376906 70.2631,21.3419448 70.5526816,21.3516685 C70.8425041,21.3610276 71.1742286,21.3656464 71.5477347,21.3656464 C71.9213612,21.3656464 72.3232837,21.3470497 72.753502,21.3096133 C73.1827571,21.2722983 73.5846796,21.1875801 73.9587878,21.0559448 C74.3322939,20.924674 74.6547469,20.7415028 74.9260265,20.5061878 C75.1964633,20.2716022 75.3697306,19.9563094 75.4446245,19.562011 L76.3980163,14.0934917 L81.4157857,14.2061657 L80.8555265,19.2799006 C80.7802714,19.7872376 80.8927327,20.1866409 81.1918265,20.477989 C81.4905592,20.7695801 81.8877857,20.9854475 82.3832653,21.1259558 C82.8780224,21.2671934 83.410949,21.3516685 83.9809612,21.3801105 C84.5509735,21.4081878 85.0788429,21.4030829 85.5652918,21.3656464 C85.5656531,21.3616354 85.5658939,21.3577459 85.5662551,21.3536133 C86.278349,21.3702652 86.8903837,21.3611492 87.3926061,21.3235912 C88.018849,21.2769171 88.5281755,21.1592597 88.9207061,20.9713481 C89.3132367,20.783558 89.6075143,20.5159116 89.8039,20.1679227 C89.9999245,19.8202983 90.1258714,19.3643757 90.182102,18.8006409 L90.4622918,15.2772376 L92.3128449,15.3053149 C92.3872571,16.1325635 92.5554673,16.9361105 92.8174755,17.7153481 C93.0791224,18.495558 93.4103653,19.1910497 93.812649,19.8017017 C94.2145714,20.412232 94.6819959,20.9106961 95.2144408,21.2951492 C95.7468857,21.6800884 96.3402571,21.8823425 96.9947959,21.9014254 C97.9101388,21.8637459 98.6437857,21.5913591 99.1953755,21.0840221 C99.5817653,20.7281326 99.8929,20.2545856 100.137329,19.6768729 C100.3118,19.9416022 100.51842,20.1911381 100.765257,20.4215912 C101.297582,20.9195691 101.965727,21.3002541 102.769571,21.5632818 C103.572935,21.8263094 104.43301,21.9296243 105.348714,21.873105 C106.451171,21.7978674 107.427441,21.4788066 108.278124,20.9148287 C109.128447,20.3509724 109.759386,19.6559669 110.170459,18.8290829 C110.581653,18.0021989 110.721567,17.0813591 110.590924,16.0666851 C110.45992,15.0516464 109.964682,14.0369724 109.105088,13.0224199 C108.862224,12.7219558 108.549043,12.3790718 108.166024,11.9936464 C107.782886,11.6087072 107.311247,11.1718674 106.750506,10.6827624 C106.302106,10.2507845 105.918727,9.87508287 105.600969,9.55553591 C105.282731,9.23598895 105.030476,8.95436464 104.844204,8.70981215 C104.395322,8.10864088 104.1291,7.52156906 104.044935,6.9481105 C103.96089,6.37513812 103.998096,5.85358011 104.157276,5.38367956 C104.315853,4.91426519 104.568229,4.52883978 104.914282,4.2278895 C105.259973,3.92742541 105.638176,3.75847514 106.049249,3.72055249 C106.516312,3.66427624 106.941835,3.78181215 107.325214,4.07316022 C107.708112,4.36450829 107.993239,4.75904972 108.180112,5.25690608 C108.366865,5.75500552 108.413704,6.33745856 108.320388,7.00450829 C108.226469,7.6718011 107.937129,8.35307182 107.451041,9.0479558 C107.749773,9.31122652 108.166024,9.49439779 108.698951,9.59771271 C109.231516,9.70127072 109.768657,9.69616575 110.310855,9.58361326 C110.852571,9.47057459 111.352506,9.23598895 111.810539,8.87900552 C112.268331,8.52214365 112.581392,8.00508287 112.750084,7.32867403 C112.95538,6.23900552 112.941051,5.28060773 112.7077,4.45348066"/>
  </g>
</svg>
