<svg xmlns="http://www.w3.org/2000/svg" width="61" height="53" viewBox="0 0 61 53">
  <g fill="#8D9697" fill-rule="evenodd">
    <polygon points="4.236 46.928 2.861 48.943 1.482 46.928 0 46.928 0 52.847 1.508 52.847 1.508 49.181 2.861 51.144 4.211 49.181 4.211 52.847 5.718 52.847 5.718 46.928"/>
    <polygon points="10.624 46.928 9.38 49.181 8.14 46.928 6.307 46.928 8.628 50.355 8.628 52.847 10.136 52.847 10.136 50.355 12.458 46.928"/>
    <path d="M14.5565616 49.8308178L15.276242 49.8308178C15.5788498 49.8308178 15.800842 49.7492607 15.9422184 49.5860256 16.0837145 49.4227904 16.1542831 49.2284571 16.1542831 49.0031466 16.1542831 48.7836443 16.0841929 48.590037 15.944491 48.4224457 15.8045498 48.2550963 15.5817204 48.1711192 15.276242 48.1711192L14.5565616 48.1711192 14.5565616 49.8308178zM13.0489047 52.8468566L13.0489047 46.9275553 15.4219243 46.9275553C16.131438 46.9275553 16.6821125 47.1095461 17.0740675 47.4735279 17.4659027 47.8375096 17.6620596 48.3474228 17.6620596 49.0031466 17.6620596 49.6606854 17.4657831 50.1703566 17.0734694 50.5319183 16.6812753 50.8936009 16.1300027 51.0745027 15.4200106 51.0745027L14.5565616 51.0745027 14.5565616 52.8468566 13.0489047 52.8468566zM20.1401667 48.5438495C19.9145863 48.7923929 19.8017961 49.2386578 19.8017961 49.8827651 19.8017961 50.5271144 19.9145863 50.9733792 20.1401667 51.2218016 20.3657471 51.470345 20.6656039 51.5944957 21.0397373 51.5944957 21.4136314 51.5944957 21.7134882 51.470345 21.9391882 51.2218016 22.1647686 50.9733792 22.2775588 50.5271144 22.2775588 49.8827651 22.2775588 49.2386578 22.1647686 48.7923929 21.9391882 48.5438495 21.7134882 48.2954272 21.4136314 48.1711555 21.0397373 48.1711555 20.6656039 48.1711555 20.3657471 48.2954272 20.1401667 48.5438495M18.4611118 51.152587C18.3497569 50.7855801 18.2940196 50.3624272 18.2940196 49.8827651 18.2940196 49.403345 18.3497569 48.980071 18.4611118 48.6131852 18.5725863 48.2462993 18.7173118 47.9552833 18.8958863 47.7400162 19.0743412 47.5248701 19.2878412 47.3485664 19.5362667 47.2113473 19.7846922 47.0741281 20.0288118 46.9824066 20.2686255 46.9361829 20.5085588 46.8899591 20.7655961 46.8668473 21.0397373 46.8668473 21.3138784 46.8668473 21.5707961 46.8899591 21.8107294 46.9361829 22.0505431 46.9824066 22.2947824 47.0741281 22.5430882 47.2113473 22.7915137 47.3485664 23.0050137 47.5248701 23.1834686 47.7400162 23.3619235 47.9552833 23.5067686 48.2462993 23.6182431 48.6131852 23.729598 48.980071 23.7853353 49.403345 23.7853353 49.8827651 23.7853353 50.3624272 23.729598 50.7855801 23.6182431 51.152587 23.5067686 51.5194728 23.3619235 51.8104888 23.1834686 52.0256349 23.0050137 52.2409021 22.7915137 52.4172057 22.5430882 52.5544249 22.2947824 52.6915231 22.0505431 52.7833655 21.8107294 52.8294683 21.5707961 52.875692 21.3138784 52.8988039 21.0397373 52.8988039 20.7655961 52.8988039 20.5085588 52.875692 20.2686255 52.8294683 20.0288118 52.7833655 19.7846922 52.6915231 19.5362667 52.5544249 19.2878412 52.4172057 19.0743412 52.2409021 18.8958863 52.0256349 18.7173118 51.8104888 18.5725863 51.5194728 18.4611118 51.152587M24.6631851 51.4092014C24.4989635 50.9927037 24.4167929 50.4840005 24.4167929 49.8828498 24.4167929 49.2818201 24.4989635 48.7729959 24.6631851 48.3563772 24.8272871 47.9400005 25.0493988 47.6285347 25.3291616 47.4224639 25.6090439 47.2163932 25.8967008 47.0707037 26.1922518 46.9856374 26.4878027 46.9006922 26.8112224 46.8582196 27.1625106 46.8582196 27.7250263 46.8582196 28.3503361 46.9959228 29.0385596 47.2714502L29.0385596 48.589311C28.4531988 48.3048292 27.8563557 48.1625279 27.2480302 48.1625279 26.8454302 48.1625279 26.5242831 48.2872836 26.2844694 48.537158 26.0445361 48.7867904 25.9245694 49.2353543 25.9245694 49.8828498 25.9245694 50.5303452 26.0445361 50.9789091 26.2844694 51.2286626 26.5242831 51.478295 26.8454302 51.6031717 27.2480302 51.6031717 27.8563557 51.6031717 28.4531988 51.4609913 29.0385596 51.1762676L29.0385596 52.4942493C28.3474655 52.7697767 27.7220361 52.9074799 27.1625106 52.9074799 26.8112224 52.9074799 26.4878027 52.8650073 26.1922518 52.7799411 25.8967008 52.6948749 25.6090439 52.5493064 25.3291616 52.3432356 25.0493988 52.1371648 24.8272871 51.8256991 24.6631851 51.4092014"/>
    <polygon points="29.869 52.847 29.869 46.928 31.376 46.928 31.376 49.012 32.983 46.928 35.017 46.928 32.721 49.502 35.184 52.847 33.282 52.847 31.792 50.541 31.376 51.009 31.376 52.847"/>
    <polygon points="35.789 52.847 35.789 46.928 39.866 46.928 39.866 48.171 37.296 48.171 37.296 49.263 39.528 49.263 39.528 50.507 37.296 50.507 37.296 51.603 39.866 51.603 39.866 52.847"/>
    <polygon points="40.457 48.232 40.457 46.928 45.349 46.928 45.349 48.232 43.648 48.232 43.648 52.847 42.14 52.847 42.14 48.232"/>
    <path d="M46.4833276 49.9695495L47.8497276 49.9695495C48.1609473 49.9695495 48.4200178 49.9354263 48.6271786 49.8673007 48.8341002 49.7992961 48.9848061 49.6998304 49.0790571 49.5693874 49.173308 49.4389445 49.2375375 49.3115267 49.2717453 49.18665 49.3060727 49.0621363 49.3231767 48.9171728 49.3231767 48.7518806 49.3231767 48.5865884 49.3060727 48.4416249 49.2717453 48.3169902 49.2375375 48.1922345 49.173308 48.0639696 49.0790571 47.9320747 48.9848061 47.8001797 48.8341002 47.7002299 48.6271786 47.6321043 48.4200178 47.5639788 48.1609473 47.5298555 47.8497276 47.5298555L46.4833276 47.5298555 46.4833276 49.9695495zM45.8494061 52.8467961L45.8494061 46.9274947 47.931061 46.9274947C48.5849571 46.9274947 49.0862335 47.0831066 49.4345316 47.3939674 49.7829492 47.7048281 49.9570982 48.1575062 49.9570982 48.7518806 49.9570982 49.346255 49.7829492 49.8009902 49.4345316 50.1163281 49.0862335 50.431545 48.5849571 50.5892139 47.931061 50.5892139L46.4833276 50.5892139 46.4833276 52.8467961 45.8494061 52.8467961zM51.3666886 49.8568217L52.8487494 49.8568217C53.1398749 49.8568217 53.3832769 49.8229404 53.5789553 49.7549358 53.7745141 49.6871733 53.9166082 49.5924267 54.0052376 49.4710591 54.0936278 49.3499336 54.153671 49.230018 54.1850082 49.1115546 54.2164651 48.9930911 54.2321337 48.8536938 54.2321337 48.6933628 54.2321337 48.5330317 54.2164651 48.3936345 54.1850082 48.275171 54.153671 48.1567075 54.0936278 48.036792 54.0052376 47.9155454 53.9166082 47.7941779 53.7745141 47.6995523 53.5789553 47.6316687 53.3832769 47.5639062 53.1398749 47.5299039 52.8487494 47.5299039L51.3666886 47.5299039 51.3666886 49.8568217zM50.7326475 52.8468445L50.7326475 46.9275432 52.8829573 46.9275432C53.5196298 46.9275432 54.0095435 47.0742007 54.3521004 47.3673947 54.6947769 47.6605888 54.8661749 48.0873719 54.8661749 48.6478651 54.8661749 48.9020957 54.8261063 49.1332144 54.7462082 49.3411002 54.6661906 49.5492281 54.5755278 49.7110112 54.4741004 49.8264495 54.3727925 49.9421299 54.2521082 50.0424427 54.1122867 50.1276299 53.9723455 50.2128171 53.8580004 50.2692053 53.7696102 50.2966733 53.6811004 50.3241413 53.5982122 50.3465272 53.5211847 50.3638308L55.1273984 52.8468445 54.382122 52.8468445 52.8572416 50.4591824 51.3666886 50.4591824 51.3666886 52.8468445 50.7326475 52.8468445zM56.6720739 48.036792C56.338368 48.4269107 56.1713955 49.0422189 56.1713955 49.8828377 56.1713955 50.7234564 56.338368 51.3388856 56.6720739 51.7288833 57.0057798 52.11876 57.5320543 52.3138194 58.2510171 52.3138194 58.9756014 52.3138194 59.5040288 52.11876 59.8362994 51.7288833 60.16857 51.3388856 60.3348249 50.7234564 60.3348249 49.8828377 60.3348249 49.0422189 60.16857 48.4269107 59.8362994 48.036792 59.5040288 47.6467943 58.9756014 47.4518559 58.2510171 47.4518559 57.5320543 47.4518559 57.0057798 47.6467943 56.6720739 48.036792M55.5375935 49.8828377C55.5375935 47.8607304 56.4419484 46.8494952 58.2510171 46.8494952 60.0629563 46.8494952 60.9687465 47.8607304 60.9687465 49.8828377 60.9687465 51.905066 60.0629563 52.9161801 58.2510171 52.9161801 56.4419484 52.9161801 55.5375935 51.905066 55.5375935 49.8828377M42.0580767 6.3865121C42.0580767 6.96261484 41.6004571 7.42945046 41.0269375 7.42945046L38.9609512 7.42945046C38.3916178 7.42945046 37.9299316 6.96055776 37.9299316 6.3865121L37.9299316 5.34030662C37.9299316 4.76432489 38.3875512 4.29724726 38.9609512 4.29724726L41.0269375 4.29724726C41.59651 4.29724726 42.0580767 4.76613995 42.0580767 5.34030662L42.0580767 6.3865121zM30.7057375 23.2946011C26.6112022 23.2946011 23.2798845 19.924624 23.2798845 15.7821537 23.2798845 11.6396833 26.6112022 8.26970616 30.7057375 8.26970616 34.8002727 8.26970616 38.1315904 11.6396833 38.1315904 15.7821537 38.1315904 19.924624 34.8002727 23.2946011 30.7057375 23.2946011L30.7057375 23.2946011zM39.4776571.121016667L21.9338178.121016667C18.2292041.121016667 15.2253727 3.15956233 15.2253727 6.90792078L15.2253727 24.6563865C15.2253727 28.404382 18.2288453 31.4432906 21.9338178 31.4432906L29.6736414 31.4432906 29.6736414 27.26706 28.171008 24.2264573C28.9733375 24.4725806 29.8239884 24.6061696 30.7057375 24.6061696 31.5874865 24.6061696 32.4382571 24.4725806 33.2404669 24.2264573L31.7378335 27.26706 31.7378335 31.4432906 39.4776571 31.4432906C43.1822708 31.4432906 46.1862218 28.404745 46.1862218 24.6563865L46.1862218 6.90792078C46.1862218 3.15992534 43.1826296.121016667 39.4776571.121016667L39.4776571.121016667z"/>
    <path d="M30.7057255,9.72170046 C27.4026353,9.72170046 24.7151667,12.4404311 24.7151667,15.7822142 C24.7151667,19.1238763 27.4026353,21.8426068 30.7057255,21.8426068 C34.0089353,21.8426068 36.6962843,19.1238763 36.6962843,15.7822142 C36.6962843,12.4404311 34.0089353,9.72170046 30.7057255,9.72170046"/>
  </g>
</svg>
