<svg xmlns="http://www.w3.org/2000/svg" xmlns:xlink="http://www.w3.org/1999/xlink" width="146" height="27" viewBox="0 0 146 27">
  <defs>
    <polygon id="logo_clientshare-a" points="22.99 26.85 .014 26.85 .014 .128 22.99 .128"/>
    <polygon id="logo_clientshare-c" points="0 26.872 145.907 26.872 145.907 .15 0 .15"/>
  </defs>
  <g fill="none" fill-rule="evenodd">
    <g transform="translate(8.862 .022)">
      <mask id="logo_clientshare-b" fill="#fff">
        <use xlink:href="#logo_clientshare-a"/>
      </mask>
      <path fill="#8D9697" d="M9.61081049,0.12819 C5.84530226,0.12819 2.44554506,1.68384 0.0141644033,4.18404 C0.25419321,4.16604 0.495724074,4.15389 0.740259053,4.15389 C6.04357387,4.15389 10.3427632,8.44704 10.3427632,13.74324 C10.3427632,19.03914 6.04357387,23.33244 0.740259053,23.33244 C0.680176749,23.33244 0.620845473,23.32899 0.56106358,23.32794 C2.94317675,25.51419 6.12047922,26.85009 9.61081049,26.85009 C16.9998825,26.85009 22.9899381,20.86809 22.9899381,13.48914 C22.9899381,6.11004 16.9998825,0.12819 9.61081049,0.12819" mask="url(#logo_clientshare-b)"/>
    </g>
    <path fill="#8D9697" d="M5.09362757 13.510995C5.09362757 9.892245 6.53650412 6.611745 8.87640947 4.205895 3.91270988 4.576845 0 8.713245 0 13.765095 0 19.000995 4.20290741 23.254095 9.42315844 23.349795 6.76226337 20.907795 5.09362757 17.404395 5.09362757 13.510995M46.9876967 16.84395C47.0683572 16.84395 47.1376021 16.8753 47.1960321 16.938L47.7602049 17.55495C47.366065 18.02025 46.8858572 18.3801 46.3195815 18.6348 45.7528551 18.8898 45.0712214 19.01715 44.2743798 19.01715 43.5757728 19.01715 42.9432564 18.89655 42.3769807 18.6549 41.8102543 18.41355 41.326742 18.0759 40.9262934 17.64225 40.5253942 17.2086 40.2152193 16.6899 39.9959189 16.08615 39.7764683 15.48255 39.6668181 14.81865 39.6668181 14.09415 39.6668181 13.3698 39.7820259 12.70575 40.0125918 12.102 40.2433078 11.4984 40.566851 10.97985 40.9832214 10.54605 41.3995918 10.11225 41.8976741 9.77475 42.4776185 9.53325 43.0574128 9.29175 43.6987914 9.171 44.4019045 9.171 45.086993 9.171 45.695777 9.28275 46.228707 9.5064 46.7614868 9.73005 47.2250218 10.02735 47.6190115 10.39845L47.1488675 11.0625C47.1174745 11.1117 47.078421 11.1519 47.0314066 11.1831 46.9843922 11.21445 46.9226576 11.23005 46.8468037 11.23005 46.7614868 11.23005 46.6619004 11.18775 46.547744 11.1027 46.4335877 11.0178 46.2835321 10.9227 46.0977276 10.81755 45.911923 10.7127 45.6825588 10.6176 45.4093346 10.53255 45.1362605 10.44765 44.7958942 10.40505 44.388386 10.40505 43.9092296 10.40505 43.4704786 10.4889 43.0721329 10.6566 42.6733366 10.8243 42.329816 11.0658 42.0411206 11.3811 41.7522749 11.69625 41.5283181 12.0831 41.3694004 12.54135 41.2103325 12.99975 41.1310239 13.51725 41.1310239 14.09415 41.1310239 14.68005 41.2137872 15.20085 41.3794642 15.657 41.5451412 16.11285 41.7734539 16.49985 42.0645527 16.8174 42.3555012 17.13465 42.6981206 17.3763 43.0921103 17.5416 43.4861 17.7069 43.9116329 17.7897 44.3684086 17.7897 44.6458387 17.7897 44.8954807 17.77305 45.1171844 17.7396 45.3387379 17.706 45.5425671 17.65575 45.7283716 17.5887 45.9141761 17.52165 46.0899169 17.4354 46.2555938 17.33025 46.4212708 17.2254 46.5846947 17.0988 46.7460156 16.95135 46.7817646 16.92015 46.8199169 16.89435 46.8600218 16.8741 46.9004272 16.8543 46.9429354 16.84395 46.9876967 16.84395"/>
    <polygon fill="#8D9697" points="56.606 17.709 56.606 18.91 51.085 18.91 51.085 9.278 52.515 9.278 52.515 17.709"/>
    <mask id="logo_clientshare-d" fill="#fff">
      <use xlink:href="#logo_clientshare-c"/>
    </mask>
    <polygon fill="#8D9697" points="59.883 18.91 61.32 18.91 61.32 9.278 59.883 9.278" mask="url(#logo_clientshare-d)"/>
    <polygon fill="#8D9697" points="71.563 17.749 71.556 18.91 65.579 18.91 65.579 9.278 71.556 9.278 71.556 10.439 67.016 10.439 67.016 13.49 70.67 13.49 70.67 14.611 67.016 14.611 67.016 17.749" mask="url(#logo_clientshare-d)"/>
    <path fill="#8D9697" d="M83.1086525,9.278265 L83.1086525,18.909765 L82.3831586,18.909765 C82.2712553,18.909765 82.178278,18.889815 82.1043767,18.849465 C82.0304755,18.809415 81.9553726,18.744615 81.8793685,18.654915 L76.4323068,11.619015 C76.4411689,11.739915 76.44928,11.858415 76.4560393,11.974665 C76.4624981,12.090915 76.4658027,12.200415 76.4658027,12.303315 L76.4658027,18.909765 L75.2099323,18.909765 L75.2099323,9.278265 L75.9487944,9.278265 C76.0742163,9.278265 76.1682451,9.292815 76.2310311,9.321915 C76.2936669,9.351015 76.3629117,9.416865 76.439066,9.519765 L81.8994961,16.562565 C81.8859776,16.432665 81.876064,16.306365 81.8693047,16.183365 C81.8625455,16.060365 81.8592409,15.945165 81.8592409,15.838065 L81.8592409,9.278265 L83.1086525,9.278265 Z" mask="url(#logo_clientshare-d)"/>
    <polygon fill="#8D9697" points="93.949 10.472 90.886 10.472 90.886 18.91 89.462 18.91 89.462 10.472 86.386 10.472 86.386 9.278 93.949 9.278" mask="url(#logo_clientshare-d)"/>
    <path fill="#8D9697" d="M102.176283,10.84776 C102.131371,10.92396 102.084507,10.97976 102.035239,11.01546 C101.985822,11.05131 101.923336,11.06916 101.847332,11.06916 C101.766371,11.06916 101.674595,11.03226 101.571855,10.95846 C101.468813,10.88466 101.340237,10.80201 101.185525,10.71036 C101.031114,10.61871 100.846361,10.53591 100.631416,10.46211 C100.416472,10.38831 100.158869,10.35141 99.858908,10.35141 C99.5769718,10.35141 99.3295829,10.38831 99.1168916,10.46211 C98.9042002,10.53591 98.7262064,10.63656 98.5829101,10.76391 C98.4396138,10.89141 98.3311652,11.04126 98.257264,11.21331 C98.1832126,11.38551 98.1462619,11.57226 98.1462619,11.77341 C98.1462619,12.03276 98.2125027,12.24741 98.3443833,12.41736 C98.4765644,12.58731 98.6500521,12.73251 98.8649965,12.85326 C99.0800912,12.97401 99.3240253,13.07901 99.5972496,13.16856 C99.8700233,13.25796 100.150307,13.35066 100.43675,13.44681 C100.723192,13.54296 101.003025,13.65366 101.2764,13.77891 C101.549173,13.90401 101.793258,14.06166 102.008352,14.25171 C102.223147,14.44191 102.396785,14.67426 102.528966,14.94921 C102.660997,15.22431 102.727087,15.56076 102.727087,15.95871 C102.727087,16.38351 102.654237,16.78161 102.508688,17.15256 C102.363138,17.52381 102.151649,17.84781 101.873918,18.12516 C101.596488,18.40251 101.25492,18.62046 100.849815,18.77916 C100.44456,18.93786 99.9843298,19.01721 99.4694245,19.01721 C99.1606014,19.01721 98.8604903,18.98706 98.5693916,18.92661 C98.2785932,18.86631 98.0029656,18.78141 97.7434101,18.67191 C97.4837043,18.56226 97.2408216,18.43026 97.0146117,18.27606 C96.7885521,18.12186 96.5857743,17.94846 96.406729,17.75616 L96.8164903,17.07231 C96.8567455,17.01846 96.9048113,16.97376 96.9608381,16.93806 C97.0168648,16.90236 97.0807023,16.88451 97.1523504,16.88451 C97.2463792,16.88451 97.3548278,16.93371 97.4781467,17.03181 C97.6011652,17.13021 97.7536241,17.23866 97.9349224,17.35716 C98.1160706,17.47581 98.3332681,17.58426 98.5863648,17.68236 C98.8391611,17.78076 99.1470829,17.82996 99.5098298,17.82996 C99.8054348,17.82996 100.069497,17.79096 100.302315,17.71251 C100.535134,17.63436 100.731153,17.52276 100.890071,17.37726 C101.048988,17.23206 101.171106,17.05656 101.256122,16.85076 C101.341138,16.64511 101.383797,16.41726 101.383797,16.16676 C101.383797,15.88491 101.318758,15.65466 101.18898,15.47586 C101.059202,15.29691 100.886766,15.14706 100.671671,15.02646 C100.456877,14.90556 100.212793,14.80266 99.9397187,14.71776 C99.6666447,14.63301 99.3866611,14.54466 99.1002187,14.45301 C98.8134759,14.36121 98.5336426,14.25516 98.2607187,14.13441 C97.9874944,14.01366 97.7434101,13.85601 97.5286158,13.66146 C97.3135212,13.46706 97.1412352,13.22331 97.0113072,12.93036 C96.8813792,12.63756 96.8164903,12.27636 96.8164903,11.84721 C96.8164903,11.50296 96.8837825,11.16966 97.0179163,10.84776 C97.1523504,10.52586 97.3480685,10.24086 97.6056714,9.99261 C97.8631241,9.74436 98.179908,9.54546 98.5560233,9.39561 C98.9321385,9.24591 99.3621776,9.17091 99.8456899,9.17091 C100.387332,9.17091 100.885564,9.25716 101.340237,9.42921 C101.794459,9.60141 102.189651,9.84831 102.525511,10.17036 L102.176283,10.84776 Z" mask="url(#logo_clientshare-d)"/>
    <polygon fill="#8D9697" points="114.272 9.278 114.272 18.91 112.842 18.91 112.842 14.57 107.811 14.57 107.811 18.91 106.374 18.91 106.374 9.278 107.811 9.278 107.811 13.531 112.842 13.531 112.842 9.278" mask="url(#logo_clientshare-d)"/>
    <path fill="#8D9697" d="M123.661715 15.32154L122.231305 11.58549C122.128114 11.33079 122.025073 11.00874 121.922182 10.61979 121.872914 10.81209 121.822595 10.99104 121.771225 11.15634 121.719704 11.32179 121.669085 11.46939 121.620118 11.59899L120.196317 15.32154 123.661715 15.32154zM126.489488 18.90984L125.387879 18.90984C125.262457 18.90984 125.159717 18.87864 125.079206 18.81609 124.998396 18.75339 124.940266 18.67284 124.904367 18.57459L124.051348 16.34094 119.799924 16.34094 118.946756 18.57459C118.915513 18.65949 118.857383 18.73674 118.772217 18.80589 118.6872 18.87519 118.584159 18.90984 118.463243 18.90984L117.361935 18.90984 121.203748 9.27819 122.647676 9.27819 126.489488 18.90984zM132.306026 13.91976C132.672829 13.91976 132.996522 13.87506 133.276355 13.78551 133.556189 13.69611 133.790359 13.56996 133.978417 13.40661 134.166324 13.24341 134.307368 13.04886 134.401397 12.82311 134.495425 12.59736 134.54244 12.34806 134.54244 12.07521 134.54244 11.52081 134.35994 11.10261 133.99494 10.82106 133.63009 10.53921 133.08274 10.39836 132.35289 10.39836L131.002841 10.39836 131.002841 13.91976 132.306026 13.91976zM136.80589 18.90981L135.529892 18.90981C135.274693 18.90981 135.088738 18.80946 134.972329 18.60816L132.587962 15.26796C132.511658 15.15606 132.428894 15.07656 132.339372 15.02976 132.249999 14.98296 132.115565 14.95941 131.93652 14.95941L131.002841 14.95941 131.002841 18.90981 129.572281 18.90981 129.572281 9.27831 132.35289 9.27831C132.975193 9.27831 133.511427 9.34191 133.961444 9.46956 134.41146 9.59691 134.783069 9.77796 135.076421 10.01271 135.369623 10.24746 135.586971 10.53036 135.728014 10.86111 135.868907 11.19216 135.939353 11.56326 135.939353 11.97456 135.939353 12.30996 135.887983 12.62526 135.785092 12.92031 135.681901 13.21551 135.530944 13.48041 135.331771 13.71516 135.132298 13.94991 134.889415 14.15226 134.602822 14.32221 134.31623 14.49201 133.991635 14.62176 133.629189 14.71101 133.807934 14.81856 133.962645 14.96826 134.092423 15.16056L136.80589 18.90981z" mask="url(#logo_clientshare-d)"/>
    <polygon fill="#8D9697" points="145.907 17.749 145.9 18.91 139.922 18.91 139.922 9.278 145.9 9.278 145.9 10.439 141.36 10.439 141.36 13.49 145.013 13.49 145.013 14.611 141.36 14.611 141.36 17.749" mask="url(#logo_clientshare-d)"/>
  </g>
</svg>
