<svg xmlns="http://www.w3.org/2000/svg" width="119" height="29" viewBox="0 0 119 29">
  <g fill="#8D9697" fill-rule="evenodd">
    <path d="M0.312266292,17.6521739 C0.312266292,17.6521739 0.696353832,25.8339565 9.28367687,28.8638261 C9.03386384,26.5917391 11.164736,24.5145006 12.8549025,24.5145006 L0.312266292,17.6521739 Z"/>
    <path d="M7.9275017 3.63497549L7.95121924 3.05484962 8.15178338 2.17844804 8.50075256 1.48912932 8.99874772.93039193 9.61534272.516047346 10.0257851.336498026 10.5430295.182060499 11.441532.0433178429 12.2214346.00439456377 12.9535248 0 14.757981.0728241997 15.5881799.237306444 16.3643569.548692677 16.9790891.983126696 17.4628026 1.55818676 17.7906598 2.25001665 17.9123643 2.71019026 17.9937077 3.31664006 18.0018502 3.63609629 18.3003907 3.66757737 18.3991205 3.68201665C18.8586172 3.77869705 20.179981 4.19931958 20.179981 5.86485925L20.179981 10.3076345C20.1247172 10.3371408 18.7102122 11.6636713 18.7102122 11.6636713 18.5717422 11.796136 18.4928826 11.9807077 18.4928826 12.1728129L18.4928826 16.1178756C18.4928826 16.505225 18.8033534 16.8191224 19.1870953 16.8191224L21.8074689 16.8191224C22.1899689 16.8191224 22.5004397 16.505225 22.5004397 16.1178756L22.5004397 12.1728129C22.5004397 11.9807077 22.4222011 11.796136 22.2837311 11.6636713 22.2837311 11.6636713 20.8698471 10.3371408 20.8145833 10.3082622L20.8145833 5.86485925C20.8145833 5.06316526 20.5612391 4.46927136 20.2029558 4.03420954L20.4817586 4.10703374 21.0977326 4.30730029 21.668378 4.53456202 22.1967993 4.78944672 22.6867222 5.0713266 23.1387677 5.38145724 23.5547985 5.72109424 23.9354357 6.0896098 24.2819212 6.48888731 24.5942548 6.92018235 24.8730576 7.38475053 25.1183295 7.88698639 25.3306915 8.43002891 25.5101436 9.01952825 25.6566858 9.66615692 25.77156 10.3843542 25.8529034 11.2061376 25.9019578 12.208726 25.9181023 14.0211696 25.9019578 15.8329855 25.8529034 16.8355738 25.77156 17.6573572 25.6566858 18.3755545 25.5101436 19.0221832 25.3306915 19.6116825 25.1183295 20.1547251 24.8730576 20.6569609 24.5942548 21.1215291 24.2819212 21.5528241 23.9354357 21.9521016 23.5547985 22.3206172 23.1387677 22.6596264 22.6867222 22.9703848 22.1967993 23.2528925 21.668378 23.5077772 21.0977326 23.7344111 20.4817586 23.9346777 19.8161092 24.1079491 19.0927122 24.2542253 18.3003907 24.3741341 17.4192746 24.4670477 16.4114864 24.533594 15.182022 24.5737728 12.9590511 24.5869565 10.7360802 24.5737728 9.50723679 24.533594 8.49944858 24.4670477 7.61833245 24.3741341 6.82539003 24.2542253 6.10199307 24.1079491 5.43634368 23.9346777 4.82099056 23.7344111 4.25034523 23.5077772 3.72130299 23.2528925 3.23138007 22.9703848 2.77995553 22.6596264 2.36392466 22.3206172 1.98266652 21.9521016 1.63680205 21.5528241 1.32446843 21.1215291 1.04566565 20.6569609.799772777 20.1547251.587410751 19.6116825.407958629 19.0221832.260795471 18.3755545.146542217 17.6573572.0658198093 16.8355738.0161444815 15.8329855 0 14.0211696.0161444815 12.208726.0658198093 11.2061376.146542217 10.3843542.260795471 9.66615692.407958629 9.01952825.587410751 8.43002891.799772777 7.88698639 1.04566565 7.38475053 1.32446843 6.92018235 1.63680205 6.48888731 1.98266652 6.0896098 2.36392466 5.72109424 2.77995553 5.38145724 3.23138007 5.0713266 3.72130299 4.78944672 4.25034523 4.53456202 4.82099056 4.30730029 5.43634368 4.10703374 6.10199307 3.93376237 6.82539003 3.78685838 7.61833245 3.66757737 7.9275017 3.63497549zM9.79000878 3.49887183L10.7360802 3.46793861 12.9590511 3.45475492 15.182022 3.46793861 16.0978898 3.49786915 16.0594746 2.96507496 15.8390404 2.49799561 15.5645842 2.2562946 15.2100265 2.08930118 14.7306596 1.97064796 13.9985695 1.89782376 12.9535248 1.88338447 11.3546001 1.94553616 10.5628996 2.14643051 10.1356918 2.43270495 9.93761141 2.73655764 9.82149533 3.13081279 9.79000878 3.49887183zM6.86985843 14.3423913C6.86985843 13.5588863 6.24069261 12.923913 5.4643535 12.923913 4.6880144 12.923913 4.0594618 13.5588863 4.0594618 14.3423913 4.0594618 15.1258963 4.6880144 15.7608696 5.4643535 15.7608696 6.24069261 15.7608696 6.86985843 15.1258963 6.86985843 14.3423913zM14.7847046 15.5308307C15.1850805 15.3905994 15.3974011 14.949085 15.2584828 14.5449248L14.4486315 12.1848744C14.3097132 11.7801019 13.8723328 11.5657745 13.4719569 11.7060059L11.1333976 12.5235116C10.7330217 12.663743 10.5207012 13.1052573 10.6596195 13.5100299L11.4694708 15.8700803C11.6083891 16.2742405 12.0451628 16.4885678 12.446752 16.3483365L14.7847046 15.5308307zM35.8646624 7.19872464C35.8646624 6.49263768 35.2256971 5.94794203 34.4669259 5.94794203 33.7281223 5.94794203 33.089157 6.51281159 33.0691893 7.19872464L33.0691893 19.4442899C33.089157 20.1302029 33.7281223 20.6950725 34.4669259 20.6950725 35.2256971 20.6950725 35.8646624 20.1503768 35.8646624 19.4442899L35.8646624 7.19872464zM44.9832291 12.5044638L44.9832291 12.3228986C45.0031968 11.6369855 45.642162 11.0721159 46.3809656 11.0721159 47.1397369 11.0721159 47.7787021 11.6168116 47.7787021 12.3228986L47.7787021 19.4442899C47.7787021 20.1503768 47.1397369 20.6950725 46.3809656 20.6950725 45.642162 20.6950725 45.0031968 20.1302029 44.9832291 19.4442899L44.9832291 19.2627246C44.3841992 20.2512464 43.2460423 20.7757681 42.1877561 20.7757681 39.811604 20.7757681 37.6550963 19.0004638 37.6550963 15.8735072 37.6550963 12.7465507 39.811604 10.9914203 42.1877561 10.9914203 42.786786 10.9914203 44.1845225 11.2536812 44.9832291 12.5044638zM40.5304399 15.8936812C40.5304399 17.1444638 41.3291465 18.2742029 42.726883 18.2742029 43.9848459 18.2742029 45.0031968 17.1444638 45.0031968 15.8936812 45.0031968 14.6428986 43.9848459 13.5131594 42.726883 13.5131594 41.3291465 13.5131594 40.5304399 14.6428986 40.5304399 15.8936812zM50.0283923 11.1729855C49.4692977 11.1729855 49.0300091 11.6773333 49.0300091 12.2825507 49.0300091 12.8675942 49.4692977 13.371942 50.0283923 13.3921159L50.7871635 13.3921159 50.7871635 19.4442899C50.8071312 20.1302029 51.4460965 20.6950725 52.1849001 20.6950725 52.9436713 20.6950725 53.5826366 20.1503768 53.5826366 19.4442899L53.5826366 13.3921159 54.6409228 13.3921159C55.2000174 13.371942 55.639306 12.8675942 55.639306 12.2825507 55.639306 11.6773333 55.2000174 11.1729855 54.6409228 11.1729855L53.5826366 11.1729855 53.5826366 8.71176812C53.5826366 8.00568116 52.9436713 7.46098551 52.1849001 7.46098551 51.4460965 7.46098551 50.8071312 8.02585507 50.7871635 8.71176812L50.7871635 11.1729855 50.0283923 11.1729855zM59.0471207 15.0463768L63.0805889 15.0463768C62.9408153 13.8964638 62.1620764 13.3315942 61.1237578 13.3315942 60.0854393 13.3315942 59.2867327 13.8561159 59.0471207 15.0463768zM64.6780021 18.0522899C65.1971614 18.6575072 64.9974847 19.5249855 64.3185841 19.9284638 63.3801039 20.5538551 62.2020117 20.7757681 61.1037901 20.7757681 58.4281231 20.7757681 56.23168 18.8188986 56.23168 15.8533333 56.23168 12.8877681 58.4281231 10.9914203 61.1037901 10.9914203 63.7594895 10.9914203 65.8760619 12.9684638 65.8760619 15.934029 65.8760619 16.4383768 65.456741 16.8015072 65.0174524 16.8015072L59.0071854 16.8015072C59.146959 17.8908986 60.3250512 18.3548986 61.3034668 18.3548986 61.8625614 18.3548986 62.3417853 18.3145507 62.9208476 17.9110725 63.5598129 17.4672464 64.2786488 17.5882899 64.6780021 18.0522899zM67.4468515 11.1729855C66.8877569 11.1729855 66.4484683 11.6773333 66.4484683 12.2825507 66.4484683 12.8675942 66.8877569 13.371942 67.4468515 13.3921159L68.2056228 13.3921159 68.2056228 19.4442899C68.2255904 20.1302029 68.8645557 20.6950725 69.6033593 20.6950725 70.3621305 20.6950725 71.0010958 20.1503768 71.0010958 19.4442899L71.0010958 13.3921159 72.059382 13.3921159C72.6184766 13.371942 73.0577652 12.8675942 73.0577652 12.2825507 73.0577652 11.6773333 72.6184766 11.1729855 72.059382 11.1729855L71.0010958 11.1729855 71.0010958 8.71176812C71.0010958 8.00568116 70.3621305 7.46098551 69.6033593 7.46098551 68.8645557 7.46098551 68.2255904 8.02585507 68.2056228 8.71176812L68.2056228 11.1729855 67.4468515 11.1729855zM79.5206326 10.9914203C78.5621847 10.9914203 77.5837692 11.5966377 77.0646099 13.3517681L77.0646099 12.3228986C77.0646099 11.6168116 76.4256446 11.0721159 75.6668734 11.0721159 74.9280698 11.0721159 74.2891045 11.6369855 74.2691369 12.3228986L74.2691369 19.4442899C74.2891045 20.1302029 74.9280698 20.6950725 75.6668734 20.6950725 76.4256446 20.6950725 77.0646099 20.1503768 77.0646099 19.4442899L77.0646099 17.1242899C77.1045452 14.763942 77.6237045 13.5535072 79.1811823 13.5535072 79.3608913 13.5535072 79.6604063 13.5736812 79.8600829 13.5736812 80.4790805 13.5736812 81.1380134 13.2508986 81.2378517 12.5448116 81.4175607 11.2133333 80.4391452 10.9914203 79.5206326 10.9914203zM82.0099348 7.68289855C82.0099348 8.61089855 82.8086413 9.33715942 83.7471216 9.33715942 84.6856018 9.33715942 85.444373 8.61089855 85.444373 7.68289855 85.444373 6.75489855 84.6856018 6.04881159 83.7471216 6.04881159 82.8086413 6.04881159 82.0099348 6.75489855 82.0099348 7.68289855zM85.1448581 12.3228986C85.1448581 11.6168116 84.5058928 11.0721159 83.7471216 11.0721159 83.008318 11.0721159 82.3693527 11.6369855 82.3493851 12.3228986L82.3493851 19.4442899C82.3693527 20.1302029 83.008318 20.6950725 83.7471216 20.6950725 84.5058928 20.6950725 85.1448581 20.1503768 85.1448581 19.4442899L85.1448581 12.3228986zM90.1700536 12.5044638C90.9687602 11.2536812 92.3664967 10.9914203 92.9655266 10.9914203 95.3416787 10.9914203 97.4981864 12.7465507 97.4981864 15.8735072 97.4981864 19.0004638 95.3416787 20.7757681 92.9655266 20.7757681 91.9072404 20.7757681 90.7690835 20.2512464 90.1700536 19.2627246L90.1700536 23.9430725C90.1500859 24.6289855 89.5111207 25.1938551 88.7723171 25.1938551 88.0135458 25.1938551 87.3745806 24.6491594 87.3745806 23.9430725L87.3745806 12.3228986C87.3745806 11.6168116 88.0135458 11.0721159 88.7723171 11.0721159 89.5111207 11.0721159 90.1500859 11.6369855 90.1700536 12.3228986L90.1700536 12.5044638zM94.6228428 15.8936812C94.6228428 14.6428986 93.8241362 13.5131594 92.4263997 13.5131594 91.1684368 13.5131594 90.1500859 14.6428986 90.1500859 15.8936812 90.1500859 17.1444638 91.1684368 18.2742029 92.4263997 18.2742029 93.8241362 18.2742029 94.6228428 17.1444638 94.6228428 15.8936812zM98.5697844 19.8376812C98.5697844 20.331942 98.9591539 20.6849855 99.428394 20.6849855 99.8976341 20.6849855 100.296987 20.331942 100.296987 19.8376812 100.296987 19.3535072 99.8976341 19.0004638 99.428394 19.0004638 98.9591539 19.0004638 98.5697844 19.3535072 98.5697844 19.8376812zM102.406904 18.254029L102.406904 18.2237681C102.406904 17.5681159 102.946031 17.1545507 103.545061 17.1545507 103.794657 17.1545507 104.034269 17.2251594 104.233945 17.3361159 104.483541 17.4773333 104.892878 17.5378551 105.142474 17.2856812 105.422021 17.0032464 105.382086 16.4888116 105.052619 16.2568116 104.633299 15.9542029 104.104155 15.7928116 103.545061 15.7928116 102.207227 15.7928116 100.9892 16.7409855 100.9892 18.2237681L100.9892 18.254029C100.9892 19.7368116 102.207227 20.6849855 103.545061 20.6849855 104.104155 20.6849855 104.633299 20.5235942 105.052619 20.2209855 105.382086 19.9889855 105.422021 19.4745507 105.142474 19.1921159 104.892878 18.939942 104.483541 19.0004638 104.233945 19.1416812 104.034269 19.2526377 103.794657 19.3232464 103.545061 19.3232464 102.946031 19.3232464 102.406904 18.9096812 102.406904 18.254029zM108.280725 20.6849855C106.922924 20.6849855 105.834686 19.7065507 105.834686 18.2237681 105.834686 16.7409855 106.922924 15.7928116 108.280725 15.7928116 109.638526 15.7928116 110.736748 16.7409855 110.736748 18.2237681 110.736748 19.7065507 109.638526 20.6849855 108.280725 20.6849855zM108.280725 19.3232464C108.859787 19.3232464 109.339011 18.8693333 109.339011 18.2237681 109.339011 17.5882899 108.859787 17.1545507 108.280725 17.1545507 107.711647 17.1545507 107.232423 17.5882899 107.232423 18.2237681 107.232423 18.8693333 107.711647 19.3232464 108.280725 19.3232464zM118.856931 17.9211594C118.846948 16.4988986 118.138096 15.7827246 117.02989 15.7827246 116.700424 15.7827246 116.011539 15.934029 115.672089 16.6804638 115.36259 16.0348986 114.873382 15.7928116 114.134579 15.7928116 113.635387 15.7928116 113.136196 16.0752464 112.916551 16.5695072L112.916551 16.4585507C112.916551 16.1055072 112.597069 15.8331594 112.217683 15.8331594 111.848281 15.8331594 111.528799 16.1155942 111.518815 16.4585507L111.518815 20.0192464C111.528799 20.3622029 111.848281 20.6446377 112.217683 20.6446377 112.597069 20.6446377 112.916551 20.3722899 112.916551 20.0192464L112.916551 18.1027246C112.916551 17.3865507 113.305921 17.1444638 113.725242 17.1444638 114.124595 17.1444638 114.493997 17.4571594 114.493997 18.0522899L114.493997 20.0192464C114.503981 20.3622029 114.823463 20.6446377 115.192865 20.6446377 115.572251 20.6446377 115.891733 20.3722899 115.891733 20.0192464L115.891733 18.1027246C115.891733 17.4168116 116.241167 17.1444638 116.680456 17.1444638 117.089793 17.1444638 117.459195 17.4672464 117.459195 18.0825507L117.459195 20.0192464C117.469179 20.3622029 117.788661 20.6446377 118.158063 20.6446377 118.537449 20.6446377 118.856931 20.3722899 118.856931 20.0192464L118.856931 17.9211594z"/>
  </g>
</svg>
