<svg xmlns="http://www.w3.org/2000/svg" xmlns:xlink="http://www.w3.org/1999/xlink" width="39" height="39" viewBox="0 0 39 39">
  <defs>
    <polygon id="logo_eezy-a" points="19.33 38.659 38.659 38.659 38.659 0 19.33 0 0 0 0 38.659 19.33 38.659"/>
  </defs>
  <g fill="none" fill-rule="evenodd">
    <path fill="#8D9697" d="M16.9947031 18.7571492C17.2131914 18.5943311 17.5038758 18.333953 17.7626841 18.0373447 18.0227589 17.7413911 18.2509578 17.404842 18.3726568 17.1141265 18.455619 16.920098 18.4897116 16.7526965 18.4890783 16.630692 18.4862285 16.5025764 18.4653296 16.4218221 18.3906003 16.3063653 18.3065826 16.1852338 18.2189762 16.1164835 18.0906275 16.0579912 17.9635455 16.0016815 17.7917103 15.9674154 17.5936987 15.9678519 17.4218635 15.9676337 17.2329292 15.9931695 17.0507501 16.039003 16.651666 16.1389638 16.2842469 16.3222979 15.9503927 16.57591 15.6171717 16.8290857 15.3190988 17.1536307 15.07074 17.5270648 14.5728612 18.2726234 14.2850267 19.2152662 14.2870321 20.1085834 14.2870321 20.1293176 14.288932 20.1491788 14.2891431 20.169913 15.2622075 19.8303085 16.1794359 19.3673899 16.9947031 18.7571492M24.5217265 19.3634162C24.6639077 19.2307147 24.7928726 19.0969351 24.8934865 18.9682519 24.99474 18.8393726 25.0665766 18.7168639 25.1081438 18.6052339 25.1821121 18.4090238 25.2130211 18.2406478 25.2123816 18.1226473 25.2119553 18.020132 25.1927704 17.9585836 25.1707078 17.9163425 25.1467267 17.8744935 25.1213601 17.8405831 25.0431285 17.7893254 24.990903 17.7564931 24.9132043 17.7188584 24.8005465 17.6841639 24.7259387 17.6612303 24.641099 17.6486854 24.5405917 17.6486854 24.3728307 17.6479013 24.1619038 17.6873981 23.9495913 17.7586492 23.6079942 17.8716513 23.2414567 18.0646272 22.9287434 18.3031762 22.6147512 18.5410393 22.3562884 18.8247696 22.2022766 19.0986012 21.9926287 19.4649514 21.8484225 19.9526343 21.8507673 20.3823951 21.8507673 20.618102 21.8930806 20.8292091 21.9686476 21.0103261 22.9187247 20.547733 23.8419429 19.9998737 24.5217265 19.3634162"/>
    <mask id="logo_eezy-b" fill="#fff">
      <use xlink:href="#logo_eezy-a"/>
    </mask>
    <path fill="#8D9697" d="M15.3054525,8.88834842 C13.6334507,9.56767296 12.3718787,10.4669243 11.4030412,11.4385538 C10.4349554,12.4103981 9.76057063,13.4582718 9.29032685,14.4331229 C8.35241655,16.3731604 8.23622478,18.0243292 8.2345066,18.072653 L8.2345066,18.0741564 C8.23257365,18.1080904 8.23107025,18.1231244 8.22570094,18.1572732 C8.16126927,18.5696359 8.12905344,18.9877974 8.12905344,19.4063885 C8.12905344,19.8133818 8.16298745,20.2201604 8.22355322,20.6225362 C8.52885193,20.6097572 8.837587,20.5906425 9.15781239,20.5622926 C10.2431638,20.4662894 11.3113335,20.3430101 12.3424549,20.1312447 C12.3274208,19.9635076 12.3175413,19.7955557 12.3175413,19.6276038 C12.3181856,18.6959219 12.5406897,17.7702537 12.9452131,16.934575 C13.3505957,16.0995406 13.9403602,15.350415 14.6970028,14.7930811 C15.2009658,14.4221695 15.7809582,14.1384554 16.4182947,13.9842489 C16.7180094,13.9120855 17.0369461,13.8671981 17.3676954,13.8669833 C17.7465536,13.8671981 18.1448486,13.9260457 18.5321903,14.0899169 C18.9184582,14.2518551 19.289692,14.5304147 19.5598754,14.9191524 C19.8380055,15.3119708 19.9677279,15.7758788 19.9647211,16.2052085 C19.9640767,16.6242291 19.8564759,17.00996 19.7044171,17.3581058 C19.5512845,17.7066811 19.3504725,18.0227184 19.1314048,18.3104058 C18.6907996,18.885351 18.1797491,19.3486147 17.7469831,19.6636856 C16.7293923,20.4001395 15.6046302,20.9370701 14.4382022,21.3202237 C14.4943652,21.4093542 14.5539645,21.4952631 14.6201143,21.5747288 C14.8101877,21.8030317 15.0417122,21.9948233 15.3103922,22.1520365 C15.8460342,22.4666779 16.5367416,22.6348445 17.2480672,22.6339854 C17.3234523,22.6339854 17.3990521,22.6320525 17.4743298,22.6284013 C18.3672453,22.5850173 19.2615568,22.3898968 20.1154912,22.0757924 C19.9234848,21.6230526 19.8472407,21.1445401 19.8472407,20.6838536 C19.8496032,19.8941362 20.0615833,19.1374936 20.3917956,18.4985463 C20.6760467,17.9545282 21.0819662,17.4904055 21.5443708,17.1068223 C22.0078492,16.7238834 22.5294236,16.4214841 23.0737638,16.2236789 C23.4198692,16.099111 23.8117211,16.0031078 24.2431985,16.0022487 C24.4998513,16.0022487 24.7713234,16.0381157 25.0415069,16.1287496 C25.4003912,16.2488072 25.7225496,16.4292159 25.9813501,16.6779221 C26.2405802,16.925125 26.4239956,17.2395515 26.516992,17.5621394 C26.5799203,17.7773412 26.6061225,17.9951202 26.6061225,18.2077447 C26.6055856,18.580804 26.5281602,18.9383998 26.4096059,19.2848274 L26.4093911,19.2854717 C26.2994278,19.6044084 26.1399594,19.8799612 25.9666382,20.1202913 C25.7934244,20.3606214 25.6052839,20.5676619 25.4248753,20.7506478 C24.743403,21.4392075 23.944343,22.0014812 23.1306784,22.477846 C23.2399975,22.51178 23.348887,22.5422777 23.4550918,22.5661174 C23.7772502,22.6391399 24.1246442,22.6745774 24.4871797,22.6745774 C25.131926,22.6750069 25.8229556,22.5616072 26.4914341,22.3668088 C27.1595905,22.1722251 27.8046589,21.8968871 28.3580195,21.5878299 C29.213672,21.1102839 30.0667473,20.6265095 30.916601,20.1402651 C31.168314,19.996153 31.4799485,19.9920723 31.7353127,20.1299561 C31.9906769,20.2676251 32.1585214,20.529862 32.1765622,20.8195897 C32.1806429,20.8831623 32.182898,20.9478087 32.182898,21.0143881 C32.1820389,21.4271803 32.1045062,21.8030317 32.0149461,22.14409 C31.9243123,22.4845039 31.8191813,22.7927021 31.7418633,23.0545094 C31.5433063,23.7226658 31.2757001,24.379654 30.9955298,24.973714 C30.3738716,26.2902677 29.5214406,27.4983615 28.4336193,28.5022068 C26.9766046,29.846681 25.2549904,30.9452409 23.3254768,31.5805371 C22.0540252,31.9984838 20.6904364,32.2154038 19.3322169,32.2157259 C18.6495634,32.2157259 17.9679837,32.1606369 17.3004716,32.0470224 C15.2669009,31.7020982 13.46915,30.876299 11.8451498,29.7036427 C10.5743426,28.7869948 9.40394135,27.665669 8.52638205,26.3020802 L8.52616728,26.3018654 C8.27273606,25.9071141 8.01715711,25.456522 7.79637127,24.9883185 C7.59802912,24.5671502 7.7783304,24.064798 8.19949873,23.8664558 C8.62066706,23.6678989 9.12301929,23.8485223 9.32136143,24.2696907 C9.50531384,24.659717 9.72867695,25.0542536 9.94473781,25.3903721 L9.94452304,25.3899426 C10.6779702,26.5310274 11.690836,27.5144694 12.8312765,28.3362953 C14.2872174,29.3844911 15.8245569,30.0840043 17.5835414,30.3849001 C18.1524731,30.4817624 18.7403046,30.5298714 19.3322169,30.5298714 C20.509813,30.5300862 21.7039465,30.3393684 22.7985331,29.9789806 C24.4601184,29.4326001 25.9828535,28.469991 27.2902794,27.2631859 C28.2046721,26.4195606 28.9329647,25.3931642 29.4709692,24.2540123 C29.7222527,23.7213772 29.959576,23.1341899 30.1255949,22.5744935 C30.1318233,22.5538754 30.1380517,22.5347606 30.1440653,22.5143573 C29.8223365,22.6960546 29.5027555,22.8796848 29.1799528,23.0598787 C28.5135146,23.4316494 27.7597715,23.7531635 26.9628592,23.985547 C26.1660542,24.2172862 25.3262948,24.3603245 24.4871797,24.3607541 C24.0156473,24.3607541 23.5441149,24.3150076 23.0827842,24.2106283 C22.6140438,24.1041013 22.1079331,23.9335721 21.6251251,23.6674693 C21.4996981,23.5980979 21.3754524,23.521639 21.2544283,23.4374483 C20.0927253,23.9344312 18.8397442,24.2495021 17.5562654,24.3124303 C17.4536042,24.3173701 17.3507283,24.3197326 17.2480672,24.3197326 C16.5214928,24.3197326 15.7932002,24.1955942 15.1160234,23.9266994 C14.4400278,23.6582341 13.8125708,23.2399652 13.3243935,22.6538518 C13.1046815,22.3902189 12.9178297,22.0908265 12.7659857,21.7645875 C11.6072896,22.0083539 10.4460162,22.1402241 9.30664954,22.2418113 C8.79806891,22.2870209 8.28197126,22.3227805 7.74869184,22.3229952 C7.6693335,22.3229952 7.58954562,22.3221361 7.50965035,22.320418 C7.12542285,22.3122566 6.79553271,22.0459391 6.70704656,21.6718059 C6.53136288,20.9293383 6.4430915,20.1679708 6.4430915,19.4063885 C6.4430915,18.9171373 6.48024709,18.4278862 6.55348442,17.9429305 C6.56787416,17.7401856 6.65550122,16.7494413 7.09041497,15.4019604 C7.56688715,13.9279786 8.46431288,12.0214456 10.1554294,10.3024087 C11.2746074,9.16411595 12.7430051,8.11473887 14.6367592,7.34112933 C14.8156644,7.25726078 16.5831324,6.44509962 19.2547915,6.44316667 C21.2236084,6.44144849 23.6832873,6.89633606 26.2820312,8.41348703 L26.282246,8.41348703 C26.3230527,8.43646766 27.033734,8.83766217 27.9616574,9.66646818 C28.8889364,10.4952742 30.0356053,11.7544837 30.9254067,13.4958569 C31.5182854,14.6560564 31.994328,16.0308134 32.2082411,17.619054 C32.2703103,18.0805995 31.9466486,18.5049894 31.4851031,18.5672734 C31.0237723,18.6293426 30.5991676,18.3058956 30.5370985,17.8443501 C30.3528239,16.4779692 29.9505555,15.3070311 29.4476664,14.3100584 C28.944992,13.3135153 28.3401934,12.4917968 27.7532209,11.837171 C26.5801351,10.5282417 25.4741655,9.8928381 25.4573059,9.88403244 L25.4450639,9.87694496 C23.1134966,8.51571861 20.973721,8.13084679 19.2547915,8.12934338 C16.9310634,8.12741043 15.3812671,8.85248146 15.3546353,8.86644165 L15.3546353,8.86622688 L15.3054525,8.88834842 Z M33.2897267,0 L5.36933777,0 C2.4039777,0 3.22158333e-05,2.40373071 3.22158333e-05,5.36930556 L3.22158333e-05,33.2896944 C3.22158333e-05,36.2551619 2.4039777,38.659 5.36933777,38.659 L33.2897267,38.659 C36.2550867,38.659 38.6590322,36.2551619 38.6590322,33.2896944 L38.6590322,5.36930556 C38.6590322,2.40373071 36.2550867,0 33.2897267,0 L33.2897267,0 Z" mask="url(#logo_eezy-b)"/>
  </g>
</svg>
