<svg xmlns="http://www.w3.org/2000/svg" width="72" height="30" viewBox="0 0 72 30">
  <g fill="#FFF" fill-rule="evenodd">
    <path d="M34.358769 9.8725791C34.292349 8.93048955 33.992559 8.08305672 33.417909 7.36332537 32.727789 6.49887761 31.902759 5.78031045 31.070709 5.07526567 30.357549 4.47105672 29.601639 3.92989254 28.820529 3.42705672 28.031139 2.91920597 27.214029 2.46768358 26.371899 2.06792239 25.555509 1.6803403 24.720939 1.34013134 23.861709 1.07308657 23.337729.910191045 22.814469.73681791 22.280949.619056716 21.516219.450340299 20.744919.308489552 19.971549.192340299 19.381149.103683582 18.783999.0531761194 18.188199.0216537313 17.651619-.00673432836 17.112069-.00628656717 16.575309.0178029851 15.858009.0499522388 15.138909.0889970149 14.426289.177474627 13.742649.262459701 13.059279.382638806 12.388329.545265672 11.608659.734220896 10.838709.972250746 10.071819 1.2144 9.235719 1.4785791 8.428779 1.83007164 7.644159 2.23117612 7.027029 2.54648955 6.412239 2.87389254 5.825799 3.24714627 5.123889 3.69356418 4.445019 4.18207164 3.772089 4.6765791 3.350529 4.9863403 2.957589 5.34007164 2.552859 5.67553433 2.199249 5.96854925 2.063169 6.35174328 2.145429 6.81642985 2.248749 7.39887761 2.811159 7.79237015 3.363579 7.68123582 3.594879 7.63475821 3.783879 7.50732537 3.966579 7.36314627 4.619529 6.84750448 5.257809 6.30929552 5.928399 5.8203403 7.166079 4.91801194 8.507079 4.21610149 9.911079 3.64986269 11.073429 3.18105672 12.265929 2.81756418 13.494159 2.60290746 14.210559 2.47771343 14.932449 2.37723582 15.655599 2.3064 16.250229 2.24810149 16.850259 2.24998209 17.354709 2.22902687 17.823879 2.25642985 18.200169 2.26592239 18.573939 2.30281791 19.186929 2.36353433 19.803159 2.41305672 20.409399 2.52078806 21.088629 2.64159403 21.762009 2.80726567 22.431879 2.97947463 23.452029 3.24177313 24.441219 3.61171343 25.392879 4.07559403 26.119989 4.42995224 26.828199 4.83016119 27.530289 5.2383403 28.348119 5.71395224 29.108979 6.28529552 29.831589 6.90750448 30.362859 7.36502687 30.869289 7.85505672 31.377969 8.34087761 31.688649 8.63765373 31.953339 8.96998209 32.111919 9.39481791 32.405679 10.1832358 32.214699 11.2106687 31.643019 11.8059224 31.395429 12.0636537 31.146849 12.3207582 30.910149 12.5893254 30.474279 13.0836537 29.796579 13.1181313 29.333529 12.6523701 29.065059 12.3823701 28.802619 12.1054746 28.543599 11.8254448 27.755559 10.9740716 26.879049 10.2361612 25.938099 9.58529552 24.949539 8.90156418 23.900319 8.3405194 22.789989 7.9064597 21.804309 7.52120597 20.796939 7.22075821 19.757079 7.05983284 19.138689 6.96419104 18.515799 6.87893731 17.892369 6.84875821 16.867719 6.79932537 15.844779 6.85117612 14.827149 7.01219104 13.981419 7.14598209 13.149999 7.34048955 12.335589 7.61075821 11.409039 7.9182806 10.516149 8.31338507 9.657009 8.79472836 8.872209 9.23416119 8.116479 9.72284776 7.423659 10.3072657 6.877359 10.7682806 6.357339 11.265206 5.843439 11.7664299 5.298399 12.2980119 4.917789 12.9489672 4.701879 13.7002209 4.530609 14.2958328 4.471299 14.9026388 4.535019 15.5253851 4.597569 16.1376537 4.767219 16.7101612 5.045049 17.2491761 5.450049 18.0346388 6.078789 18.6181612 6.684219 19.2131463 7.287579 19.8061612 8.030799 20.0772358 8.862129 20.0596836 9.446229 20.0474149 9.984339 19.8779821 10.482399 19.5555045 10.939959 19.2591761 11.287179 18.8345194 11.656539 18.4374448 12.153159 17.9035343 12.692349 17.4275642 13.299939 17.0430269 13.923729 16.648191 14.589729 16.3570567 15.296949 16.1672955 16.192899 15.9270269 17.099649 15.8440119 18.014319 15.9749373 18.490419 16.0429075 18.969039 16.1415045 19.425609 16.2951761 19.886409 16.4501015 20.330019 16.6721015 20.765619 16.8984 21.300579 17.1763701 21.781899 17.5476537 22.213629 17.9814448 22.447539 18.2163403 22.666779 18.4721015 22.863609 18.742191 23.050809 18.9988478 23.138919 19.3084299 23.129739 19.6364597 23.118759 20.035594 22.961169 20.3808179 22.713759 20.6698925 22.397229 21.0395642 22.056579 21.3864 21.729159 21.7461313 21.344679 22.1688179 20.663739 22.2002507 20.254599 21.8007582 19.864539 21.4200716 19.456479 21.0732358 18.967419 20.8372657 18.222039 20.477803 17.444349 20.3432955 16.634799 20.4488776 15.744879 20.5647582 14.962599 20.944191 14.296059 21.5822507 13.479939 22.363594 13.017519 23.3397134 12.907629 24.4892955 12.821139 25.3934149 12.976749 26.2625194 13.357449 27.0835343 13.674159 27.766191 14.123799 28.3293851 14.709609 28.7690866 15.457239 29.3305791 16.291089 29.617594 17.211339 29.6071164 17.598519 29.6028179 17.906589 29.4196836 18.096939 29.0679224 18.522639 28.2808478 18.030789 27.3869373 17.173449 27.3637433 16.816239 27.3541612 16.479099 27.2613851 16.162569 27.077803 15.925869 26.9405194 15.749199 26.7457433 15.577119 26.530191 15.242769 26.1106388 15.027489 25.6485493 15.028389 25.0921612 15.029379 24.5068478 15.205329 23.9911164 15.572709 23.545594 16.139349 22.8587284 17.025129 22.630997 17.828829 22.8570269 18.219969 22.9671761 18.545949 23.1943701 18.842409 23.4752955 19.273689 23.8842806 19.774269 24.1452358 20.342079 24.2643403 21.053709 24.4136239 21.732039 24.3111761 22.384269 23.9776836 22.792689 23.7687582 23.124159 23.4609672 23.436819 23.1224597 23.892849 22.6285791 24.375789 22.1626388 24.714639 21.5591463 25.115139 20.8454149 25.309989 20.080191 25.234659 19.2566687 25.155009 18.3870269 24.798519 17.6352358 24.258159 16.9800716 23.814459 16.4420418 23.301099 15.9849672 22.755519 15.5658627 22.075749 15.0437731 21.338469 14.6341612 20.553489 14.3227881 19.896579 14.0621015 19.218249 13.8819224 18.521379 13.7766985 17.801289 13.6677134 17.079399 13.6423701 16.356609 13.7077433 15.427449 13.7918328 14.526639 14.009803 13.655529 14.369803 12.762729 14.7388478 11.927799 15.2194746 11.194659 15.8669373 10.637829 16.3587582 10.120779 16.9029672 9.606069 17.4450269 9.138519 17.9373851 8.437059 17.9450866 7.986249 17.435803 7.805889 17.2322507 7.621119 17.0316537 7.426449 16.843594 6.877359 16.3131761 6.588369 15.6710866 6.639309 14.8757731 6.672789 14.3541313 6.848919 13.8887284 7.189209 13.5121612 8.003619 12.610997 8.927199 11.8493552 9.935289 11.2049373 10.842579 10.624997 11.801349 10.161206 12.811149 9.81141493 13.981419 9.40592239 15.180759 9.16663881 16.407639 9.09831045 17.362989 9.04502687 18.317529 9.08953433 19.265679 9.2463403 20.027979 9.3723403 20.782089 9.54141493 21.507759 9.81374328 22.131369 10.0476537 22.742019 10.3239224 23.345649 10.6119224 24.074379 10.9596537 24.745509 11.416997 25.392429 11.9119522 26.255709 12.5724896 27.009909 13.3612657 27.754839 14.1606985 28.557189 15.0219224 29.525229 15.367594 30.655719 15.166997 31.309299 15.0510269 31.874499 14.7403701 32.344029 14.2413851 32.592159 13.9774746 32.843619 13.7169672 33.093549 13.4549373 33.527709 13.0001015 33.858369 12.4719224 34.078869 11.8707582 34.314489 11.2281313 34.407459 10.5630269 34.358769 9.8725791M1.095507 9.12555224C.531117 9.09850746.019377 9.58656716.000566999999 10.2098507-.020133 10.8954627.540387 11.3926567 1.041327 11.3609552 1.593927 11.3959701 2.095137 10.9232239 2.126367 10.3201791 2.158227 9.70495522 1.725507 9.15564179 1.095507 9.12555224M20.838024 27.7269672C20.235114 27.7194448 19.774404 28.2168179 19.777104 28.872609 19.779444 29.4370567 20.250234 29.9304 20.800134 29.9444597 21.348684 29.9585194 21.848544 29.4513851 21.852774 28.8764597 21.857724 28.2384 21.412494 27.7340418 20.838024 27.7269672M37.374993 2.23098806L38.931813 2.23098806C39.092463 2.23098806 39.226743 2.26734627 39.334653 2.34006269 39.442383 2.41286866 39.512853 2.50904776 39.545703 2.62904776L40.641993 6.77433134C40.678443 6.90892836 40.714983 7.0524806 40.751613 7.20516716 40.787973 7.35794328 40.815513 7.51797313 40.833783 7.68516716 40.870233 7.51430149 40.910463 7.35346567 40.954383 7.2024806 40.998303 7.05158507 41.040243 6.90892836 41.080473 6.77433134L42.374133 2.62904776C42.406983 2.52740597 42.477273 2.43552537 42.585183 2.35367463 42.692733 2.27182388 42.823503 2.23098806 42.977043 2.23098806L43.525143 2.23098806C43.685883 2.23098806 43.818453 2.26645075 43.922583 2.33728657 44.026713 2.40821194 44.098803 2.50555522 44.139123 2.62904776L45.421713 6.77433134C45.461853 6.90167463 45.503973 7.03707761 45.547893 7.18062985 45.591723 7.32436119 45.630153 7.47794328 45.662913 7.64155522 45.692073 7.48161493 45.722223 7.32892836 45.753363 7.18340597 45.784413 7.03806269 45.816363 6.90167463 45.849213 6.77433134L46.945593 2.62904776C46.974843 2.52373433 47.044323 2.43095821 47.153853 2.35098806 47.263473 2.27101791 47.395053 2.23098806 47.548503 2.23098806L49.006593 2.23098806 46.539963 10.1777642 44.862633 10.1777642 43.360713 5.2526597C43.335153 5.17627164 43.308693 5.09262985 43.281333 5.00164478 43.253793 4.91092836 43.227333 4.8144806 43.201773 4.7126597 43.176213 4.8144806 43.149663 4.91092836 43.122303 5.00164478 43.094853 5.09262985 43.068393 5.17627164 43.042833 5.2526597L41.518953 10.1777642 39.841623 10.1777642 37.374993 2.23098806z"/>
    <polygon points="56.4 10.178 54.536 10.178 54.536 6.818 51.291 6.818 51.291 10.178 49.428 10.178 49.428 2.231 51.291 2.231 51.291 5.553 54.536 5.553 54.536 2.231 56.4 2.231"/>
    <polygon points="62.578 2.231 62.578 3.649 59.3 3.649 59.3 5.503 61.811 5.503 61.811 6.867 59.3 6.867 59.3 8.76 62.578 8.76 62.578 10.178 57.436 10.178 57.436 2.231"/>
    <path d="M64.828161 2.24192239C64.882971 2.24926567 64.932381 2.26278806 64.976301 2.28284776 65.020131 2.30281791 65.062071 2.33102687 65.102391 2.36738507 65.142531 2.40374328 65.188161 2.45281791 65.239281 2.51460896L69.032511 7.28702687C69.017931 7.1343403 69.006951 6.98631045 68.999661 6.84248955 68.992281 6.69893731 68.988681 6.56353433 68.988681 6.43619104L68.988681 2.23099701 70.622181 2.23099701 70.622181 10.1777731 69.657471 10.1777731C69.514821 10.1777731 69.394221 10.1559224 69.295761 10.1123104 69.196941 10.068609 69.101901 9.98872836 69.010641 9.87231045L65.244861 5.13804179C65.255841 5.27631045 65.264931 5.41171343 65.272221 5.54442985 65.279511 5.67714627 65.283201 5.80171343 65.283201 5.91804179L65.283201 10.1777731 63.649701 10.1777731 63.649701 2.23099701 64.625301 2.23099701C64.705851 2.23099701 64.773531 2.23466866 64.828161 2.24192239M41.957442 17.0039642L41.957442 20.0256358 40.104792 20.0256358 40.104792 17.0039642 37.210572 12.0788597 38.843982 12.0788597C39.004722 12.0788597 39.132612 12.116203 39.227832 12.1907104 39.322692 12.2652179 39.399552 12.3606806 39.458052 12.4769194L40.587102 14.789606C40.678452 14.9750687 40.762602 15.1459343 40.839282 15.3022925 40.916052 15.4586507 40.983552 15.6132179 41.042142 15.7659045 41.096772 15.6096358 41.162742 15.4532776 41.239422 15.2969194 41.316192 15.1405612 41.398362 14.9714866 41.486112 14.789606L42.604272 12.4769194C42.626232 12.4298149 42.656382 12.3825313 42.694632 12.3352478 42.733062 12.2879642 42.776892 12.2451582 42.826302 12.2070985 42.875622 12.1688597 42.932142 12.1379642 42.996222 12.1143224 43.060032 12.0906806 43.130502 12.0788597 43.207272 12.0788597L44.851662 12.0788597 41.957442 17.0039642zM50.588478 16.0494985C50.588478 15.6568119 50.537358 15.3031701 50.435028 14.9886627 50.332698 14.6742448 50.185638 14.4078269 49.993668 14.1896776 49.801878 13.9714388 49.567068 13.8043343 49.289238 13.6878269 49.011588 13.5714985 48.695418 13.5132896 48.341088 13.5132896 47.982888 13.5132896 47.664108 13.5714985 47.384478 13.6878269 47.105028 13.8043343 46.869318 13.9714388 46.677528 14.1896776 46.485558 14.4078269 46.338408 14.6742448 46.236168 14.9886627 46.133838 15.3031701 46.082718 15.6568119 46.082718 16.0494985 46.082718 16.4458567 46.133838 16.8013791 46.236168 17.115797 46.338408 17.430394 46.485558 17.6967224 46.677528 17.9148716 46.869318 18.1330209 47.105028 18.299409 47.384478 18.4139463 47.664108 18.5284836 47.982888 18.5857075 48.341088 18.5857075 48.695418 18.5857075 49.011588 18.5284836 49.289238 18.4139463 49.567068 18.299409 49.801878 18.1330209 49.993668 17.9148716 50.185638 17.6967224 50.332698 17.430394 50.435028 17.115797 50.537358 16.8013791 50.588478 16.4458567 50.588478 16.0494985M52.485048 16.0494985C52.485048 16.6241552 52.385418 17.158603 52.186338 17.6530209 51.987078 18.1476179 51.706638 18.5775582 51.344838 18.9429313 50.983128 19.308394 50.547438 19.5947821 50.037588 19.802006 49.527828 20.0092299 48.962358 20.1129313 48.341088 20.1129313 47.719818 20.1129313 47.153448 20.0092299 46.641798 19.802006 46.130148 19.5947821 45.692568 19.308394 45.328968 18.9429313 44.965278 18.5775582 44.684028 18.1476179 44.484858 17.6530209 44.285598 17.158603 44.186058 16.6241552 44.186058 16.0494985 44.186058 15.4750209 44.285598 14.9405731 44.484858 14.4459761 44.684028 13.9514687 44.965278 13.5224239 45.328968 13.1587522 45.692568 12.7951701 46.130148 12.5097672 46.641798 12.3024537 47.153448 12.0952299 47.719818 11.9916179 48.341088 11.9916179 48.962358 11.9916179 49.527828 12.0961254 50.037588 12.3051403 50.547438 12.5143343 50.983128 12.8007224 51.344838 13.1642149 51.706638 13.5278866 51.987078 13.9570209 52.186338 14.4514388 52.385418 14.9460358 52.485048 15.4786925 52.485048 16.0494985M56.55537 18.5692925C56.80386 18.5692925 57.02589 18.5284567 57.22137 18.4466955 57.41694 18.3648448 57.58227 18.2474418 57.71745 18.0948448 57.85263 17.9421582 57.95604 17.7558896 58.02723 17.5358597 58.09842 17.3158299 58.13406 17.0659791 58.13406 16.7858597L58.13406 12.0788149 59.9868 12.0788149 59.9868 16.7858597C59.9868 17.2730239 59.90742 17.7204269 59.74848 18.1274418 59.58936 18.5348149 59.36202 18.885591 59.06601 19.1802179 58.76991 19.4747552 58.40991 19.7038299 57.9861 19.8674418 57.56229 20.0310537 57.0852 20.1129045 56.55537 20.1129045 56.02185 20.1129045 55.54323 20.0310537 55.11933 19.8674418 54.69543 19.7038299 54.33543 19.4747552 54.03951 19.1802179 53.7435 18.885591 53.51679 18.5348149 53.35983 18.1274418 53.2026 17.7204269 53.12394 17.2730239 53.12394 16.7858597L53.12394 12.0788149 54.97668 12.0788149 54.97668 16.7803075C54.97668 17.0604269 55.01241 17.3103672 55.0836 17.5303075 55.15497 17.7503373 55.2582 17.9375015 55.39338 18.0921582 55.52856 18.2467254 55.69389 18.3648448 55.88946 18.4466955 56.08494 18.5284567 56.30688 18.5692925 56.55537 18.5692925M42.272703 26.671406C42.340203 26.8207791 42.405093 26.9735552 42.467193 27.1299134 42.529383 26.9698836 42.595083 26.8142418 42.664563 26.6631672 42.733953 26.5120925 42.805233 26.3655851 42.878313 26.2237343L44.928423 22.2051672C44.964963 22.1360328 45.002403 22.082391 45.040833 22.0441522 45.079173 22.006003 45.122103 21.9777045 45.169623 21.9595254 45.217053 21.9413463 45.270963 21.9321224 45.331353 21.9321224L45.542313 21.9321224 46.956573 21.9321224 46.956573 29.8735254 45.323073 29.8735254 45.323073 25.3028687C45.323073 25.0810478 45.334053 24.8411373 45.356103 24.5829582L43.240113 28.6680627C43.174413 28.7954955 43.085763 28.8916746 42.974253 28.9571373 42.862743 29.0226 42.735843 29.0552866 42.593373 29.0552866L42.341103 29.0552866C42.198723 29.0552866 42.071733 29.0226 41.960133 28.9571373 41.848623 28.8916746 41.760153 28.7954955 41.694273 28.6680627L39.567573 24.577406C39.582153 24.7048388 39.593223 24.8310179 39.600513 24.9565701 39.607803 25.0819433 39.611493 25.1973761 39.611493 25.3028687L39.611493 29.8735254 37.977993 29.8735254 37.977993 21.9321224 39.392253 21.9321224 39.603303 21.9321224C39.663513 21.9321224 39.717423 21.9413463 39.764943 21.9595254 39.812373 21.9777045 39.855483 22.006003 39.893823 22.0441522 39.932163 22.082391 39.969513 22.1360328 40.006053 22.2051672L42.061563 26.2400328C42.134733 26.3784806 42.205023 26.5221224 42.272703 26.671406M54.130644 25.8973612C54.130644 25.5046746 54.079524 25.1510328 53.977194 24.8365254 53.874864 24.522197 53.727804 24.2556896 53.535924 24.0375403 53.344044 23.8193015 53.109234 23.652197 52.831494 23.5356896 52.553754 23.4193612 52.237674 23.3611522 51.883254 23.3611522 51.525054 23.3611522 51.206274 23.4193612 50.926734 23.5356896 50.647194 23.652197 50.411484 23.8193015 50.219694 24.0375403 50.027724 24.2556896 49.880664 24.522197 49.778424 24.8365254 49.676094 25.1510328 49.624974 25.5046746 49.624974 25.8973612 49.624974 26.2937194 49.676094 26.6492418 49.778424 26.9636597 49.880664 27.2782567 50.027724 27.5445851 50.219694 27.7627343 50.411484 27.9808836 50.647194 28.1472716 50.926734 28.261809 51.206274 28.3763463 51.525054 28.4335701 51.883254 28.4335701 52.237674 28.4335701 52.553754 28.3763463 52.831494 28.261809 53.109234 28.1472716 53.344044 27.9808836 53.535924 27.7627343 53.727804 27.5445851 53.874864 27.2782567 53.977194 26.9636597 54.079524 26.6492418 54.130644 26.2937194 54.130644 25.8973612M56.027214 25.8973612C56.027214 26.4720179 55.927674 27.0064657 55.728504 27.5008836 55.529244 27.9954806 55.248804 28.4254209 54.887004 28.790794 54.525294 29.1562567 54.089604 29.4426448 53.579754 29.6498687 53.069994 29.8570925 52.504524 29.960794 51.883254 29.960794 51.262074 29.960794 50.695704 29.8570925 50.183964 29.6498687 49.672314 29.4426448 49.234734 29.1562567 48.871224 28.790794 48.507534 28.4254209 48.226194 27.9954806 48.027114 27.5008836 47.827854 27.0064657 47.728314 26.4720179 47.728314 25.8973612 47.728314 25.3228836 47.827854 24.7884358 48.027114 24.2938388 48.226194 23.7993313 48.507534 23.3702866 48.871224 23.0066149 49.234734 22.6430328 49.672314 22.3575403 50.183964 22.150406 50.695704 21.9431821 51.262074 21.8394806 51.883254 21.8394806 52.504524 21.8394806 53.069994 21.9439881 53.579754 22.153003 54.089604 22.362197 54.525294 22.6485851 54.887004 23.0120776 55.248804 23.3757493 55.529244 23.8048836 55.728504 24.2993015 55.927674 24.7938985 56.027214 25.3265552 56.027214 25.8973612M55.591911 21.9267134L57.082761 21.9267134C57.243591 21.9267134 57.375081 21.9630716 57.477411 22.0357881 57.579741 22.1085045 57.652911 22.2047731 57.696831 22.3247731L59.242491 26.5791313C59.311881 26.764594 59.382171 26.9662657 59.453631 27.184594 59.524821 27.4027433 59.591421 27.6318179 59.653611 27.8718179 59.704731 27.6318179 59.764041 27.4027433 59.831721 27.184594 59.899401 26.9662657 59.966091 26.764594 60.031881 26.5791313L61.566741 22.3247731C61.603101 22.2230418 61.674381 22.1313403 61.780401 22.0494896 61.886331 21.9676388 62.016201 21.9267134 62.169651 21.9267134L63.671571 21.9267134 60.470361 29.8734896 58.793121 29.8734896 55.591911 21.9267134z"/>
    <polygon points="69.21 21.927 69.21 23.345 65.932 23.345 65.932 25.199 68.443 25.199 68.443 26.563 65.932 26.563 65.932 28.455 69.21 28.455 69.21 29.873 64.069 29.873 64.069 21.927"/>
    <path d="M70.07058,29.0170836 C70.07058,28.8863373 70.09515,28.7646358 70.14456,28.6517104 C70.19379,28.5390537 70.26147,28.4408149 70.34724,28.3572627 C70.43319,28.2736209 70.53462,28.2071731 70.65153,28.1580985 C70.76853,28.1089343 70.89642,28.0845761 71.03529,28.0845761 C71.17047,28.0845761 71.29656,28.1089343 71.41356,28.1580985 C71.53047,28.2071731 71.63271,28.2736209 71.72046,28.3572627 C71.80821,28.4408149 71.8767,28.5390537 71.92593,28.6517104 C71.97534,28.7646358 72,28.8863373 72,29.0170836 C72,29.1480985 71.97534,29.2708746 71.92593,29.3853224 C71.8767,29.4999493 71.80821,29.598994 71.72046,29.6826358 C71.63271,29.7661881 71.53047,29.8318299 71.41356,29.8789343 C71.29656,29.9261284 71.17047,29.9498597 71.03529,29.9498597 C70.89642,29.9498597 70.76853,29.9261284 70.65153,29.8789343 C70.53462,29.8318299 70.43319,29.7661881 70.34724,29.6826358 C70.26147,29.598994 70.19379,29.4999493 70.14456,29.3853224 C70.09515,29.2708746 70.07058,29.1480985 70.07058,29.0170836"/>
  </g>
</svg>
