<svg xmlns="http://www.w3.org/2000/svg" xmlns:xlink="http://www.w3.org/1999/xlink" width="89" height="20" viewBox="0 0 89 20">
  <defs>
    <polygon id="logo_myvitae-a" points="0 19.989 88.913 19.989 88.913 0 0 0"/>
  </defs>
  <g fill="none" fill-rule="evenodd">
    <path fill="#8D9697" d="M15.6321526 10.156115C17.0188068 9.36885841 17.4938634 7.62523009 16.6933133 6.26160177 15.8927633 4.89797345 14.1196025 4.43080531 12.7330383 5.21806195 11.3463841 6.00531858 10.8713275 7.7489469 11.6718776 9.11257522 12.4725176 10.4762035 14.2455884 10.9433717 15.6321526 10.156115zM9.96962882 12.5480619C11.009642 11.9576195 11.3660019 10.6499204 10.7654994 9.62717699 10.1650869 8.60452212 8.83530627 8.25407965 7.79529312 8.84452212 6.75527998 9.4350531 6.39901001 10.7427522 6.99942255 11.7654071 7.59983509 12.7881504 8.92970566 13.1385044 9.96962882 12.5480619zM5.58073195 14.217C6.27401405 13.8232832 6.51149737 12.9515133 6.11122235 12.2697434 5.71094732 11.587885 4.82436694 11.3543451 4.13108483 11.7479735 3.43780273 12.1416018 3.20031941 13.0134602 3.60059444 13.6952301 4.00077947 14.377 4.88735986 14.6106283 5.58073195 14.217zM10.1469089.00000884955752C15.7508492.00000884955752 20.2938988 4.46744248 20.2938988 9.97841593 20.2938988 15.4893894 15.7508492 19.956823 10.1469089 19.956823 4.54287856 19.956823.00000899898888 15.4893894.00000899898888 9.97841593.00000899898888 4.46744248 4.54287856.00000884955752 10.1469089.00000884955752zM76.4524038 12.2057699C76.4524038 13.4363894 76.2533462 14.5058584 74.5785444 14.5058584 73.6214119 14.5058584 73.1948599 14.0155929 73.1948599 13.3458584 73.1948599 12.4411681 73.7838437 11.9524956 75.3850338 11.9524956L76.4524038 11.9524956 76.4524038 12.2057699zM79.0294443 13.7986018L79.0294443 9.87063717C79.0294443 7.62647788 77.6303715 6.64922124 75.0904969 6.63081416 72.1823836 6.63081416 71.1334615 7.97037168 71.004416 9.63568142L73.5075747 9.63568142C73.6180823 8.94762832 73.8758133 8.49523894 74.9799893 8.49523894 76.2133007 8.49523894 76.4524038 9.14665487 76.4524038 9.81638938L76.4524038 10.3776283 75.0904969 10.3776283C72.2928912 10.3776283 70.5627456 11.373292 70.5627456 13.5089558 70.5627456 14.9569204 71.519968 16.4408142 73.8204696 16.4408142 75.5138093 16.4408142 76.1579569 15.8257699 76.5077476 15.3008142 76.5077476 15.5361239 76.5630014 16.0427611 76.6366131 16.223823L79.1581298 16.223823C79.102786 16.0068319 79.0294443 14.703292 79.0294443 13.7986018L79.0294443 13.7986018zM82.636221 10.5045221C82.7465486 9.34611504 83.2619207 8.49523009 84.5134101 8.49523009 85.8019753 8.49523009 86.2436457 9.41832743 86.2620936 10.5045221L82.636221 10.5045221zM88.9124758 11.3007168C88.9124758 8.96593805 87.789762 6.63089381 84.531858 6.63089381 81.4582534 6.63089381 79.930675 8.73062832 79.930675 11.6808053 79.930675 14.1423982 81.292582 16.4408938 84.4398884 16.4408938 87.4216133 16.4408938 88.4708055 14.5588584 88.8019683 13.4184159L86.170124 13.4184159C85.9122129 13.9796549 85.5993181 14.4136372 84.4952322 14.4136372 83.188309 14.4136372 82.5810572 13.2736372 82.5810572 12.0969115L88.87558 12.0969115C88.9124758 11.8256726 88.9124758 11.626646 88.9124758 11.3007168L88.9124758 11.3007168zM31.1728124 12.9477434L31.1543645 12.9477434C30.7677679 11.1016372 29.663592 7.0110177 28.6697437 3.7530531L24.5835728 3.7530531 24.5835728 16.2238496 27.0867315 16.2238496 27.0867315 11.7530531C27.0867315 9.61738938 27.0314778 8.24641593 26.9212401 6.78022124L27.0132098 6.78022124C27.5652978 9.27792035 28.8721309 12.8029646 29.8109055 16.2238496L32.1483028 16.2238496C33.3629863 12.314292 34.6330137 9.36845133 35.2219975 6.81632743L35.3140571 6.81632743C35.2588933 8.22836283 35.2219975 9.41836283 35.2219975 11.5360619L35.2219975 16.2238496 37.8722897 16.2238496 37.8722897 3.7530531 33.9337022 3.7530531C32.8660622 6.93880531 31.4857973 11.3186283 31.1728124 12.9477434M55.0267202 9.54515929C54.4195584 11.3186991 53.9225443 12.4395841 53.6648132 13.6158673L53.6281874 13.6158673C53.3337404 12.331 52.910158 11.2464867 52.3212642 9.50887611L50.4439851 3.7530354 47.499156 3.7530354 51.9715635 16.2238319 55.2109295 16.2238319 59.8123825 3.7530354 57.0147768 3.7530354 55.0267202 9.54515929z"/>
    <polyline fill="#8D9697" points="63.108 6.07 63.108 3.753 60.458 3.753 60.458 6.07"/>
    <mask id="logo_myvitae-b" fill="#fff">
      <use xlink:href="#logo_myvitae-a"/>
    </mask>
    <polygon fill="#8D9697" points="60.458 16.224 63.108 16.224 63.108 6.848 60.458 6.848" mask="url(#logo_myvitae-b)"/>
    <path fill="#8D9697" d="M68.1881824 4.91145133L65.5560681 4.91145133 65.5560681 6.84826549 64.0836536 6.84826549 64.0836536 8.80286726 65.5560681 8.80286726 65.5560681 13.7259646C65.5560681 15.3729558 66.1634999 16.3506549 68.022421 16.3506549 68.5562411 16.3506549 69.1879701 16.2839292 69.7893725 16.2159646L69.7892825 14.4129558C69.6011137 14.4129558 69.3477021 14.4136637 69.2003887 14.4136637 68.4090176 14.4136637 68.1881824 14.1424248 68.1881824 13.4364071L68.1881824 8.80286726 69.7960317 8.80286726 69.7960317 6.84826549 68.1881824 6.84826549 68.1881824 4.91145133zM45.2160675 6.84824779C44.0934437 10.7940885 43.5228178 12.663469 43.3203405 13.6044425L43.3018926 13.6044425C43.1546692 12.7356814 42.2895964 10.0880708 41.314106 6.84824779L38.4797844 6.84824779 41.9582536 16.513469C41.5991039 17.5203717 41.1331363 17.7001062 40.2037207 17.7155044L40.0521778 17.7155044 39.4550948 17.7155044 39.4550948 19.9160354 39.4550948 19.9886018 40.6884063 19.9886018 40.7826257 19.9886018 40.7826257 19.9875398C42.9913375 19.9652389 43.7562516 19.154531 44.6455316 16.4955044L47.8479118 6.84824779 45.2160675 6.84824779z" mask="url(#logo_myvitae-b)"/>
  </g>
</svg>
