<svg xmlns="http://www.w3.org/2000/svg" xmlns:xlink="http://www.w3.org/1999/xlink" width="90" height="22" viewBox="0 0 90 22">
  <defs>
    <polygon id="logo_wagonex-a" points="0 .089 0 16.415 19.149 16.415 19.149 .089 0 .089"/>
    <polygon id="logo_wagonex-c" points=".043 17.926 10.977 17.926 10.977 .059 .043 .059"/>
    <polygon id="logo_wagonex-e" points="10.17 12.16 10.17 .022 .068 .022 .068 12.16 10.17 12.16"/>
  </defs>
  <g fill="none" fill-rule="evenodd">
    <g transform="translate(0 .001)">
      <mask id="logo_wagonex-b" fill="#fff">
        <use xlink:href="#logo_wagonex-a"/>
      </mask>
      <path fill="#8D9697" d="M14.664303,16.4153407 L13.731813,16.4153407 L10.168443,3.81911852 C9.872253,2.78439424 9.650223,1.93571934 9.502443,1.27309383 C9.383823,1.92069053 9.215523,2.66525021 8.997273,3.50650123 C8.778753,4.34775226 7.585533,8.65069877 5.417253,16.4153407 L4.462533,16.4153407 L-2.69999968e-05,0.0894395062 L1.187793,0.0894395062 L4.029633,10.6085177 C4.140603,11.0329457 4.244103,11.4256864 4.340493,11.7867399 C4.436523,12.1477934 4.523643,12.4864848 4.601313,12.8029045 C4.679073,13.1194148 4.749183,13.4245177 4.812183,13.7185753 C4.875003,14.0127235 4.932333,14.3085918 4.984263,14.6063613 C5.161923,13.5939086 5.539293,12.0565342 6.116553,9.99441893 L8.891793,0.0894395062 L10.146213,0.0894395062 L13.398723,11.4572831 C13.776183,12.7675959 14.046183,13.8246823 14.209083,14.6287235 C14.305293,14.0926658 14.429223,13.5232008 14.580963,12.9201473 C14.732703,12.3170938 15.874263,8.0402214 18.005643,0.0894395062 L19.149003,0.0894395062 L14.664303,16.4153407 Z" mask="url(#logo_wagonex-b)"/>
    </g>
    <path fill="#8D9697" d="M23.325831,15.6348568 C24.613551,15.6348568 25.629291,15.2645687 26.372961,14.5238115 C27.116811,13.7830543 27.488691,12.7538527 27.488691,11.436116 L27.488691,10.2412354 L25.379451,10.3305934 C23.684571,10.4125276 22.476591,10.6787004 21.755061,11.1290214 C21.033531,11.5795235 20.672721,12.281079 20.672721,13.2339597 C20.672721,13.9932765 20.903841,14.5833835 21.366531,15.0039185 C21.828951,15.4246346 22.482171,15.6348568 23.325831,15.6348568 L23.325831,15.6348568 Z M27.766251,16.4165358 L27.488691,14.4958362 L27.399951,14.4958362 C26.792811,15.2775152 26.169471,15.8302313 25.529301,16.1540749 C24.889041,16.4780091 24.132411,16.6398856 23.259231,16.6398856 C22.075011,16.6398856 21.153591,16.3346016 20.495151,15.7241243 C19.836441,15.113828 19.507131,14.2687745 19.507131,13.1893259 C19.507131,12.0055811 19.997361,11.0862889 20.978001,10.4310872 C21.958461,9.77606667 23.377581,9.42986091 25.235181,9.39256049 L27.533061,9.32565514 L27.533061,8.52161399 C27.533061,7.36774568 27.299961,6.49661811 26.833761,5.90850288 C26.367471,5.32047819 25.616151,5.02633004 24.580251,5.02633004 C23.462631,5.02633004 22.304511,5.33894733 21.105711,5.96436296 L20.694951,5.0039679 C22.019481,4.3786428 23.329431,4.06602551 24.624711,4.06602551 C25.949151,4.06602551 26.939151,4.41214074 27.594171,5.10446173 C28.249101,5.79687325 28.576611,6.87632181 28.576611,8.34289794 L28.576611,16.4165358 L27.766251,16.4165358 Z"/>
    <g transform="translate(30.42 3.985)">
      <mask id="logo_wagonex-d" fill="#fff">
        <use xlink:href="#logo_wagonex-c"/>
      </mask>
      <path fill="#8D9697" d="M2.130039,4.07897202 C2.130039,5.01700494 2.413179,5.7447251 2.979279,6.26213251 C3.545379,6.77963045 4.302009,7.03828889 5.249349,7.03828889 C6.255819,7.03828889 7.027299,6.78144115 7.563879,6.26774568 C8.100549,5.75405021 8.368659,5.00958107 8.368659,4.03433827 C8.368659,2.99961399 8.092989,2.22354815 7.541739,1.70605021 C6.990399,1.1886428 6.218919,0.929984362 5.227119,0.929984362 C4.265199,0.929984362 3.508299,1.207293 2.956959,1.76181975 C2.405709,2.31652757 2.130039,3.08888148 2.130039,4.07897202 L2.130039,4.07897202 Z M1.208709,14.4865111 C1.208709,16.1540749 2.440809,16.9879021 4.905279,16.9879021 C8.072739,16.9879021 9.656469,15.9716469 9.656469,13.9393177 C9.656469,13.2097868 9.408429,12.6812436 8.912619,12.3535975 C8.416899,12.0261325 7.613919,11.8623547 6.503769,11.8623547 L4.527819,11.8623547 C2.314989,11.8623547 1.208709,12.7370132 1.208709,14.4865111 L1.208709,14.4865111 Z M10.977489,0.293432922 L10.977489,1.0638856 L8.479719,1.22033004 C9.145809,2.0541572 9.478809,2.96982798 9.478809,3.96734239 C9.478809,5.13614897 9.091989,6.083507 8.318799,6.80923539 C7.545519,7.53514486 6.507549,7.89809959 5.204979,7.89809959 C4.657239,7.89809959 4.272489,7.87573745 4.050459,7.83101317 C3.613689,8.06187737 3.280689,8.33357284 3.051369,8.64619012 C2.822049,8.95889794 2.707299,9.29025597 2.707299,9.64008313 C2.707299,10.0272107 2.853369,10.3101325 3.145779,10.488758 C3.438099,10.6673835 3.928329,10.7568321 4.616649,10.7568321 L6.725709,10.7568321 C8.035659,10.7568321 9.038529,11.0230049 9.734139,11.5551695 C10.429749,12.0875152 10.777599,12.8746263 10.777599,13.9170461 C10.777599,15.1974823 10.261449,16.1856716 9.229059,16.8817951 C8.196669,17.5779185 6.725709,17.925935 4.816449,17.925935 C3.299409,17.925935 2.124459,17.6317868 1.291869,17.0437621 C0.459369,16.4555564 0.043119,15.6366675 0.043119,14.5870049 C0.043119,13.7531778 0.300159,13.0608568 0.814599,12.5099514 C1.329039,11.9591366 2.026359,11.5831449 2.907099,11.3821572 C2.544489,11.2258033 2.253879,11.0043547 2.035629,10.717721 C1.817379,10.4311778 1.708209,10.101721 1.708209,9.72944115 C1.708209,8.91806667 2.222559,8.20338354 3.251169,7.58539177 C2.548089,7.29504609 2.000619,6.83911193 1.608309,6.21740823 C1.215999,5.5958856 1.019889,4.88301317 1.019889,4.07897202 C1.019889,2.86562222 1.402929,1.89219012 2.168919,1.15885679 C2.934819,0.425613992 3.969009,0.0589473251 5.271579,0.0589473251 C6.063489,0.0589473251 6.677559,0.137079012 7.114329,0.293432922 L10.977489,0.293432922 Z" mask="url(#logo_wagonex-d)"/>
    </g>
    <path fill="#8D9697" d="M64.835604 16.4165177L64.835604 8.54386749C64.835604 7.32309383 64.580274 6.43521728 64.069614 5.8806 63.558954 5.32607325 62.767134 5.04867407 61.694064 5.04867407 60.251004 5.04867407 59.194314 5.41534074 58.524804 6.14858354 57.854934 6.88200741 57.520134 8.07118436 57.520134 9.71638601L57.520134 16.4165177 56.421144 16.4165177 56.421144 4.27813086 57.353634 4.27813086 57.564504 5.94207325 57.631104 5.94207325C58.415544 4.67648477 59.810454 4.04364527 61.816194 4.04364527 64.554354 4.04364527 65.923524 5.52144774 65.923524 8.47696214L65.923524 16.4165177 64.835604 16.4165177zM73.882188 5.02634815C72.720108 5.02634815 71.787708 5.41157449 71.084718 6.1821177 70.381548 6.95257037 69.970878 8.06370617 69.852618 9.51543457L77.312358 9.51543457C77.312358 8.10843045 77.008788 7.00852099 76.402098 6.21561564 75.795048 5.42280082 74.955168 5.02634815 73.882188 5.02634815M74.204118 16.6398132C72.450198 16.6398132 71.082828 16.0964222 70.102368 15.0095498 69.121638 13.9226774 68.631408 12.4002412 68.631408 10.4422412 68.631408 8.50669383 69.104988 6.95637284 70.052328 5.79127819 70.999488 4.62618354 72.276048 4.04368148 73.882188 4.04368148 75.303108 4.04368148 76.424238 4.54243868 77.245758 5.54004362 78.067188 6.53764856 78.477858 7.89250453 78.477858 9.60470206L78.477858 10.4981012 69.785928 10.4981012C69.800598 12.1657556 70.187328 13.4387679 70.946028 14.3171383 71.704458 15.1956897 72.790488 15.6348749 74.204118 15.6348749 74.892348 15.6348749 75.497328 15.5865292 76.019058 15.4896568 76.540878 15.3929654 77.201388 15.1844634 78.000588 14.8643317L78.000588 15.8693605C77.319648 16.1672206 76.690728 16.3701095 76.113468 16.4779366 75.536208 16.5858543 74.899728 16.6398132 74.204118 16.6398132"/>
    <g transform="translate(79.83 4.256)">
      <mask id="logo_wagonex-f" fill="#fff">
        <use xlink:href="#logo_wagonex-e"/>
      </mask>
      <polygon fill="#8D9697" points="4.442 5.918 .235 .022 1.5 .022 5.097 5.136 8.66 .022 9.87 .022 5.73 5.918 10.17 12.16 8.893 12.16 5.097 6.744 1.278 12.16 .068 12.16" mask="url(#logo_wagonex-f)"/>
    </g>
    <path fill="#8D9697" d="M48.249675,9.51817778 C47.669535,9.51817778 47.197395,9.99312428 47.197395,10.5768938 C47.197395,11.1606634 47.669535,11.6355193 48.249675,11.6355193 C48.830085,11.6355193 49.302135,11.1606634 49.302135,10.5768938 C49.302135,9.99312428 48.830085,9.51817778 48.249675,9.51817778 M48.249675,12.5502848 C47.167965,12.5502848 46.287945,11.6650337 46.287945,10.5768938 C46.287945,9.48875391 47.167965,8.60341235 48.249675,8.60341235 C49.331565,8.60341235 50.211585,9.48875391 50.211585,10.5768938 C50.211585,11.6650337 49.331565,12.5502848 48.249675,12.5502848"/>
    <path fill="#8D9697" d="M44.799885,11.0766288 C44.548785,11.0766288 44.345205,10.8718387 44.345205,10.6192461 C44.345205,8.3851144 46.152045,6.56744362 48.373065,6.56744362 C48.624165,6.56744362 48.827745,6.77223374 48.827745,7.02482634 C48.827745,7.27741893 48.624165,7.48229959 48.373065,7.48229959 C46.653525,7.48229959 45.254655,8.88948477 45.254655,10.6192461 C45.254655,10.8718387 45.050985,11.0766288 44.799885,11.0766288"/>
    <path fill="#8D9697" d="M42.719778 11.4564502C42.485418 11.4564502 42.286338 11.2751086 42.267168 11.0358247 42.254118 10.8730428 42.247458 10.70673 42.247458 10.5415942 42.247458 7.18663951 44.960688 4.45719095 48.295818 4.45719095 48.546918 4.45719095 48.750498 4.6620716 48.750498 4.9146642 48.750498 5.16725679 48.546918 5.37204691 48.295818 5.37204691 45.462168 5.37204691 43.156818 7.69110041 43.156818 10.5415942 43.156818 10.6822856 43.162488 10.8238823 43.173648 10.9622198 43.193898 11.2139975 43.007148 11.4347218 42.756858 11.4549111 42.744438 11.4559975 42.732198 11.4564502 42.719778 11.4564502M48.249675 14.4881407C47.998575 14.4881407 47.794995 14.2833506 47.794995 14.030758 47.794995 13.7781654 47.998575 13.5733753 48.249675 13.5733753 49.969215 13.5733753 51.368175 12.1660996 51.368175 10.4364288 51.368175 10.1838362 51.571755 9.97895556 51.822855 9.97895556 52.073955 9.97895556 52.277535 10.1838362 52.277535 10.4364288 52.277535 12.6705605 50.470695 14.4881407 48.249675 14.4881407"/>
    <path fill="#8D9697" d="M48.327021,16.5982938 C48.075921,16.5982938 47.872251,16.3935037 47.872251,16.1409111 C47.872251,15.8883185 48.075921,15.6835284 48.327021,15.6835284 C51.160581,15.6835284 53.465931,13.3644749 53.465931,10.5139811 C53.465931,10.3732897 53.460261,10.2317835 53.449101,10.0933556 C53.428941,9.84148724 53.615601,9.62094403 53.865891,9.6006642 C54.115821,9.57975062 54.335511,9.76797284 54.355581,10.0197506 C54.368631,10.182623 54.375291,10.3488453 54.375291,10.5139811 C54.375291,13.8689358 51.662061,16.5982938 48.327021,16.5982938"/>
  </g>
</svg>
