<svg xmlns="http://www.w3.org/2000/svg" width="111" height="22" viewBox="0 0 111 22">
  <g fill="#8D9697" fill-rule="evenodd">
    <path d="M67.9245144 9.36385372C68.2548371 9.36385372 68.5358218 9.23476355 68.7674767 8.97657934 68.9991316 8.71839513 69.1149573 8.40878862 69.1149573 8.04775054L69.1020877 4.86139547 71.9141068 8.14850485C71.9398463 8.18208979 71.9934693 8.25660525 72.0749775 8.37205348 72.1564857 8.4875017 72.2165435 8.57041327 72.2551526 8.62079068 72.2937618 8.67116809 72.3516746 8.74358452 72.428893 8.83804216 72.5061113 8.9324998 72.5736763 9.00386672 72.63159 9.05214507 72.6895037 9.10042342 72.7581412 9.1528991 72.8375044 9.20957368 72.9168677 9.26624826 72.9962298 9.30612978 73.075593 9.32921942 73.1549563 9.35230907 73.2375357 9.36385372 73.3233338 9.36385372 73.6021777 9.36385372 73.8542059 9.26519944 74.0794259 9.06788793 74.304646 8.87057642 74.4172543 8.63128733 74.4172543 8.35001347 74.4172543 8.06034338 74.2113419 7.63424087 73.799511 7.07169316L71.5923655 4.57172683 73.65151 2.40550916C74.0547611 1.88494262 74.2563837 1.49032552 74.2563837 1.22164601 74.2563837.93617404 74.1502101.694785918 73.9378598.497474407 73.7255094.300162896 73.4820609.201508621 73.207507.201508621 73.0959694.201508621 72.9919408.221449379 72.8954179.261331492 72.798895.301213606 72.6980837.372580529 72.592981.475434402 72.4878783.578288275 72.403154.667496928 72.3388054.743063039 72.2744568.818629149 72.1757904.942471751 72.0428034 1.11459456L69.1020877 4.35132678 69.1149573 1.51131466C69.1149573 1.15447469 68.9969867.845917699 68.7610418.585634429 68.525097.325351159 68.2462573.195211476 67.9245144.195211476 67.5984816.195211476 67.3207143.324301646 67.0912044.582485857 66.8616944.840670068 66.7469412 1.15027657 66.7469412 1.51131466L66.7469412 8.04775054C66.7469412 8.40878862 66.8616944 8.71839513 67.0912044 8.97657934 67.3207143 9.23476355 67.5984816 9.36385372 67.9245144 9.36385372L67.9245144 9.36385372zM77.3460196 9.36385372C77.6205736 9.36385372 77.8575873 9.26100139 78.0570679 9.05529364 78.2565486 8.8495859 78.3562874 8.60399972 78.3562874 8.31852775L78.3562874 3.36267511 82.1978788 8.29333917C82.4424034 8.63338667 82.6783447 8.89681457 82.9057097 9.08363079 83.1330747 9.27044701 83.3711609 9.36385372 83.6199754 9.36385372 83.8559203 9.36385372 84.053253 9.31347707 84.2119795 9.21272225 84.370706 9.11196744 84.4886766 8.96608505 84.5658949 8.77507072 84.6431132 8.58405638 84.6956638 8.38674783 84.7235482 8.18313914 84.7514326 7.97953046 84.7653746 7.73919185 84.7653746 7.46211611L84.7653746 1.24053745C84.7653746.955065473 84.6667082.709479297 84.4693725.503771552 84.2720369.298063806 84.0339507.195211476 83.7551068.195211476 83.4762629.195211476 83.2403216.298063806 83.0472759.503771552 82.8542301.709479297 82.7577087.955065473 82.7577087 1.24053745L82.7577087 6.11452721 78.9482914 1.27832031C78.4592422.560442262 77.9809248.199409594 77.5133251.195211476 77.1787125.195211476 76.8998728.314856023 76.6767977.554148707 76.4537226.79344139 76.3421867 1.12088962 76.3421867 1.53650323L76.3421867 8.31852775C76.3421867 8.60399972 76.4397806 8.8495859 76.6349713 9.05529364 76.830162 9.26100139 77.0671757 9.36385372 77.3460196 9.36385372L77.3460196 9.36385372zM91.4585133 9.6031452C92.9728501 9.6031452 94.1171653 9.20223102 94.8914933 8.40039062 95.6658213 7.59855023 96.0529795 6.40000573 96.0529795 4.80472117 96.0529795 3.2052385 95.6658213 2.00459498 94.8914933 1.20275458 94.1171653.400914184 92.9728501 0 91.4585133 0 89.9398867 0 88.7934266.400914184 88.0190986 1.20275458 87.2447706 2.00459498 86.8576124 3.2052385 86.8576124 4.80472117 86.8576124 6.40000573 87.2447706 7.59855023 88.0190986 8.40039062 88.7934266 9.20223102 89.9398867 9.6031452 91.4585133 9.6031452L91.4585133 9.6031452zM91.4585133 7.90921336C90.6992 7.90921336 90.1576075 7.67622135 89.8337196 7.21023033 89.5098318 6.74423932 89.3478902 5.94241095 89.3478902 4.80472117 89.3478902 4.02806948 89.4208176 3.41305453 89.5666743 2.95965787 89.7125311 2.5062612 89.9366754 2.180912 90.2391137 1.98360048 90.5415521 1.78628897 90.9480146 1.6876347 91.4585133 1.6876347 92.2221166 1.6876347 92.765854 1.92062671 93.0897419 2.38661773 93.4136297 2.85260874 93.5755713 3.65863516 93.5755713 4.80472117 93.5755713 5.94241095 93.4136297 6.74423932 93.0897419 7.21023033 92.765854 7.67622135 92.2221166 7.90921336 91.4585133 7.90921336L91.4585133 7.90921336zM109.193814 8.34371633L110.84113 1.49872037C110.939798 1.05371994 110.841131.686390188 110.545128.396720097 110.249124.107050006 109.909155.0251879479 109.525208.151131466 109.141261.277074983 108.893523.619216407 108.781985 1.177566L107.469281 7.00242457 105.957097 2.14102909C105.871299 1.8261703 105.786574 1.56379191 105.702921 1.35388605 105.619268 1.14398018 105.512022.944572604 105.38118.755657328 105.250338.566742051 105.089469.427156746 104.898568.336897225 104.707667.246637704 104.483523.201508621 104.226128.201508621 103.968734.201508621 103.74459.246637704 103.553689.336897225 103.362788.427156746 103.201919.565692538 103.071077.752508755 102.940235.939324973 102.831916 1.13873255 102.746118 1.35073747 102.66032 1.56274239 102.576668 1.8261703 102.49516 2.14102909L100.976541 7.00242457 99.6702712 1.177566C99.5587336.619216407 99.3109953.277074983 98.9270487.151131466 98.5431021.0251879479 98.2020597.107050006 97.9039113.396720097 97.6057628.686390188 97.506024 1.05371994 97.6046919 1.49872037L99.2520074 8.34371633C99.3034863 8.57041466 99.4085874 8.76982224 99.5673139 8.94194504 99.7260405 9.11406785 99.9105036 9.24420753 100.120709 9.332368 100.330914 9.42052846 100.557204 9.46355851 100.799583 9.46145946 101.041963 9.4593604 101.272542 9.4131818 101.491327 9.32292228 101.710112 9.23266276 101.910662 9.08048329 102.092983 8.86637931 102.275304 8.65227533 102.409362 8.38989694 102.49516 8.07923626L104.226128 2.32994343 105.950662 8.07923626C106.03646 8.38989694 106.170517 8.65227533 106.352838 8.86637931 106.535159 9.08048329 106.73571 9.23266276 106.954495 9.32292228 107.17328 9.4131818 107.404931 9.4593604 107.649456 9.46145946 107.893981 9.46355851 108.12027 9.42052846 108.32833 9.332368 108.536391 9.24420753 108.719781 9.11406785 108.878508 8.94194504 109.037234 8.76982224 109.142336 8.57041466 109.193814 8.34371633L109.193814 8.34371633zM69.0055653 15.5165342L69.0055653 13.0165679 69.9643544 13.0165679C70.2389084 13.0165679 70.478067 13.0333601 70.6818376 13.066945 70.8856081 13.10053 71.076506 13.1614018 71.2545371 13.2495622 71.4325682 13.3377227 71.5676982 13.4657633 71.6599312 13.633688 71.7521642 13.8016127 71.79828 14.0094164 71.79828 14.2571053 71.79828 14.5047943 71.7510917 14.7136475 71.6567138 14.8836712 71.5623358 15.053695 71.422916 15.1838346 71.23845 15.2740942 71.0539841 15.3643537 70.8502166 15.4273245 70.6271415 15.4630085 70.4040664 15.4986925 70.1380963 15.5165342 69.829223 15.5165342L69.0055653 15.5165342zM69.0055653 19.3074151L69.0055653 16.6374259 69.8742668 16.6374259C70.5821013 16.6374259 71.1204764 16.7339812 71.4894083 16.9270946 71.8583402 17.120208 72.0428034 17.4560523 72.0428034 17.9346377 72.0428034 18.2159115 71.9999049 18.447854 71.9141068 18.6304721 71.8283087 18.8130902 71.6910338 18.953725 71.5022779 19.0523808 71.3135221 19.1510365 71.09903 19.2182054 70.8587953 19.2538894 70.6185606 19.2895734 70.3139818 19.3074151 69.9450499 19.3074151L69.0055653 19.3074151zM68.2205164 20.7431641L71.1097535 20.7431641C71.6502816 20.7431641 72.1339613 20.6717971 72.5608069 20.5290612 72.9876525 20.3863252 73.3286949 20.1932147 73.5839443 19.9497239 73.8391937 19.7062331 74.033309 19.4344091 74.1662961 19.1342437 74.2992832 18.8340783 74.3657757 18.5181747 74.3657757 18.1865234 74.3657757 17.6197776 74.1748778 17.1328033 73.7930762 16.7255859 73.4112746 16.3183686 72.9029283 16.0685843 72.2680223 15.9762258L72.2680223 15.9510372C72.7871009 15.8628767 73.2096503 15.6214886 73.5356831 15.2268656 73.8617159 14.8322425 74.0247299 14.3893478 74.0247299 13.8981681 74.0247299 13.6462811 73.9979184 13.4164376 73.9442946 13.2086308 73.8906708 13.000824 73.8263231 12.8213572 73.7512498 12.6702249 73.6761764 12.5190927 73.565713 12.3837055 73.4198562 12.2640591 73.2739994 12.1444128 73.1420868 12.046808 73.0241144 11.9712419 72.906142 11.8956758 72.7399106 11.8316555 72.5254153 11.779179 72.3109201 11.7267025 72.1350366 11.6878705 71.9977596 11.6626818 71.8604826 11.6374931 71.6642223 11.6186019 71.408973 11.6060075 71.1537236 11.5934132 70.9617532 11.5860666 70.833056 11.5839675 70.7043588 11.5818685 70.5070261 11.580819 70.2410519 11.580819L70.0608768 11.580819 68.2205164 11.580819C67.7872359 11.580819 67.4322516 11.6752752 67.1555526 11.8641905 66.8788537 12.0531057 66.7405063 12.3490686 66.7405063 12.7520878L66.7405063 18.9610722C66.7405063 19.347299 66.7705352 19.6611035 66.8305939 19.9024953 66.8906526 20.143887 66.9893189 20.3254529 67.1265959 20.4471983 67.2638729 20.5689437 67.4140174 20.6487067 67.5770338 20.6864898 67.7400502 20.7242728 67.9545423 20.7431641 68.2205164 20.7431641L68.2205164 20.7431641zM77.5261948 20.7431641L82.1592698 20.7431641C82.3909247 20.7431641 82.587185 20.6623515 82.7480565 20.500724 82.9089279 20.3390965 82.9893625 20.1386394 82.9893625 19.8993467 82.9893625 19.660054 82.9089279 19.4585474 82.7480565 19.2948209 82.587185 19.1310943 82.3909247 19.0492322 82.1592698 19.0492322L78.6780287 19.0492322 78.6780287 16.9396888 81.708832 16.9396888C81.9576465 16.9396888 82.1689212 16.8588763 82.3426624 16.6972488 82.5164036 16.5356213 82.6032729 16.3351642 82.6032729 16.0958715 82.6032729 15.8565788 82.5164036 15.6540227 82.3426624 15.4881971 82.1689212 15.3223714 81.9576465 15.2394599 81.708832 15.2394599L78.6780287 15.2394599 78.6780287 13.281048 81.9983992 13.281048C82.2472137 13.281048 82.4584884 13.2002354 82.6322296 13.0386079 82.8059708 12.8769804 82.8928401 12.6765233 82.8928401 12.4372306 82.8928401 12.1979379 82.8059708 11.9953818 82.6322296 11.8295562 82.4584884 11.6637305 82.2472137 11.580819 81.9983992 11.580819L77.8543709 11.580819C77.5969766 11.580819 77.3771222 11.6112549 77.1948012 11.6721276 77.0124802 11.7330003 76.8687705 11.8138128 76.7636678 11.9145676 76.6585651 12.0153224 76.5759857 12.1486107 76.515927 12.3144363 76.4558683 12.4802619 76.4172597 12.6450355 76.4001001 12.8087621 76.3829405 12.9724887 76.3743608 13.1739953 76.3743608 13.413288L76.3743608 19.1310951C76.3743608 19.3326047 76.3947376 19.5236162 76.4354917 19.7041352 76.4762458 19.8846543 76.5395209 20.055725 76.625319 20.2173525 76.7111172 20.37898 76.8312327 20.5070207 76.9856693 20.6014783 77.1401059 20.695936 77.3202793 20.7431641 77.5261948 20.7431641L77.5261948 20.7431641zM88.2411001 20.9824555C89.4208242 20.9824555 90.3560096 20.7232257 91.0466844 20.2047582 91.7373593 19.6862907 92.0826915 18.9820671 92.0826915 18.0920663 92.0826915 17.7688112 92.0344308 17.478096 91.9379079 17.2199118 91.841385 16.9617276 91.7126898 16.7402802 91.5518183 16.555563 91.3909469 16.3708459 91.1775272 16.1997752 90.9115531 16.0423458 90.6455789 15.8849164 90.3721015 15.7516281 90.0911127 15.6424771 89.8101239 15.5333261 89.4722989 15.4199786 89.0776275 15.3024313 88.9703799 15.2646482 88.8041485 15.2331628 88.5789285 15.2079741 88.3537084 15.1827854 88.189622 15.1513 88.0866643 15.113517 87.6405141 14.9665829 87.302689 14.8123044 87.0731791 14.6506769 86.8436691 14.4890493 86.7289159 14.2738991 86.7289159 14.0052196 86.7289159 13.7953137 86.8125678 13.6168964 86.9798741 13.4699623 87.1471804 13.3230282 87.3530928 13.2191263 87.5976174 13.1582536 87.8421421 13.0973809 88.1102572 13.066945 88.4019708 13.066945 88.843831 13.066945 89.2245545 13.1078761 89.5441525 13.1897394 89.8637504 13.2716026 90.2208797 13.4195841 90.6155511 13.633688 90.7485381 13.6882636 90.8815232 13.7019072 91.0145103 13.6746195 91.1474974 13.6473317 91.2622506 13.5770143 91.3587735 13.4636651 91.4552964 13.350316 91.5292962 13.2264734 91.580775 13.0921336 91.6322539 12.9577939 91.6408336 12.8087629 91.6065143 12.6450364 91.5721951 12.4813098 91.4906881 12.3385759 91.3619909 12.2168305 91.0574076 11.9397548 90.6123366 11.7309016 90.0267644 11.5902647 89.4411923 11.4496278 88.8695709 11.3793103 88.3118832 11.3793103 87.136449 11.3793103 86.2034085 11.6332926 85.5127337 12.1412648 84.8220588 12.649237 84.4767266 13.3293218 84.4767266 14.1815396 84.4767266 14.802861 84.6418855 15.2908848 84.9722082 15.6456257 85.302531 16.0003666 85.86879 16.3246663 86.6710024 16.6185345L88.8073648 17.3112204C89.4680103 17.5253243 89.7983281 17.8527726 89.7983281 18.2935749 89.7983281 18.6294243 89.6471112 18.8792085 89.3446728 19.0429351 89.0422345 19.2066616 88.6529314 19.2885237 88.1767518 19.2885237 87.4560477 19.2885237 86.7332094 19.1373938 86.0082153 18.8351293 85.8323292 18.7469688 85.6725326 18.7123349 85.5288207 18.7312264 85.3851089 18.750118 85.2542687 18.7983956 85.1362963 18.8760607 85.0183239 18.9537259 84.9282372 19.0576278 84.8660336 19.1877694 84.80383 19.317911 84.7652214 19.4501497 84.7502067 19.5844895 84.735192 19.7188292 84.7577137 19.8521175 84.8177724 19.9843582 84.8778311 20.1165989 84.9722076 20.2246988 85.1009048 20.3086611 85.8516383 20.7578596 86.8983596 20.9824555 88.2411001 20.9824555L88.2411001 20.9824555zM96.9097306 20.7431641C97.2357634 20.7431641 97.5156756 20.6140739 97.7494755 20.3558897 97.9832753 20.0977055 98.1001735 19.790198 98.1001735 19.433358L98.1001735 13.3125337 99.8311418 13.3125337C100.079956 13.3125337 100.294448 13.2285726 100.474624 13.0606479 100.654801 12.8927232 100.744887 12.6891176 100.744887 12.4498249 100.744887 12.2063341 100.654801 11.9995799 100.474624 11.8295562 100.294448 11.6595324 100.079956 11.5745218 99.8311418 11.5745218L93.9561452 11.5745218C93.7073307 11.5745218 93.4917662 11.6595324 93.3094452 11.8295562 93.1271242 11.9995799 93.0359651 12.2042351 93.0359651 12.4435277 93.0359651 12.6828204 93.1271242 12.8874756 93.3094452 13.0574993 93.4917662 13.2275231 93.7073307 13.3125337 93.9561452 13.3125337L95.7257225 13.3125337 95.7257225 19.433358C95.7257225 19.790198 95.8404758 20.0977055 96.0699857 20.3558897 96.2994957 20.6140739 96.5794079 20.7431641 96.9097306 20.7431641L96.9097306 20.7431641zM31.2293485 16.9474677L31.2293485 3.56122037 32.9985473 3.56122037C35.1657068 3.56122037 36.709545 4.0609123 37.6301083 5.06031115 38.5506716 6.05971001 39.0109464 7.79338295 39.0109464 10.261382 39.0109464 11.9505068 38.7999871 13.2806727 38.3780623 14.2519195 37.9561374 15.2231662 37.3064788 15.9152278 36.4290669 16.328125 35.551655 16.7410222 34.3650091 16.9474677 32.8690937 16.9474677L31.2293485 16.9474677zM28.6115097 20.4805361L33.1280009 20.4805361C36.8869677 20.4805361 39.7325205 19.6289484 41.6647445 17.9257476 43.5969685 16.2225467 44.5630661 13.7100112 44.5630661 10.3880657 44.5630661 6.96289595 43.5610096 4.37528937 41.5568665 2.62516837 39.5527235.875047374 36.6040884 0 32.7108727 0L29.6183708 0C28.2854718 0 27.3481415.304976296 26.8063516.914938039 26.2645618 1.52489978 25.9936709 2.54305142 25.9936709 3.96942349L25.9936709 16.5392645C25.9936709 17.2524506 26.0631916 17.8858629 26.202235 18.4395205 26.3412784 18.9931781 26.6145665 19.4717562 27.0221076 19.8752694 27.4296486 20.2787825 27.959444 20.4805361 28.6115097 20.4805361L28.6115097 20.4805361zM2.63222256 20.4946121C3.37059104 20.4946121 3.9986743 20.2060576 4.51649116 19.6289399 5.03430802 19.0518223 5.29321257 18.3597607 5.29321257 17.5527344L5.26444511 10.4302936 11.550135 17.7779499C11.6076702 17.8530221 11.7275335 18.0195861 11.9097283 18.2776468 12.0919231 18.5357076 12.2261699 18.7210393 12.3124727 18.8336476 12.3987755 18.946256 12.5282278 19.108128 12.7008334 19.3192686 12.873439 19.5304092 13.0244667 19.6899353 13.1539209 19.7978516 13.2833751 19.9057679 13.4368 20.0230664 13.6142003 20.1497508 13.7916005 20.2764352 13.968998 20.3655821 14.1463983 20.4171942 14.3237985 20.4688064 14.5083878 20.4946121 14.7001719 20.4946121 15.3234699 20.4946121 15.8868271 20.2740907 16.3902601 19.8330415 16.8936932 19.3919922 17.1454059 18.8571107 17.1454059 18.2283809 17.1454059 17.5808831 16.6851312 16.6284186 15.7645679 15.3709591L10.8309485 9.78279903 15.4337421 4.94066541C16.335127 3.77704609 16.7858127 2.8949608 16.7858127 2.29438308 16.7858127 1.65626926 16.5484835 1.11669581 16.0738181.675646552 15.5991526.234597292 15.0549736.0140759698 14.4412647.0140759698 14.1919455.0140759698 13.9594109.0586494285 13.7436538.147797683 13.5278968.236945938 13.302554.396472001 13.0676185.626380657 12.8326831.856289314 12.6432992 1.05569689 12.4994612 1.22460938 12.3556232 1.39352186 12.1350749 1.6703465 11.8378096 2.05509159L5.26444511 9.29014009 5.29321257 2.94187769C5.29321257 2.14423542 5.02951349 1.45451979 4.50210743.872710129 3.97470137.290900467 3.35141264 0 2.63222256 0 1.90344327 0 1.28255181.288554496.769529545.865672144.256507283 1.44278979 0 2.13485139 0 2.94187769L0 17.5527344C0 18.3597607.256507283 19.0518223.769529545 19.6289399 1.28255181 20.2060576 1.90344327 20.4946121 2.63222256 20.4946121L2.63222256 20.4946121zM20.8980453 20.4946121C21.6364138 20.4946121 22.2644971 20.2084035 22.7823139 19.6359779 23.3001308 19.0635523 23.5590354 18.3738367 23.5590354 17.5668103L23.5590354 2.94187769C23.5590354 2.13485139 23.3001308 1.44278979 22.7823139.865672144 22.2644971.288554496 21.6412084 0 20.9124291 0 20.1740606 0 19.5483746.288554496 19.0353523.865672144 18.5223301 1.44278979 18.2658228 2.13485139 18.2658228 2.94187769L18.2658228 17.5668103C18.2658228 18.3738367 18.5223301 19.0635523 19.0353523 19.6359779 19.5483746 20.2084035 20.1692661 20.4946121 20.8980453 20.4946121L20.8980453 20.4946121zM54.0790389 21.465854C56.7160692 21.465854 58.8064837 20.886399 60.3503451 19.7274717 61.8942065 18.5685444 62.6661256 16.9943975 62.6661256 15.0049838 62.6661256 14.2824138 62.5582487 13.6325797 62.3424917 13.055462 62.1267347 12.4783444 61.8390629 11.9833444 61.4794679 11.5704472 61.1198728 11.15755 60.6428172 10.7751567 60.0482868 10.4232557 59.4537563 10.0713547 58.8424539 9.77341627 58.2143612 9.52943157 57.5862685 9.28544688 56.8311303 9.03208195 55.9489238 8.7693292 55.7091937 8.68487296 55.3376178 8.61449382 54.8341847 8.55818966 54.3307517 8.50188549 53.9639702 8.43150635 53.7338294 8.34705011 52.7365525 8.01860917 51.9814142 7.67375136 51.4683919 7.31246633 50.9553697 6.95118129 50.6988624 6.47025713 50.6988624 5.86967942 50.6988624 5.40047808 50.885849 5.00166292 51.2598279 4.67322198 51.6338067 4.34478104 52.0940815 4.11252986 52.6406659 3.97646148 53.1872504 3.84039309 53.7865665 3.77235991 54.4386321 3.77235991 55.4263199 3.77235991 56.2773487 3.8638528 56.9917442 4.04684133 57.7061397 4.22982985 58.5044287 4.56061183 59.3866352 5.0391972 59.6839004 5.16118955 59.9811612 5.19168718 60.2784265 5.130691 60.5756917 5.06969483 60.832199 4.91251474 61.047956 4.65914601 61.263713 4.40577729 61.4291243 4.12895265 61.5441947 3.82866379 61.6592651 3.52837494 61.6784432 3.19524698 61.6017296 2.82926994 61.525016 2.46329289 61.3428239 2.14424076 61.0551479 1.87210399 60.3743146 1.25275822 59.3794499.785909887 58.0705239.471544989 56.761598.157180091 55.4838561 0 54.2372599 0 51.6098188 0 49.5241988.567725106 47.9803375 1.70319235 46.4364761 2.83865959 45.664557 4.35884913 45.664557 6.26380657 45.664557 7.65264254 46.0337357 8.74351929 46.7721042 9.53646956 47.5104726 10.3294198 48.7762282 11.054325 50.5694088 11.7112069L55.3448071 13.2595636C56.8215441 13.7381489 57.5599015 14.4700921 57.5599015 15.4554149 57.5599015 16.206137 57.2218872 16.7644782 56.5458486 17.1304553 55.8698099 17.4964323 54.9996029 17.6794181 53.9352016 17.6794181 52.3242158 17.6794181 50.7084597 17.3415982 49.0878847 16.6659483 48.6947274 16.4688837 48.337535 16.3914667 48.0162968 16.4336948 47.6950585 16.4759229 47.4025923 16.5838376 47.1388893 16.7574421 46.8751862 16.9310466 46.673816 17.1632978 46.5347726 17.4542026 46.3957292 17.7451074 46.3094277 18.0406998 46.2758655 18.3409887 46.2423033 18.6412775 46.2926458 18.9392159 46.4268946 19.2348128 46.5611435 19.5304096 46.7721027 19.7720447 47.0597788 19.9597252 48.737889 20.9638161 51.0776189 21.465854 54.0790389 21.465854L54.0790389 21.465854z"/>
  </g>
</svg>
