<svg xmlns="http://www.w3.org/2000/svg" width="75" height="125" viewBox="0 0 75 125">
  <g fill="none" fill-rule="evenodd" transform="translate(1 1)">
    <polygon fill="#0E3FF2" points="43.406 4 4 64.913 30.424 64.989 30.023 104 69.321 43.845 43.914 43.359"/>
    <g transform="translate(20 103)">
      <path stroke="#4A4A4A" stroke-linecap="round" stroke-linejoin="round" d="M12.8634735,3.45553765 C12.1898735,3.97073765 9.68907349,5.70913765 6.64907349,5.70913765 L3.44907349,16.9091376 L14.6490735,13.7091376 C14.6490735,10.6691376 16.3882735,8.16913765 16.9026735,7.49473765" transform="scale(1 -1) rotate(-45 -14.406 0)"/>
      <path fill="#4A4A4A" stroke="#4A4A4A" stroke-linecap="round" stroke-linejoin="round" d="M11.4793939,10.1823376 C11.4793939,10.8455376 10.9425939,11.3823376 10.2793939,11.3823376 C9.61619392,11.3823376 9.07939392,10.8455376 9.07939392,10.1823376 C9.07939392,9.51913765 9.61619392,8.98233765 10.2793939,8.98233765 C10.9425939,8.98233765 11.4793939,9.51913765 11.4793939,10.1823376 Z" transform="scale(1 -1) rotate(-45 -14.303 0)"/>
      <path stroke="#4A4A4A" stroke-linecap="round" stroke-linejoin="round" d="M7.52081528,7.4254834 L13.3208153,1.6254834" transform="scale(1 -1) rotate(-45 -.505 0)"/>
      <path fill="#4A4A4A" d="M14.0449939,19.702019 L9.24499392,14.902019 C9.10019392,14.757219 8.90019392,14.667619 8.67939392,14.667619 C8.45859392,14.667619 8.25859392,14.757219 8.11379392,14.902019 L6.51379392,16.502019 C6.36899392,16.646819 6.27939392,16.846819 6.27939392,17.067619 C6.27939392,17.288419 6.36899392,17.488419 6.51379392,17.633219 L11.3137939,22.433219 C11.4585939,22.578019 11.6585939,22.667619 11.8793939,22.667619 C12.1001939,22.667619 12.3001939,22.578019 12.4449939,22.433219 L14.0449939,20.833219 C14.1897939,20.688419 14.2793939,20.488419 14.2793939,20.267619 C14.2793939,20.046819 14.1897939,19.846819 14.0449939,19.702019 Z" transform="scale(1 -1) rotate(-45 -34.788 0)"/>
    </g>
    <polyline stroke="#4A4A4A" points="30.544 64.425 4.948 64.505 43.53 4.139 44.041 43.194 68.905 43.513 30.456 103.253"/>
    <circle cx="43" cy="4" r="4" fill="#FFF" stroke="#4A4A4A"/>
    <circle cx="44" cy="43" r="4" fill="#FFF" stroke="#4A4A4A"/>
    <circle cx="69" cy="43" r="4" fill="#FFF" stroke="#4A4A4A"/>
    <circle cx="4" cy="64" r="4" fill="#FFF" stroke="#4A4A4A"/>
    <circle cx="30" cy="64" r="4" fill="#FFF" stroke="#4A4A4A"/>
  </g>
</svg>
